<svg width="60" height="61" viewBox="0 0 60 61" fill="none" xmlns="http://www.w3.org/2000/svg">
<g clip-path="url(#clip0)">
<path d="M51.2743 41.5493C52.863 40.632 53.4074 38.6005 52.4901 37.0117L36.404 9.14983C35.4868 7.56107 33.4553 7.01672 31.8665 7.93397C30.2777 8.85123 29.7334 10.8827 30.6506 12.4715L46.7367 40.3334C47.654 41.9222 49.6855 42.4664 51.2743 41.5493Z" fill="#15C39A"/>
<path d="M16.0269 52.693C17.4406 51.8767 17.9251 50.0691 17.1089 48.6554L8.62974 33.9691C7.81351 32.5554 6.00584 32.071 4.59216 32.8872C3.17849 33.7034 2.69402 35.5111 3.51026 36.9248L11.9894 51.6111C12.8056 53.0248 14.6133 53.5092 16.0269 52.693Z" fill="#15C39A"/>
<path d="M10.5867 49.8791L10.8886 49.7048L4.61079 38.8312L4.3089 39.0055C1.30624 40.7391 0.277533 44.5785 2.01102 47.5812C3.74451 50.5838 7.58404 51.6127 10.5867 49.8791Z" fill="#FF7A7A"/>
<path d="M8.33057 33.4509L30.7954 12.7219L46.5922 40.083L17.4081 49.1736L8.33057 33.4509Z" fill="white"/>
<path d="M46.9884 27.4829C49.4196 26.0793 50.2526 22.9705 48.849 20.5394C47.4454 18.1083 44.3366 17.2753 41.9055 18.6789L46.9884 27.4829Z" fill="#FF7A7A"/>
<path d="M17.408 49.1736L26.2816 64.5434C26.5968 65.0892 27.2945 65.2761 27.8403 64.9611L33.2361 61.8458C33.9199 61.451 34.0057 60.4978 33.4033 59.9873L29.3274 56.5327L24.0033 47.3111L17.408 49.1736Z" fill="#15C39A"/>
<path d="M48.5335 27.815C50.7614 25.8931 51.3878 22.5933 49.8637 19.9534C48.3396 17.3137 45.1687 16.2061 42.3903 17.1747L37.419 8.564C36.8188 7.52451 35.8498 6.78094 34.6904 6.47026C33.5308 6.15971 32.3201 6.31897 31.2806 6.91922C29.3287 8.04613 28.5423 10.4263 29.3485 12.4624L22.5924 18.6964C22.1168 19.1353 22.087 19.8768 22.5259 20.3525C22.9647 20.8283 23.7062 20.8579 24.1818 20.419L30.513 14.5769L44.8445 39.3999L17.9541 47.7759L9.81405 33.6766L16.4316 27.5705C16.9073 27.1316 16.937 26.3901 16.4981 25.9145C16.0593 25.4387 15.3178 25.409 14.8422 25.8479L8.24404 31.9363C7.90512 31.7271 7.53386 31.5661 7.13846 31.4602C6.07343 31.1746 4.96105 31.3211 4.0063 31.8726C2.03526 33.0106 1.35743 35.5399 2.49547 37.511L3.03338 38.4428C0.0159458 40.6597 -0.918418 44.851 0.996365 48.1673C1.99132 49.8906 3.59777 51.1233 5.51994 51.6382C6.16179 51.8103 6.81302 51.8952 7.46015 51.8952C8.48112 51.8952 9.4913 51.6826 10.4372 51.2662L10.9747 52.1971C11.526 53.1519 12.416 53.835 13.4811 54.1202C13.8367 54.2155 14.1975 54.2627 14.5561 54.2627C15.2713 54.2627 15.9772 54.0751 16.6132 53.7079C17.1663 53.3886 17.6173 52.9598 17.9552 52.4646L25.2672 65.1294C25.6952 65.8705 26.4741 66.2853 27.2741 66.2853C27.6662 66.2853 28.0634 66.1856 28.4267 65.9758L33.8226 62.8606C34.4735 62.4847 34.9024 61.8133 34.9698 61.0648C35.0372 60.3163 34.7351 59.5791 34.1616 59.0931L30.241 55.7703L25.6576 47.8315L46.095 41.4656C46.9633 42.561 48.2766 43.1653 49.6213 43.1653C50.3831 43.1653 51.1548 42.9717 51.8605 42.5641C54.0064 41.3253 54.7441 38.5716 53.5053 36.4258L48.5335 27.815ZM6.1264 49.3742C4.80894 49.0212 3.70793 48.1764 3.026 46.9952C1.75846 44.7998 2.31218 42.0442 4.21501 40.4895L9.25504 49.2189C8.26021 49.5977 7.17467 49.655 6.1264 49.3742ZM16.2721 50.5949C16.1488 51.0552 15.8536 51.4398 15.441 51.6781C15.0283 51.9164 14.5474 51.9796 14.0874 51.8563C13.6272 51.733 13.2426 51.438 13.0042 51.0252L4.5251 36.339C4.28685 35.9263 4.22357 35.4456 4.34685 34.9854C4.47014 34.5251 4.76534 34.1405 5.17797 33.9022C5.4529 33.7435 5.75795 33.6624 6.06698 33.6624C6.22191 33.6624 6.37789 33.6828 6.53153 33.724C6.99174 33.8472 7.37636 34.1423 7.61472 34.5551L16.0938 49.2413C16.3322 49.6541 16.3955 50.1347 16.2721 50.5949ZM28.3128 57.1184C28.3801 57.2352 28.4671 57.3393 28.5699 57.4265L32.6124 60.8527L27.2812 63.9306L19.1556 49.8566L23.3633 48.5459L28.3128 57.1184ZM47.834 21.1253C48.7081 22.6395 48.4513 24.5011 47.3277 25.7264L43.5963 19.2634C45.219 18.9029 46.9598 19.6112 47.834 21.1253ZM51.69 39.229C51.5414 39.7836 51.1856 40.2472 50.6884 40.5344C50.1911 40.8216 49.6116 40.8979 49.0572 40.7491C48.5025 40.6005 48.0389 40.2447 47.7518 39.7475L31.6656 11.8855C31.073 10.8589 31.4259 9.5416 32.4525 8.94885C32.7838 8.7576 33.1514 8.65986 33.524 8.65986C33.7107 8.65986 33.8987 8.68447 34.0838 8.73404C34.6385 8.88276 35.102 9.23843 35.3892 9.73579L51.4753 37.5976C51.7623 38.0949 51.8386 38.6742 51.69 39.229Z" fill="#171D24"/>
<path d="M52.9278 19.3993C53.1266 19.3993 53.3281 19.3485 53.5127 19.242L57.4708 16.9568C58.0313 16.6331 58.2234 15.9165 57.8997 15.3559C57.5762 14.7954 56.8593 14.6032 56.2989 14.927L52.3408 17.2122C51.7803 17.5359 51.5882 18.2525 51.9119 18.8131C52.1289 19.189 52.5228 19.3993 52.9278 19.3993Z" fill="#171D24"/>
<path d="M46.8923 14.1205C46.994 14.1477 47.096 14.1608 47.1965 14.1608C47.7139 14.1608 48.1874 13.8154 48.3277 13.2918L49.5396 8.76919C49.7072 8.14409 49.3361 7.50153 48.7109 7.33395C48.0857 7.16637 47.4431 7.53739 47.2756 8.16261L46.0637 12.6852C45.8961 13.3103 46.2671 13.9529 46.8923 14.1205Z" fill="#171D24"/>
<path d="M59.1311 25.8465L54.8124 24.6894C54.1875 24.5218 53.5446 24.8928 53.3772 25.518C53.2096 26.1431 53.5806 26.7857 54.2058 26.9532L58.5244 28.1104C58.626 28.1376 58.7281 28.1507 58.8285 28.1507C59.3459 28.1507 59.8195 27.8053 59.9598 27.2817C60.1274 26.6566 59.7563 26.0141 59.1311 25.8465Z" fill="#171D24"/>
<path d="M19.512 24.3055C19.8202 24.3055 20.1225 24.1801 20.3405 23.9621C20.5584 23.7442 20.6838 23.4418 20.6838 23.1336C20.6838 22.8254 20.5584 22.5231 20.3405 22.3051C20.1225 22.0861 19.8202 21.9617 19.512 21.9617C19.2038 21.9617 18.9014 22.0861 18.6834 22.3051C18.4655 22.5231 18.3401 22.8243 18.3401 23.1336C18.3401 23.4418 18.4655 23.7442 18.6834 23.9621C18.9014 24.1801 19.2038 24.3055 19.512 24.3055Z" fill="#171D24"/>
</g>
<defs>
<clipPath id="clip0">
<rect width="60" height="60" fill="white" transform="translate(0 0.828613)"/>
</clipPath>
</defs>
</svg>
