<svg width="60" height="61" viewBox="0 0 60 61" fill="none" xmlns="http://www.w3.org/2000/svg">
<g clip-path="url(#clip0)">
<path d="M49.2476 53.922V58.8289C49.2476 59.3813 48.8002 59.8287 48.2478 59.8287H11.7526C11.2001 59.8287 10.7527 59.3813 10.7527 58.8289V53.922C10.7527 48.7739 14.9259 44.6032 20.0752 44.602C21.895 44.6007 23.4973 43.6646 24.4196 42.2448C25.3463 40.8207 25.2508 39.5824 25.2508 38.5815L25.2695 38.5353C20.7826 36.678 17.6268 32.2574 17.6268 27.0993V26.7081C15.8451 26.7081 14.5022 25.3001 14.5022 23.641V18.4467C14.4622 16.6382 14.5447 10.2602 19.1516 5.81958C24.5084 0.65651 32.9973 1.07895 39.1465 3.84109C39.3464 3.93108 39.3402 4.21729 39.1377 4.30103L37.5342 4.96095C37.2942 5.05968 37.3454 5.41339 37.6029 5.44088L38.3816 5.52462C42.1098 5.92332 45.5731 7.94805 47.7203 11.3176C47.7778 11.4088 47.7616 11.5476 47.6878 11.6263C46.363 13.0274 45.6231 14.8871 45.6231 16.8206V23.641C45.6231 25.3345 44.2495 26.7081 42.556 26.7081H42.3735V27.0993C42.3735 32.2574 39.2177 36.678 34.7308 38.5353L34.7495 38.5815C34.7495 39.5535 34.6462 40.8087 35.5807 42.2448C36.5031 43.6646 38.1053 44.6007 39.9251 44.602C45.0744 44.6032 49.2476 48.7739 49.2476 53.922Z" fill="#FFDFBA"/>
<path d="M49.2476 53.922V58.8289C49.2476 59.381 48.7999 59.8287 48.2478 59.8287H11.7526C11.2004 59.8287 10.7527 59.381 10.7527 58.8289V53.922C10.7527 48.774 14.9265 44.6039 20.0746 44.602C21.8948 44.6014 23.4975 43.6641 24.4196 42.2448C27.6385 44.9947 32.36 44.9963 35.5807 42.2448C36.5027 43.6641 38.1055 44.6014 39.9257 44.602C45.0738 44.6039 49.2476 48.774 49.2476 53.922Z" fill="#15C39A"/>
<path d="M47.7195 11.3182C47.7775 11.4093 47.7613 11.5473 47.6872 11.6258C46.3627 13.0279 45.6228 14.887 45.6228 16.8206V23.641C45.6228 25.1893 44.4564 26.7081 42.3733 26.7081V18.9878C42.3733 15.6745 39.6874 12.9886 36.374 12.9886H23.6257C20.3124 12.9886 17.6265 15.6745 17.6265 18.9878V26.7081C15.8449 26.7081 14.5019 25.3001 14.5019 23.641V18.4467C14.4619 16.6382 14.5444 10.2602 19.1513 5.81957C24.5079 0.656374 32.9975 1.07907 39.1458 3.84146C39.3459 3.93132 39.3405 4.21766 39.1377 4.30115L37.534 4.96131C37.2943 5.06005 37.3448 5.41338 37.6025 5.441L38.3814 5.52461C42.1102 5.92293 45.5726 7.94767 47.7195 11.3182Z" fill="#42434D"/>
<path d="M42.3735 27.0993C42.3735 33.9354 36.8307 39.4727 30.0001 39.4727C23.5644 39.4727 17.6267 34.4695 17.6267 26.7081V18.9879C17.6267 15.6745 20.3126 12.9886 23.6259 12.9886H36.3743C39.6876 12.9886 42.3735 15.6745 42.3735 18.9879V27.0993Z" fill="#FFEBD2"/>
<path d="M27.1985 35.0893C29.2328 36.362 27.6286 39.4832 25.4017 38.5893C20.823 36.7515 17.6267 32.2896 17.6267 27.0993V18.9879C17.6267 17.7275 18.0154 16.558 18.6794 15.5923C19.4936 14.4084 21.3762 14.9314 21.3762 16.4882V24.5996C21.3762 29.1628 23.7749 32.9473 27.1985 35.0893Z" fill="#FFF3E4"/>
<path d="M34.8906 40.6338C31.8114 41.9227 28.4274 42.0227 25.1094 40.6338C25.2789 39.9306 25.2506 39.4752 25.2506 38.5815L25.2694 38.5353C28.2792 39.7846 31.7149 39.7871 34.7306 38.5353L34.7494 38.5815C34.7494 39.4755 34.7211 39.9308 34.8906 40.6338Z" fill="#FFD6A6"/>
<path d="M25.1108 47.6212C24.6486 47.7666 24.1529 47.8467 23.6215 47.8513C18.4602 47.8968 14.252 51.9779 14.252 57.1395V58.079C14.252 59.0453 13.4686 59.8287 12.5022 59.8287H11.7523C11.2001 59.8287 10.7524 59.381 10.7524 58.8289V53.922C10.7524 48.7738 14.9263 44.6039 20.0743 44.602C21.8946 44.6014 23.4973 43.6641 24.4194 42.2448C24.7911 42.5623 25.189 42.8476 25.6082 43.0975C27.4521 44.1962 27.1583 46.9774 25.1108 47.6212Z" fill="#15C39A"/>
<path d="M34.8893 47.6212C35.3515 47.7666 35.8472 47.8467 36.3786 47.8513C41.5399 47.8968 45.7481 51.9779 45.7481 57.1395V58.079C45.7481 59.0453 46.5315 59.8287 47.4979 59.8287H48.2478C48.8 59.8287 49.2477 59.381 49.2477 58.8289V53.922C49.2477 48.7738 45.0738 44.6039 39.9257 44.602C38.1055 44.6014 36.5028 43.6641 35.5807 42.2448C35.209 42.5623 34.811 42.8476 34.3918 43.0975C32.548 44.1962 32.8418 46.9774 34.8893 47.6212Z" fill="#078669"/>
<path d="M39.1377 4.30103C37.6681 4.90583 37.4586 5.03919 36.9495 4.9602C28.7413 3.68786 21.5397 7.08404 19.0941 15.0571V15.0584C18.1792 16.1107 17.6268 17.4856 17.6268 18.9879V23.6776C17.6268 25.7008 14.5022 25.8417 14.5022 23.641V18.4467C14.4622 16.6382 14.5447 10.2603 19.1516 5.81958C24.5083 0.65651 32.9972 1.07895 39.1464 3.84109C39.3464 3.93108 39.3401 4.21729 39.1377 4.30103Z" fill="#4D4E59"/>
<path d="M50.2475 53.9224V59.8287C50.2475 60.3809 49.7998 60.8286 49.2476 60.8286C48.6954 60.8286 48.2478 60.3809 48.2478 59.8287V53.9224C48.2478 49.3236 44.5264 45.602 39.9272 45.6021C37.7511 45.6021 35.7768 44.4935 34.6455 42.6365C34.3583 42.1649 34.5077 41.5496 34.9794 41.2624C35.4509 40.9751 36.0661 41.1246 36.3534 41.5962C37.1186 42.8525 38.4545 43.6024 39.9272 43.6024C45.6311 43.6021 50.2475 48.218 50.2475 53.9224ZM32.799 43.8996C32.9166 44.4391 32.5746 44.9718 32.035 45.0894C29.4036 45.6627 26.7273 45.0888 24.5965 43.6344C22.487 45.8949 19.7001 45.6021 20.0732 45.6021C15.4744 45.602 11.7527 49.3232 11.7527 53.9224V59.8287C11.7527 60.3809 11.305 60.8286 10.7528 60.8286C10.2006 60.8286 9.75293 60.3809 9.75293 59.8287V53.9224C9.75293 48.2186 14.3684 43.6024 20.073 43.6024C22.3804 43.6024 24.251 41.7432 24.251 39.4352V39.1718C19.8867 37.085 16.8234 32.6997 16.6367 27.593C14.8406 27.1611 13.5024 25.5536 13.5024 23.641V18.4575C13.4478 15.9204 13.8245 9.56583 18.4578 5.09967C24.1789 -0.415361 33.3537 -0.0650322 40.1001 3.18267C40.7576 3.4995 40.8575 4.38788 40.3114 4.84795C43.7291 5.68159 46.6762 7.78256 48.5696 10.7894C48.6673 10.9443 48.8463 11.1874 48.7996 11.5752C48.7706 11.8165 48.6987 12.0208 48.5127 12.2095C47.2941 13.4453 46.6231 15.083 46.6231 16.8209V23.6412C46.6231 24.1934 46.1754 24.6411 45.6232 24.6411C45.071 24.6411 44.6234 24.1934 44.6234 23.6412V16.8209C44.6234 14.8165 45.3081 12.914 46.5658 11.3857C44.6488 8.64408 41.658 6.88081 38.2754 6.5186L36.518 6.33038C35.4904 6.22039 35.2888 4.8047 36.2438 4.41163L37.0431 4.08255C26.6337 0.45365 15.502 4.48574 15.502 18.4467V23.641C15.502 24.4344 15.959 25.1239 16.6269 25.4702V18.9882C16.6269 15.129 19.7667 11.9891 23.626 11.9891H36.3743C40.2336 11.9891 43.3734 15.1287 43.3734 18.9878V27.1746C43.3734 35.8703 34.876 42.4751 26.2294 39.9296C26.1731 40.643 25.9955 41.3314 25.7062 41.9713C27.3882 43.1264 29.5123 43.5924 31.6092 43.1354C32.1487 43.0179 32.6814 43.36 32.799 43.8996ZM30.0001 38.4722C36.2716 38.4722 41.3737 33.3701 41.3737 27.0987V18.9878C41.3737 16.2315 39.1309 13.9889 36.3743 13.9889H23.626C20.8693 13.9889 18.6266 16.2316 18.6266 18.9882V27.0987C18.6266 33.3701 23.7287 38.4722 30.0001 38.4722ZM40.1238 55.7043H37.1242C36.572 55.7043 36.1243 56.152 36.1243 56.7041C36.1243 57.2563 36.572 57.704 37.1242 57.704H40.1238C40.676 57.704 41.1237 57.2563 41.1237 56.7041C41.1237 56.152 40.676 55.7043 40.1238 55.7043Z" fill="#171D24"/>
</g>
<defs>
<clipPath id="clip0">
<rect width="60" height="60" fill="white" transform="translate(0 0.828613)"/>
</clipPath>
</defs>
</svg>
