<svg width="60" height="61" viewBox="0 0 60 61" fill="none" xmlns="http://www.w3.org/2000/svg">
<g clip-path="url(#clip0)">
<path d="M29.9999 30.3329C34.167 30.3329 37.5451 26.9548 37.5451 22.7878C37.5451 18.6207 34.167 15.2427 29.9999 15.2427C25.8329 15.2427 22.4548 18.6207 22.4548 22.7878C22.4548 26.9548 25.8329 30.3329 29.9999 30.3329Z" fill="#FFF3DE"/>
<path d="M32.9297 29.7423C32.0297 30.1231 31.0395 30.3329 30 30.3329C25.8329 30.3329 22.4543 26.9544 22.4543 22.7884C22.4543 18.6212 25.8329 15.2427 30 15.2427C31.0395 15.2427 32.0297 15.4524 32.9297 15.8333C30.2168 16.9771 28.3137 19.6606 28.3137 22.7884C28.3137 25.9161 30.2168 28.5985 32.9297 29.7423Z" fill="#FFE5C2"/>
<path d="M41.4021 41.7339V42.8386C38.1701 45.0947 34.2391 46.4146 29.9999 46.4146C25.7606 46.4146 21.8297 45.0947 18.5977 42.8386V41.7339C18.5977 35.4382 23.7021 30.3337 29.9999 30.3337C33.1499 30.3337 35.9982 31.6093 38.0635 33.6723C40.1266 35.7355 41.4021 38.5861 41.4021 41.7339Z" fill="#15C39A"/>
<path d="M27.7606 43.469C29.6824 44.6522 31.8205 45.5168 34.1016 45.9927C32.7774 46.2693 31.4051 46.4146 30 46.4146C25.7613 46.4146 21.8297 45.095 18.5977 42.8392V41.7341C18.5977 35.4388 23.7023 30.3341 30 30.3341C31.4461 30.3341 32.8301 30.6025 34.1028 31.0947C29.8313 32.74 26.8008 36.8837 26.8008 41.7341C26.8008 42.439 27.1603 43.0995 27.7606 43.469Z" fill="#078669"/>
<path d="M30 12.2544C30.9708 12.2544 31.7578 11.4674 31.7578 10.4966V3.46533C31.7578 2.49455 30.9708 1.70752 30 1.70752C29.0292 1.70752 28.2422 2.49455 28.2422 3.46533V10.4966C28.2422 11.4674 29.0292 12.2544 30 12.2544Z" fill="#AA9EA9"/>
<path d="M30 59.9497C30.9708 59.9497 31.7578 59.1627 31.7578 58.1919V51.1606C31.7578 50.1899 30.9708 49.4028 30 49.4028C29.0292 49.4028 28.2422 50.1899 28.2422 51.1606V58.1919C28.2422 59.1627 29.0292 59.9497 30 59.9497Z" fill="#AA9EA9"/>
<path d="M11.4258 30.8286C11.4258 29.8578 10.6388 29.0708 9.66797 29.0708H2.63672C1.66594 29.0708 0.878906 29.8578 0.878906 30.8286C0.878906 31.7994 1.66594 32.5864 2.63672 32.5864H9.66797C10.6388 32.5864 11.4258 31.7994 11.4258 30.8286Z" fill="#AA9EA9"/>
<path d="M59.1211 30.8286C59.1211 29.8578 58.3341 29.0708 57.3633 29.0708H50.332C49.3612 29.0708 48.5742 29.8578 48.5742 30.8286C48.5742 31.7994 49.3612 32.5864 50.332 32.5864H57.3633C58.3341 32.5864 59.1211 31.7994 59.1211 30.8286Z" fill="#AA9EA9"/>
<path d="M17.7188 41.7341V42.8392C17.7188 43.1265 17.8591 43.3957 18.0948 43.56C19.1113 44.2692 20.195 44.8892 21.3158 45.403C21.7569 45.6053 22.2786 45.4115 22.481 44.9702C22.6833 44.5289 22.4896 44.0073 22.0482 43.805C21.1597 43.3978 20.2965 42.9173 19.4766 42.374V41.7341C19.4766 35.9327 24.1973 31.213 30 31.213C32.811 31.213 35.4541 32.3073 37.4422 34.2942C39.4292 36.2812 40.5234 38.9233 40.5234 41.7341V42.3743C37.4033 44.4439 33.7749 45.5356 30 45.5356C28.5485 45.5356 27.1052 45.3725 25.7105 45.0507C25.2376 44.9414 24.7656 45.2366 24.6565 45.7096C24.5474 46.1825 24.8423 46.6544 25.3153 46.7635C26.8396 47.1151 28.4157 47.2935 30 47.2935C34.2892 47.2935 38.406 46.0024 41.9053 43.5599C42.1409 43.3955 42.2813 43.1264 42.2813 42.8392V41.7341C42.2813 38.4539 41.0042 35.3702 38.685 33.0511C37.3683 31.7351 35.8052 30.7551 34.1002 30.1531C36.0963 29.0448 37.6097 27.1405 38.1827 24.797C38.2979 24.3254 38.0092 23.8497 37.5377 23.7344C37.0659 23.6192 36.5905 23.9079 36.4752 24.3794C35.7447 27.3674 33.082 29.454 30 29.454C26.324 29.454 23.3332 26.4638 23.3332 22.7884C23.3332 19.1123 26.324 16.1216 30 16.1216C32.9814 16.1216 35.6224 18.125 36.4226 20.9937C36.553 21.4612 37.0376 21.7346 37.5053 21.6041C37.9729 21.4737 38.2461 20.989 38.1157 20.5214C37.1045 16.8958 33.7671 14.3638 30 14.3638C25.3547 14.3638 21.5754 18.1431 21.5754 22.7884C21.5754 25.9529 23.3305 28.7141 25.9178 30.1534C21.1467 31.8396 17.7188 36.3937 17.7188 41.7341Z" fill="#171D24"/>
<path d="M57.3633 28.1919H54.1738C53.5792 22.7034 51.1205 17.5605 47.1943 13.6343C43.2682 9.70803 38.1252 7.24943 32.6367 6.65482V3.46533C32.6367 2.01139 31.4539 0.828613 30 0.828613C28.5461 0.828613 27.3633 2.01139 27.3633 3.46533V6.65447C20.304 7.41396 13.987 11.1829 9.93586 17.0869C9.66117 17.4872 9.76301 18.0342 10.1632 18.3089C10.3152 18.4132 10.4883 18.4631 10.6597 18.4631C10.9397 18.4631 11.2148 18.3296 11.3852 18.0814C15.1078 12.6563 20.8916 9.17518 27.3633 8.424V10.4966C27.3633 11.9505 28.5461 13.1333 30 13.1333C31.4539 13.1333 32.6367 11.9505 32.6367 10.4966V8.42318C42.9265 9.62998 51.1986 17.9021 52.4054 28.1919H50.332C48.8781 28.1919 47.6953 29.3747 47.6953 30.8286C47.6953 32.2826 48.8781 33.4653 50.332 33.4653H52.4054C51.1986 43.7551 42.9265 52.0272 32.6367 53.234V51.1606C32.6367 49.7067 31.4539 48.5239 30 48.5239C28.5461 48.5239 27.3633 49.7067 27.3633 51.1606V53.234C17.0735 52.0272 8.80137 43.7551 7.59457 33.4653H9.66797C11.1219 33.4653 12.3047 32.2826 12.3047 30.8286C12.3047 29.3747 11.1219 28.1919 9.66797 28.1919H7.59328C7.85133 25.9714 8.43563 23.8144 9.3348 21.7672C9.53004 21.3228 9.32801 20.8043 8.88352 20.609C8.43914 20.4137 7.92059 20.6158 7.72535 21.0603C6.72809 23.3306 6.09129 25.726 5.82563 28.1919H2.63672C1.18277 28.1919 0 29.3747 0 30.8286C0 32.2826 1.18277 33.4653 2.63672 33.4653H5.82621C6.42082 38.9538 8.87953 44.0967 12.8057 48.0229C16.7318 51.9492 21.8747 54.4078 27.3633 55.0024V58.1919C27.3633 59.6458 28.5461 60.8286 30 60.8286C31.4539 60.8286 32.6367 59.6458 32.6367 58.1919V55.0024C38.1252 54.4078 43.2681 51.9491 47.1943 48.0229C51.1206 44.0968 53.5792 38.9539 54.1738 33.4653H57.3633C58.8172 33.4653 60 32.2826 60 30.8286C60 29.3747 58.8172 28.1919 57.3633 28.1919ZM30.8789 10.4966C30.8789 10.9813 30.4847 11.3755 30 11.3755C29.5153 11.3755 29.1211 10.9813 29.1211 10.4966V3.46533C29.1211 2.98064 29.5153 2.58643 30 2.58643C30.4847 2.58643 30.8789 2.98064 30.8789 3.46533V10.4966ZM1.75781 30.8286C1.75781 30.3439 2.15203 29.9497 2.63672 29.9497H6.62637H6.62789H6.62906H9.66797C10.1527 29.9497 10.5469 30.3439 10.5469 30.8286C10.5469 31.3133 10.1527 31.7075 9.66797 31.7075H2.63672C2.15203 31.7075 1.75781 31.3133 1.75781 30.8286ZM30.8789 58.1919C30.8789 58.6766 30.4847 59.0708 30 59.0708C29.5153 59.0708 29.1211 58.6766 29.1211 58.1919V51.1606C29.1211 50.676 29.5153 50.2817 30 50.2817C30.4847 50.2817 30.8789 50.676 30.8789 51.1606V58.1919ZM57.3633 31.7075H50.332C49.8473 31.7075 49.4531 31.3133 49.4531 30.8286C49.4531 30.3439 49.8473 29.9497 50.332 29.9497H53.3709H53.3721H53.3736H57.3633C57.848 29.9497 58.2422 30.3439 58.2422 30.8286C58.2422 31.3133 57.848 31.7075 57.3633 31.7075Z" fill="#171D24"/>
</g>
<defs>
<clipPath id="clip0">
<rect width="60" height="60" fill="white" transform="translate(0 0.828613)"/>
</clipPath>
</defs>
</svg>
