<svg width="60" height="61" viewBox="0 0 60 61" fill="none" xmlns="http://www.w3.org/2000/svg">
<g clip-path="url(#clip0)">
<path d="M53.1973 9.50647C53.1973 11.5779 51.5182 13.2565 49.4473 13.2565C47.3759 13.2565 45.6973 11.5779 45.6973 9.50647C45.6973 7.43555 47.3759 5.75647 49.4473 5.75647C51.5182 5.75647 53.1973 7.43555 53.1973 9.50647Z" fill="#F5737F"/>
<path d="M14.3027 52.1508C14.3027 54.2217 12.6241 55.9008 10.5527 55.9008C8.48181 55.9008 6.80273 54.2217 6.80273 52.1508C6.80273 50.0794 8.48181 48.4008 10.5527 48.4008C12.6241 48.4008 14.3027 50.0794 14.3027 52.1508Z" fill="#D8EC84"/>
<path d="M46.9731 27.1541C46.5263 25.0764 45.7087 23.1364 44.5918 21.4078L46.8371 19.162L41.6538 13.9829L39.4103 16.2264C37.6818 15.1095 35.7418 14.2919 33.664 13.8451V10.6724H26.3366V13.8451C24.2584 14.2919 22.3184 15.1095 20.5898 16.2264L18.3463 13.9829L13.1631 19.162L15.4084 21.4078C14.2915 23.1364 13.4739 25.0764 13.0271 27.1541H9.84567L9.84155 34.4816H13.0271C13.4734 36.5598 14.291 38.4998 15.4084 40.2283L13.1544 42.4824L18.334 47.6656L20.5898 45.4098C22.3184 46.5272 24.2584 47.3447 26.3366 47.791V50.9849H33.664V47.791C35.7418 47.3447 37.6818 46.5272 39.4108 45.4098L41.6667 47.6656L46.8458 42.4824L44.5918 40.2283C45.7092 38.4998 46.5267 36.5598 46.9731 34.4816H50.1586V27.1541H46.9731ZM30.0001 39.3398C25.2993 39.3398 21.4889 35.5294 21.4889 30.8286C21.4889 26.1278 25.2993 22.3174 30.0001 22.3174C34.7009 22.3174 38.5113 26.1278 38.5113 30.8286C38.5113 35.5294 34.7009 39.3398 30.0001 39.3398Z" fill="#15C39A"/>
<path d="M10.5528 47.2289C9.71283 47.2289 8.90533 47.4386 8.18893 47.8322C4.41513 42.9946 2.34375 36.9851 2.34375 30.8286C2.34375 15.5787 14.7501 3.17236 30 3.17236C31.8539 3.17236 33.707 3.35684 35.5078 3.72076C36.1414 3.84894 36.7603 3.43878 36.8884 2.80432C37.0166 2.16986 36.6064 1.55188 35.972 1.42325C34.0187 1.02866 32.0096 0.828613 30 0.828613C21.9868 0.828613 14.453 3.94919 8.78677 9.61539C3.12057 15.2816 0 22.8155 0 30.8286C0 37.5692 2.28882 44.1472 6.45584 49.4207C5.91934 50.2222 5.63095 51.1643 5.63095 52.1508C5.63095 53.4655 6.14319 54.7014 7.07291 55.6307C8.00217 56.5604 9.23813 57.0727 10.5528 57.0727C11.8675 57.0727 13.1035 56.5604 14.0332 55.6307C14.9629 54.7014 15.4747 53.465 15.4747 52.1503C15.4747 50.8361 14.9629 49.5997 14.0332 48.6704C13.1035 47.7407 11.8675 47.2289 10.5528 47.2289ZM12.3756 53.9736C11.889 54.4607 11.2413 54.7289 10.5528 54.7289C9.86435 54.7289 9.21707 54.4607 8.73001 53.9736C8.24295 53.4865 7.9747 52.8393 7.9747 52.1508C7.9747 51.4619 8.24295 50.8146 8.73001 50.3275C9.21661 49.8405 9.86435 49.5727 10.5528 49.5727C11.2413 49.5727 11.8886 49.8409 12.3756 50.3275C12.8627 50.8146 13.131 51.4619 13.131 52.1508C13.131 52.8393 12.8627 53.4865 12.3756 53.9736Z" fill="#171D24"/>
<path d="M53.5432 12.2352C54.8171 10.324 54.6125 7.71112 52.9275 6.02609C51.9978 5.09683 50.7618 4.58459 49.4471 4.58459C48.1324 4.58459 46.8964 5.09683 45.9667 6.02609C45.037 6.95581 44.5252 8.19177 44.5252 9.50647C44.5252 10.8212 45.037 12.0571 45.9667 12.9868C46.8964 13.9166 48.1324 14.4283 49.4471 14.4283C50.2871 14.4283 51.0946 14.2187 51.811 13.825C55.5848 18.6631 57.6562 24.6722 57.6562 30.8286C57.6562 46.0786 45.2499 58.4849 29.9999 58.4849C28.1643 58.4849 26.3287 58.3041 24.5448 57.947C23.9103 57.8202 23.2928 58.2318 23.1655 58.8662C23.0387 59.5011 23.4503 60.1182 24.0847 60.2455C26.0197 60.6323 28.01 60.8286 29.9999 60.8286C38.0131 60.8286 45.547 57.7081 51.2132 52.0419C56.8794 46.3757 59.9999 38.8418 59.9999 30.8286C59.9999 24.0876 57.7107 17.5091 53.5432 12.2352ZM47.6243 11.3297C47.1372 10.8427 46.869 10.1954 46.869 9.50647C46.869 8.81799 47.1372 8.17072 47.6243 7.68365C48.1109 7.19659 48.7586 6.92834 49.4471 6.92834C50.1356 6.92834 50.7833 7.19659 51.2704 7.68365C52.2752 8.6889 52.2752 10.3245 51.2704 11.3297C50.7833 11.8163 50.1356 12.0846 49.4471 12.0846C48.7582 12.0846 48.1109 11.8163 47.6243 11.3297Z" fill="#171D24"/>
<path d="M25.1641 50.9849C25.1641 51.6321 25.6891 52.1567 26.3359 52.1567H33.6634C34.3106 52.1567 34.8352 51.6321 34.8352 50.9849V48.713C36.3761 48.2982 37.8492 47.6876 39.2334 46.8902L40.8374 48.4942C41.0572 48.7139 41.3552 48.8375 41.6664 48.8375C41.9768 48.8375 42.2753 48.7139 42.495 48.4937L47.6741 43.3109C48.1314 42.8531 48.1314 42.1111 47.6741 41.6538L46.072 40.0516C46.8694 38.6674 47.48 37.1943 47.8948 35.6534H50.158C50.8052 35.6534 51.3298 35.1288 51.3298 34.4816V27.1541C51.3298 26.5069 50.8052 25.9823 50.158 25.9823H47.8943C47.4796 24.4419 46.8694 22.9688 46.072 21.5845L47.6654 19.9911C47.8852 19.7713 48.0088 19.4729 48.0088 19.162C48.0083 18.8512 47.8847 18.5528 47.665 18.333L42.4817 13.1539C42.0244 12.6966 41.2824 12.6966 40.8246 13.1544L39.2334 14.746C37.8492 13.9486 36.3761 13.3379 34.8352 12.9232V10.6724C34.8352 10.0251 34.3106 9.50049 33.6634 9.50049H26.3359C25.6891 9.50049 25.1641 10.0251 25.1641 10.6724V12.9236C23.6237 13.3379 22.1506 13.9486 20.7663 14.746L19.1747 13.1544C18.7174 12.6971 17.9753 12.6966 17.5176 13.1539L12.3348 18.3335C12.1146 18.5532 11.991 18.8512 11.991 19.162C11.991 19.4729 12.1146 19.7713 12.3343 19.9911L13.9278 21.5845C13.1304 22.9688 12.5197 24.4414 12.105 25.9823H9.84592C9.19864 25.9823 8.67404 26.5069 8.67404 27.1537L8.66992 34.4811C8.66947 34.7919 8.79306 35.0904 9.01279 35.3101C9.23251 35.5298 9.53052 35.6534 9.8418 35.6534H12.105C12.5197 37.1943 13.1304 38.6674 13.9278 40.0516L12.3256 41.6538C11.8683 42.1111 11.8679 42.8531 12.3256 43.3109L17.5048 48.4937C17.7245 48.7134 18.0225 48.8375 18.3333 48.8375H18.3338C18.6446 48.8375 18.9426 48.7139 19.1623 48.4942L20.7659 46.8902C22.1506 47.6876 23.6237 48.2982 25.1641 48.713V50.9849ZM21.2255 44.4256C20.7618 44.1257 20.1516 44.1907 19.7606 44.5812L18.3338 46.0081L14.8113 42.4828L16.2368 41.0569C16.6272 40.6664 16.6922 40.0562 16.3924 39.5925C15.3299 37.9482 14.5829 36.146 14.1727 34.2353C14.0564 33.6956 13.5794 33.3097 13.0269 33.3097H11.0141L11.0169 28.326H13.0269C13.5794 28.326 14.0564 27.9406 14.1727 27.4004C14.5829 25.4902 15.3299 23.688 16.3924 22.0437C16.6922 21.58 16.6272 20.9698 16.2368 20.5793L14.8204 19.1625L18.3457 15.64L19.7606 17.0554C20.1516 17.4459 20.7613 17.5104 21.2255 17.2111C22.8693 16.1486 24.6715 15.4015 26.5822 14.9914C27.1219 14.8751 27.5078 14.3976 27.5078 13.8456V11.8442H32.4915V13.8451C32.4915 14.3976 32.8769 14.8751 33.4171 14.9909C35.3273 15.4015 37.13 16.1481 38.7738 17.2106C39.2375 17.5104 39.8477 17.4459 40.2382 17.055L41.6536 15.64L45.1789 19.1625L43.7625 20.5788C43.3716 20.9698 43.3071 21.58 43.6069 22.0437C44.6694 23.688 45.416 25.4902 45.8266 27.4004C45.9424 27.9406 46.4199 28.326 46.9724 28.326H48.9861V33.3097H46.9724C46.4199 33.3097 45.9429 33.6956 45.8266 34.2353C45.4164 36.1455 44.6694 37.9482 43.6069 39.592C43.3071 40.0562 43.3721 40.6664 43.7625 41.0569L45.188 42.4824L41.6655 46.0076L40.2387 44.5812C39.8477 44.1903 39.2375 44.1257 38.7738 44.4256C37.1295 45.488 35.3273 46.2346 33.4171 46.6453C32.8769 46.7615 32.4915 47.2385 32.4915 47.791V49.813H27.5078V47.791C27.5078 47.239 27.1219 46.7615 26.5822 46.6453C24.672 46.2351 22.8698 45.488 21.2255 44.4256Z" fill="#171D24"/>
<path d="M39.683 30.8286C39.683 25.4892 35.3393 21.1455 30 21.1455C24.6606 21.1455 20.3169 25.4892 20.3169 30.8286C20.3169 36.1679 24.6606 40.5117 30 40.5117C35.3393 40.5117 39.683 36.1679 39.683 30.8286ZM22.6606 30.8286C22.6606 26.7815 25.9529 23.4893 30 23.4893C34.0471 23.4893 37.3393 26.782 37.3393 30.8286C37.3393 34.8752 34.0471 38.1679 30 38.1679C25.9529 38.1679 22.6606 34.8757 22.6606 30.8286Z" fill="#171D24"/>
<path d="M40.7905 5.26065C41.0991 5.26065 41.4012 5.13522 41.6191 4.91733C41.837 4.69806 41.9624 4.39594 41.9624 4.0874C41.9624 3.7807 41.8374 3.47812 41.6191 3.25885C41.4012 3.04095 41.0991 2.91553 40.7905 2.91553C40.4811 2.91553 40.1803 3.04095 39.9624 3.25885C39.7441 3.47812 39.6187 3.77933 39.6187 4.0874C39.6187 4.39685 39.7441 4.69806 39.9624 4.91733C40.1803 5.13522 40.4811 5.26065 40.7905 5.26065Z" fill="#171D24"/>
<path d="M19.2607 56.4176C18.9527 56.4176 18.6501 56.543 18.4322 56.7609C18.2143 56.9788 18.0889 57.2814 18.0889 57.5895C18.0889 57.8989 18.2143 58.2001 18.4322 58.418C18.6501 58.6359 18.9527 58.7614 19.2607 58.7614C19.5688 58.7614 19.8714 58.6359 20.0893 58.418C20.3072 58.2001 20.4326 57.8976 20.4326 57.5895C20.4326 57.2814 20.3072 56.9788 20.0893 56.7609C19.8714 56.543 19.5688 56.4176 19.2607 56.4176Z" fill="#171D24"/>
</g>
<defs>
<clipPath id="clip0">
<rect width="60" height="60" fill="white" transform="translate(0 0.828613)"/>
</clipPath>
</defs>
</svg>
