<svg width="60" height="61" viewBox="0 0 60 61" fill="none" xmlns="http://www.w3.org/2000/svg">
<g clip-path="url(#clip0)">
<path d="M18.918 24.0993L14.828 29.6778C13.2761 31.7945 13.701 34.7636 15.7844 36.3601L19.2063 38.9822C20.4093 39.9042 22.1473 39.0463 22.1473 37.5306V30.4929L23.3402 24.1154L18.918 24.0993Z" fill="#FF7A7A"/>
<path d="M37.8776 30.4931V37.5307C37.8776 39.0464 39.6156 39.9043 40.8186 38.9823L44.2404 36.3602C46.3237 34.7637 46.7487 31.7947 45.1967 29.6779L41.1068 24.0994H35.9729L37.8776 30.4931Z" fill="#FF7A7A"/>
<path d="M59.1211 50.3557C59.1211 53.6909 57.4078 56.6241 54.8133 58.3256C53.3156 59.3077 51.5238 59.8796 49.5973 59.8796H10.4027C5.14219 59.8796 0.878906 55.6163 0.878906 50.3557C0.878906 45.0964 5.14219 40.8331 10.4027 40.8331C13.9898 40.8331 17.1117 42.8171 18.7359 45.7467C19.0465 45.2616 19.4742 44.8573 19.9781 44.5749C20.482 44.2913 21.0633 44.1307 21.6832 44.1307C22.5855 44.1307 23.407 44.4729 24.027 45.0331V41.7823C24.027 39.9694 25.4074 38.4776 27.1746 38.303V28.5507H32.8254V38.303C34.5926 38.4776 35.973 39.9694 35.973 41.7823V45.0331C36.2836 44.753 36.6434 44.528 37.0395 44.3721C37.4344 44.2163 37.8656 44.1307 38.3168 44.1307C39.5543 44.1307 40.6406 44.7741 41.2629 45.7444C41.2629 45.7456 41.2641 45.7456 41.2641 45.7467C42.8883 42.8171 46.0102 40.8331 49.5973 40.8331C51.4922 40.8331 53.257 41.3862 54.7406 42.3389C54.7453 42.3424 54.75 42.346 54.7547 42.3483C57.382 44.044 59.1211 46.996 59.1211 50.3557Z" fill="#F9F6F9"/>
<path d="M30.0737 28.5507V38.303C28.3065 38.4776 26.9261 39.9694 26.9261 41.7823V51.0379C26.9261 51.8385 26.2771 52.4875 25.4765 52.4875C24.6758 52.4875 24.0269 51.8385 24.0269 51.0379V41.7823C24.0269 39.9694 25.4073 38.4776 27.1745 38.303V28.5507H30.0737Z" fill="#DDDAEC"/>
<path d="M20.8336 59.88H10.4027C5.14336 59.88 0.878906 55.6168 0.878906 50.3562C0.878906 45.0968 5.14336 40.8336 10.4027 40.8336C12.3281 40.8336 14.1199 41.4054 15.6176 42.3886C13.023 44.089 11.3098 47.0222 11.3098 50.3562C11.3098 55.6168 15.5742 59.88 20.8336 59.88Z" fill="#DDDAEC"/>
<path d="M52.6254 59.3874C51.6739 59.7073 50.6567 59.8796 49.5973 59.8796C44.3379 59.8796 40.0735 55.6163 40.0735 50.3557C40.0735 48.6835 40.5047 47.112 41.2618 45.7467C41.2618 45.7456 41.2629 45.7456 41.2629 45.7444C41.2629 45.7456 41.2641 45.7456 41.2641 45.7467C42.8883 42.8171 46.0102 40.8331 49.5973 40.8331C50.6567 40.8331 51.6751 41.0053 52.6254 41.3253C50.3543 42.087 48.4665 43.6819 47.3215 45.7467C47.3215 45.7456 47.3204 45.7456 47.3204 45.7444C47.3204 45.7456 47.3192 45.7456 47.3192 45.7467C46.5622 47.112 46.1309 48.6835 46.1309 50.3557C46.1309 54.5569 48.8508 58.1217 52.6254 59.3874Z" fill="#DDDAEC"/>
<path d="M27.5833 3.17456L19.1067 17.7412C17.9715 19.692 17.9005 22.0846 18.918 24.0993L22.1474 30.4931H37.8774L41.1068 24.0993C42.1243 22.0846 42.0533 19.692 40.9181 17.7412L32.4415 3.17456C31.3576 1.31209 28.6671 1.31209 27.5833 3.17456Z" fill="#15C39A"/>
<path d="M30.0121 1.77795C29.6242 1.77795 29.2364 2.24319 29.0137 3.17483L25.5274 17.7412C25.061 19.6924 25.0317 22.0842 25.45 24.0998L26.7778 30.4924H22.1477L18.918 24.0998C17.9008 22.0842 17.9711 19.6924 19.1067 17.7412L27.5828 3.17483C28.1254 2.24319 29.0688 1.77795 30.0121 1.77795Z" fill="#078669"/>
<path d="M30.0125 24.1148C33.2572 24.1148 35.8876 21.4844 35.8876 18.2397C35.8876 14.995 33.2572 12.3646 30.0125 12.3646C26.7678 12.3646 24.1375 14.995 24.1375 18.2397C24.1375 21.4844 26.7678 24.1148 30.0125 24.1148Z" fill="#F9F6F9"/>
<path d="M31.723 23.8624C31.1816 24.0276 30.6074 24.1155 30.0132 24.1155C26.7683 24.1155 24.1375 21.4846 24.1375 18.2397C24.1375 14.9948 26.7683 12.3651 30.0132 12.3651C30.6074 12.3651 31.1816 12.453 31.723 12.6182C29.3125 13.3495 27.557 15.5889 27.557 18.2397C27.557 20.8905 29.3125 23.1311 31.723 23.8624Z" fill="#DDDAEC"/>
<path d="M15.2497 37.0578L18.6715 39.6799C19.1562 40.0513 19.7327 40.2412 20.315 40.2412C20.7227 40.2412 21.1333 40.1481 21.5168 39.9588C22.4477 39.4993 23.026 38.569 23.026 37.5308V31.3715H36.9983V37.5308C36.9983 38.569 37.5766 39.4993 38.5076 39.9588C38.891 40.1481 39.3015 40.2412 39.7093 40.2412C40.2915 40.2412 40.8682 40.0513 41.3529 39.6799L44.7746 37.0578C45.9658 36.1451 46.7389 34.8241 46.9515 33.3386C47.1641 31.8531 46.7925 30.3684 45.9051 29.1582L42.1203 23.9959C43.0282 21.8226 42.8743 19.3576 41.6777 17.2993L37.8199 10.67C37.5758 10.2505 37.0377 10.1083 36.6182 10.3524C36.1986 10.5965 36.0565 11.1347 36.3006 11.5542L40.1581 18.1831C41.1471 19.8841 41.2084 21.9475 40.3221 23.7025L37.3363 29.6136H22.6878L19.702 23.7025C18.8157 21.9474 18.877 19.8841 19.8657 18.1834L28.3432 3.61684C28.6931 3.01543 29.317 2.65637 30.0122 2.65637C30.7073 2.65637 31.3312 3.01543 31.6813 3.61696L34.5489 8.54469C34.793 8.96422 35.3311 9.10626 35.7506 8.86227C36.1701 8.61817 36.3123 8.08016 36.0682 7.66051L33.2007 2.7329C32.5324 1.58422 31.3405 0.89856 30.0123 0.89856C28.6841 0.89856 27.4921 1.58434 26.8239 2.7329L18.3463 17.2997C17.1498 19.3577 16.9959 21.8227 17.9039 23.996L14.1192 29.1582C13.2319 30.3685 12.8603 31.8532 13.0728 33.3386C13.2855 34.8241 14.0586 36.1451 15.2497 37.0578ZM41.2451 25.7747L44.4878 30.1975C45.7472 31.9154 45.3963 34.367 43.7055 35.6626L40.2838 38.2847C39.9903 38.5095 39.6172 38.5461 39.2857 38.3825C38.9542 38.2189 38.7562 37.9004 38.7562 37.5307V30.7017L41.2451 25.7747ZM15.5368 30.1975L18.7794 25.7748L21.2683 30.702V37.5308C21.2683 37.9005 21.0704 38.2189 20.7389 38.3826C20.4075 38.5462 20.0341 38.5097 19.7408 38.2848L16.3191 35.6627C14.6283 34.367 14.2773 31.9153 15.5368 30.1975Z" fill="#171D24"/>
<path d="M30.0123 11.4858C26.2882 11.4858 23.2583 14.5155 23.2583 18.2398C23.2583 21.964 26.2881 24.9937 30.0123 24.9937C33.7365 24.9937 36.7663 21.964 36.7663 18.2398C36.7663 14.5155 33.7365 11.4858 30.0123 11.4858ZM30.0123 23.2359C27.2574 23.2359 25.0161 20.9947 25.0161 18.2398C25.0161 15.4848 27.2573 13.2436 30.0123 13.2436C32.7673 13.2436 35.0085 15.4848 35.0085 18.2398C35.0085 20.9947 32.7673 23.2359 30.0123 23.2359Z" fill="#171D24"/>
<path d="M49.5973 39.9544C46.2275 39.9544 43.0895 41.5894 41.1482 44.2902C40.3688 43.6265 39.3729 43.252 38.3168 43.252C37.8128 43.252 37.3206 43.3369 36.852 43.504V41.7825C36.852 39.797 35.5448 38.1111 33.7043 37.5803V33.8712C33.7043 33.3858 33.3108 32.9922 32.8254 32.9922C32.34 32.9922 31.9465 33.3858 31.9465 33.8712V38.3032C31.9465 38.7551 32.2893 39.1333 32.739 39.1779C34.0818 39.3105 35.0943 40.4304 35.0943 41.7826L35.094 48.9194C35.094 49.4048 35.4875 49.7983 35.9729 49.7983C36.4583 49.7983 36.8518 49.4048 36.8518 48.9194V45.4618C37.0116 45.3535 37.1813 45.2611 37.3621 45.1899C37.6649 45.0704 37.9862 45.0098 38.3169 45.0098C39.0509 45.0098 39.7362 45.313 40.2267 45.8382C39.5511 47.2399 39.1955 48.7898 39.1955 50.3564C39.1955 50.8418 39.589 51.2353 40.0744 51.2353C40.5598 51.2353 40.9533 50.8418 40.9533 50.3564C40.9533 48.8987 41.3228 47.4589 42.0213 46.191C42.025 46.1849 42.0294 46.1794 42.0328 46.173C43.5582 43.4215 46.4568 41.7122 49.5973 41.7122C54.3641 41.7122 58.2422 45.5897 58.2422 50.3559C58.2422 55.1228 54.3641 59.0008 49.5973 59.0008H10.4027C5.6359 59.0008 1.75781 55.1228 1.75781 50.3559C1.75781 48.7249 2.21438 47.137 3.07828 45.7638C3.3368 45.3529 3.21328 44.8104 2.80242 44.5519C2.39156 44.2932 1.84887 44.4169 1.59047 44.8277C0.549961 46.4816 0 48.3931 0 50.3558C0 56.0919 4.66664 60.7585 10.4027 60.7585H49.5973C55.3334 60.7585 60 56.0919 60 50.3558C60 44.6204 55.3334 39.9544 49.5973 39.9544Z" fill="#171D24"/>
<path d="M5.22265 43.4338C6.72558 42.3075 8.51679 41.7122 10.4027 41.7122C13.5432 41.7122 16.4417 43.4215 17.9671 46.173C17.9682 46.175 17.9697 46.1767 17.9708 46.1786C18.6737 47.4494 19.0454 48.8939 19.0454 50.3561C19.0454 50.8415 19.4389 51.2351 19.9243 51.2351C20.4097 51.2351 20.8032 50.8415 20.8032 50.3561C20.8032 48.7902 20.4478 47.2408 19.7726 45.8396C19.9574 45.6424 20.1723 45.4734 20.4091 45.3408C20.7941 45.1241 21.2346 45.0096 21.6832 45.0096C22.2096 45.0096 22.7174 45.1697 23.1482 45.4616V48.9191C23.1482 49.4045 23.5417 49.798 24.0271 49.798C24.5125 49.798 24.906 49.4045 24.906 48.9191L24.9058 41.7822C24.9058 40.43 25.9183 39.3102 27.261 39.1775C27.7107 39.1331 28.0535 38.7548 28.0535 38.3028V33.8708C28.0535 33.3854 27.6599 32.9919 27.1746 32.9919C26.6892 32.9919 26.2957 33.3854 26.2957 33.8708V37.5799C24.4551 38.1108 23.148 39.7966 23.148 41.7821V43.5036C22.6819 43.338 22.1873 43.2515 21.6832 43.2515C20.9333 43.2515 20.1946 43.4442 19.5483 43.8079C19.3014 43.9463 19.0685 44.1088 18.8531 44.2917C16.9119 41.5895 13.7732 39.9539 10.4027 39.9539C8.13382 39.9539 5.97804 40.6707 4.16854 42.0267C3.78007 42.3178 3.7012 42.8687 3.99229 43.257C4.28339 43.646 4.83429 43.7249 5.22265 43.4338Z" fill="#171D24"/>
<path d="M29.1333 41.3367V52.4875C29.1333 52.9729 29.5268 53.3664 30.0122 53.3664C30.4976 53.3664 30.8911 52.9729 30.8911 52.4875V41.3367C30.8911 40.8513 30.4976 40.4578 30.0122 40.4578C29.5268 40.4578 29.1333 40.8513 29.1333 41.3367Z" fill="#171D24"/>
</g>
<defs>
<clipPath id="clip0">
<rect width="60" height="60" fill="white" transform="translate(0 0.828613)"/>
</clipPath>
</defs>
</svg>
