<svg width="15" height="16" viewBox="0 0 15 16" fill="none" xmlns="http://www.w3.org/2000/svg">
<circle cx="7.5" cy="8.20203" r="7" stroke="#848D95"/>
<g clip-path="url(#clip0)">
<path d="M9.11909 6.14134C9.04697 7.11408 8.30955 7.90761 7.50001 7.90761C6.69046 7.90761 5.95176 7.11426 5.88092 6.14134C5.80733 5.12941 6.52488 4.37506 7.50001 4.37506C8.47514 4.37506 9.19269 5.14781 9.11909 6.14134Z" stroke="#848D95" stroke-linecap="round" stroke-linejoin="round"/>
<path d="M7.50012 9.08514C5.89944 9.08514 4.27483 9.96828 3.9742 11.6352C3.93795 11.8361 4.05166 12.0289 4.26195 12.0289H10.7383C10.9488 12.0289 11.0625 11.8361 11.0262 11.6352C10.7254 9.96828 9.10081 9.08514 7.50012 9.08514Z" stroke="#848D95" stroke-miterlimit="10"/>
</g>
<defs>
<clipPath id="clip0">
<rect width="9.42013" height="9.42014" fill="white" transform="translate(2.79004 3.49194)"/>
</clipPath>
</defs>
</svg>
