<svg width="40" height="40" viewBox="0 0 40 40" fill="none" xmlns="http://www.w3.org/2000/svg">
<path fill-rule="evenodd" clip-rule="evenodd" d="M17.1 6.60001C8.10005 6.60001 0.800049 13.9 0.800049 22.9C0.800049 26.1 1.70005 29 3.30005 31.5V30.1C3.30005 28 4.90005 26.2 6.90005 25.9C6.10005 25.2 5.60005 24.1 5.60005 23C5.60005 20.8 7.30005 19.1 9.50005 19.1C10.6 19.1 11.5 19.5 12.2 20.2C12.4 17.7 14.5 15.7 17 15.7C19.5 15.7 21.7 17.7 21.8 20.2C22.5 19.5 23.5 19.1 24.5 19.1C26.7001 19.1 28.4 20.8 28.4 23C28.4 24.2 27.9 25.2 27.1 25.9C29.2001 26.2 30.7001 28 30.7001 30.1V31.5C32.3001 29 33.2001 26 33.2001 22.8C33.2001 20.7 32.8 18.6 32.1 16.8C31.7 16.9 31.3 16.9 31 16.9C26.5 16.9 22.9 13.3 22.9 8.80001C22.9 8.40001 22.9 8.00001 23 7.70001C21.2001 7.00001 19.2001 6.60001 17.1 6.60001Z" fill="#CCF5FC"/>
<path fill-rule="evenodd" clip-rule="evenodd" d="M31.1 0.800003C27 0.800003 23.6 3.8 23.1 7.8C23.1 8.1 23 8.5 23 8.9C23 13.4 26.6 17 31.1 17C31.5 17 31.9 17 32.2 16.9C36.1 16.3 39.2 13 39.2 8.9C39.2 4.4 35.6 0.800003 31.1 0.800003Z" fill="#FFCD69"/>
<path fill-rule="evenodd" clip-rule="evenodd" d="M32 16.9C31.7 16.9 31.4 17 31.1 17C26.6 17 23 13.4 23 8.9C23 8.5 23 8.1 23.1 7.8C23.7 3.9 27 0.800003 31.1 0.800003C31.4 0.800003 31.7 0.800003 32 0.900003C28.3 1.3 25.4 4.2 24.9 7.8C24.8 8.2 24.8 8.6 24.8 8.9C24.9 13 28 16.5 32 16.9Z" fill="#E5B561"/>
<path fill-rule="evenodd" clip-rule="evenodd" d="M17.1 15.8C14.5 15.8 12.4 17.8 12.3 20.3C12.3 20.4 12.3 20.5 12.3 20.7C12.3 22.1 12.9 23.4 13.9 24.3C14.8 25.1 15.9 25.5 17.1 25.5C18.3 25.5 19.5 25 20.3 24.3C21.3 23.4 21.9 22.1 21.9 20.7C21.9 20.6 21.9 20.5 21.9 20.3C21.8 17.7 19.7 15.8 17.1 15.8Z" fill="#FFDCD5"/>
<path fill-rule="evenodd" clip-rule="evenodd" d="M13.9 24.3C12.2 24.6 10.8 25.6 10 27C9.60005 27.8 9.30005 28.6 9.30005 29.6V37.3C11.6 38.6 14.2 39.3 17.1 39.3C19.9 39.3 22.5 38.6 24.9 37.3V29.6C24.9 28.7 24.7 27.8 24.2 27C23.4 25.6 22 24.6 20.3 24.3C19.4 25.1 18.3 25.5 17.1 25.5C15.8 25.5 14.7 25 13.9 24.3Z" fill="#15C39A"/>
<path fill-rule="evenodd" clip-rule="evenodd" d="M15.8 39.2C13.5 39 11.3 38.3 9.30005 37.3V29.6C9.30005 28.7 9.50005 27.8 10 27C10.8 25.6 12.2 24.6 13.9 24.3C14.2 24.5 14.5 24.7 14.8 24.9C13.7 25.4 12.7 26.2 12.1 27.3C11.7 28.1 11.4 28.9 11.4 29.9V37.6C12.7 38.3 14.2 38.8 15.8 39.2Z" fill="#078669"/>
<path fill-rule="evenodd" clip-rule="evenodd" d="M24.6999 19.2C23.5999 19.2 22.6999 19.6 21.9999 20.3C21.9999 20.4 21.9999 20.5 21.9999 20.7C21.9999 22.1 21.3999 23.4 20.3999 24.3C22.0999 24.6 23.4999 25.6 24.2999 27C24.4999 27 24.5999 27 24.7999 27C25.7999 27 26.6999 26.6 27.3999 26C28.1999 25.3 28.6999 24.2 28.6999 23.1C28.5999 20.9 26.7999 19.2 24.6999 19.2Z" fill="#FFDCD5"/>
<path fill-rule="evenodd" clip-rule="evenodd" d="M27.2999 26C26.5999 26.6 25.7 27 24.7 27C24.5 27 24.4 27 24.2 27C24.6 27.8 24.9 28.6 24.9 29.6V37.3C27.4 36 29.4999 34 30.9 31.6V30.2C30.9 28.1 29.2999 26.3 27.2999 26Z" fill="#FFCD69"/>
<path fill-rule="evenodd" clip-rule="evenodd" d="M9.50005 27C8.50005 27 7.60005 26.6 6.90005 26C4.80005 26.3 3.30005 28.1 3.30005 30.2V31.6C4.80005 34 6.90005 35.9 9.30005 37.3V29.6C9.30005 28.7 9.50005 27.8 10 27C9.80005 27 9.70005 27 9.50005 27Z" fill="#FFCD69"/>
<path fill-rule="evenodd" clip-rule="evenodd" d="M26 27.5C25.9 27.6 25.7 27.5 25.5 27.5C25.9 28.3 26.2 29.1 26.2 30.1V36.5C25.8 36.8 25.4 37 24.9 37.3V29.6C24.9 28.7 24.7 27.8 24.2 27C24.4 27 24.5 27 24.7 27C25.7 27 26.5999 26.6 27.2999 26C27.8999 26.1 28.5 26.3 29 26.6C28.9 26.6 27.7 26.5 27.6 26.5C26.8 27.1 26.7 27.2 26 27.5Z" fill="#E5B561"/>
<path fill-rule="evenodd" clip-rule="evenodd" d="M9.30005 37V37.2C6.80005 35.9 4.70005 33.9 3.30005 31.5V30.1C3.30005 28 4.90005 26.2 6.90005 25.9C7.20005 26.1 7.50005 26.4 7.80005 26.5C5.90005 27 4.50005 28.7 4.50005 30.7V32.1C5.80005 34.1 7.40005 35.7 9.30005 37Z" fill="#E5B561"/>
<path fill-rule="evenodd" clip-rule="evenodd" d="M9.5001 19.2C7.3001 19.2 5.6001 20.9 5.6001 23.1C5.6001 24.3 6.1001 25.3 6.9001 26C7.6001 26.6 8.5001 27 9.5001 27C9.7001 27 9.8001 27 10.0001 27C10.8001 25.6 12.2001 24.6 13.9001 24.3C12.9001 23.4 12.3001 22.1 12.3001 20.7C12.3001 20.6 12.3001 20.5 12.3001 20.3C11.5001 19.6 10.6001 19.2 9.5001 19.2Z" fill="#FFDCD5"/>
<path d="M5.6 12.2C5.8 12.2 6 12.1 6.2 12C6.5 11.7 6.5 11.2 6.2 10.9C5.9 10.6 5.4 10.6 5.1 10.9C4.8 11.2 4.8 11.7 5.1 12C5.2 12.1 5.4 12.2 5.6 12.2Z" fill="black"/>
<path d="M40 8.9C40 4 36 0 31.1 0C27 0 23.5 2.9 22.5 6.7C20.8 6.1 18.9 5.8 17.1 5.8C13.7 5.8 10.4 6.8 7.6 8.7C7.2 8.9 7.1 9.4 7.4 9.8C7.5 10 7.8 10.1 8 10.1C8.1 10.1 8.3 10.1 8.4 10C11 8.3 14 7.4 17.1 7.4C18.9 7.4 20.6 7.7 22.3 8.3C22.3 8.5 22.3 8.7 22.3 8.9C22.3 13.8 26.3 17.8 31.2 17.8C31.4 17.8 31.6 17.8 31.8 17.8C32.4 19.5 32.7 21.2 32.7 23C32.7 25.1 32.3 27 31.6 28.9C31.2 27.5 30.1 26.3 28.8 25.7C29.3 25 29.5 24.1 29.5 23.2C29.5 20.6 27.4 18.5 24.8 18.5C24 18.5 23.3 18.7 22.6 19C21.9 16.7 19.7 15.1 17.2 15.1C14.7 15.1 12.5 16.8 11.8 19C11.1 18.6 10.4 18.5 9.6 18.5C7 18.5 4.9 20.6 4.9 23.2C4.9 24.1 5.2 25 5.6 25.7C4.2 26.3 3.2 27.5 2.8 28.9C2 27 1.6 25 1.6 22.9C1.6 19.8 2.5 16.9 4.2 14.3C4.4 13.9 4.3 13.5 4 13.2C3.6 13 3.2 13.1 2.9 13.4C1 16.3 0 19.5 0 22.9C0 27.5 1.8 31.8 5 35C8.2 38.2 12.5 40 17.1 40C21.7 40 26 38.2 29.2 35C32.4 31.8 34.2 27.5 34.2 22.9C34.2 21 33.9 19.2 33.3 17.5C37.1 16.5 40 13 40 8.9ZM17.1 16.5C19.4 16.5 21.2 18.3 21.2 20.6C21.2 22.9 19.4 24.7 17.1 24.7C14.8 24.7 13 22.9 13 20.6C13 18.4 14.8 16.5 17.1 16.5ZM8.5 29.5V35.8C6.7 34.6 5.2 33.1 4 31.3V30.2C4 28.6 5.1 27.2 6.7 26.8C7.3 27.3 8 27.6 8.8 27.7C8.6 28.3 8.5 28.9 8.5 29.5ZM9.5 26.2C7.8 26.2 6.4 24.8 6.4 23.1C6.4 21.4 7.8 20 9.5 20C10.2 20 10.9 20.2 11.4 20.7C11.4 21.9 11.8 23 12.4 23.9C11.2 24.3 10.2 25.1 9.5 26.2ZM24.1 36.8C22 37.9 19.6 38.5 17.1 38.5C14.6 38.5 12.2 37.9 10.1 36.8V29.6C10.1 27.5 11.6 25.6 13.6 25.2C14.6 25.9 15.8 26.4 17 26.4C18.2 26.4 19.5 26 20.4 25.2C22.4 25.7 23.9 27.5 23.9 29.6V36.8H24.1ZM24.6 26.2C23.9 25.1 22.9 24.3 21.7 23.8C22.3 22.9 22.7 21.8 22.7 20.6C23.2 20.2 23.9 19.9 24.6 19.9C26.3 19.9 27.7 21.3 27.7 23C27.8 24.8 26.4 26.2 24.6 26.2C24.7 26.2 24.7 26.2 24.6 26.2ZM30.1 31.3C28.9 33.1 27.4 34.6 25.6 35.8V29.5C25.6 28.9 25.5 28.3 25.3 27.7C26.1 27.6 26.8 27.3 27.4 26.8C28.9 27.2 30.1 28.6 30.1 30.2V31.3ZM31.1 16.2C27.1 16.2 23.8 12.9 23.8 8.9C23.8 4.9 27.1 1.6 31.1 1.6C35.1 1.6 38.4 4.9 38.4 8.9C38.4 12.9 35.2 16.2 31.1 16.2Z" fill="black"/>
<path d="M34.6 8.1H31.9V5.3C31.9 4.9 31.6 4.5 31.1 4.5C30.7 4.5 30.3 4.8 30.3 5.3V8H27.6C27.2 8 26.8 8.3 26.8 8.8C26.8 9.2 27.1 9.6 27.6 9.6H30.3V12.3C30.3 12.7 30.6 13.1 31.1 13.1C31.5001 13.1 31.9 12.8 31.9 12.3V9.7H34.6C35 9.7 35.4001 9.4 35.4001 8.9C35.4001 8.4 35.1 8.1 34.6 8.1Z" fill="black"/>
</svg>
