<svg width="16" height="16" viewBox="0 0 16 16" fill="none" xmlns="http://www.w3.org/2000/svg">
<g clip-path="url(#clip0)">
<path d="M13.1636 3.19116H3.78857C3.01192 3.19116 2.38232 3.82076 2.38232 4.59741V13.0349C2.38232 13.8116 3.01192 14.4412 3.78857 14.4412H13.1636C13.9402 14.4412 14.5698 13.8116 14.5698 13.0349V4.59741C14.5698 3.82076 13.9402 3.19116 13.1636 3.19116Z" stroke="#7D848D" stroke-linejoin="round"/>
<path d="M9.64795 8.34741C10.0363 8.34741 10.3511 8.03261 10.3511 7.64429C10.3511 7.25596 10.0363 6.94116 9.64795 6.94116C9.25962 6.94116 8.94482 7.25596 8.94482 7.64429C8.94482 8.03261 9.25962 8.34741 9.64795 8.34741Z" fill="#7D848D"/>
<path d="M11.9917 8.34741C12.38 8.34741 12.6948 8.03261 12.6948 7.64429C12.6948 7.25596 12.38 6.94116 11.9917 6.94116C11.6034 6.94116 11.2886 7.25596 11.2886 7.64429C11.2886 8.03261 11.6034 8.34741 11.9917 8.34741Z" fill="#7D848D"/>
<path d="M9.64795 10.6912C10.0363 10.6912 10.3511 10.3764 10.3511 9.98804C10.3511 9.59971 10.0363 9.28491 9.64795 9.28491C9.25962 9.28491 8.94482 9.59971 8.94482 9.98804C8.94482 10.3764 9.25962 10.6912 9.64795 10.6912Z" fill="#7D848D"/>
<path d="M11.9917 10.6912C12.38 10.6912 12.6948 10.3764 12.6948 9.98804C12.6948 9.59971 12.38 9.28491 11.9917 9.28491C11.6034 9.28491 11.2886 9.59971 11.2886 9.98804C11.2886 10.3764 11.6034 10.6912 11.9917 10.6912Z" fill="#7D848D"/>
<path d="M4.96045 10.6912C5.34877 10.6912 5.66357 10.3764 5.66357 9.98804C5.66357 9.59971 5.34877 9.28491 4.96045 9.28491C4.57212 9.28491 4.25732 9.59971 4.25732 9.98804C4.25732 10.3764 4.57212 10.6912 4.96045 10.6912Z" fill="#7D848D"/>
<path d="M7.3042 10.6912C7.69252 10.6912 8.00732 10.3764 8.00732 9.98804C8.00732 9.59971 7.69252 9.28491 7.3042 9.28491C6.91587 9.28491 6.60107 9.59971 6.60107 9.98804C6.60107 10.3764 6.91587 10.6912 7.3042 10.6912Z" fill="#7D848D"/>
<path d="M4.96045 13.0349C5.34877 13.0349 5.66357 12.7201 5.66357 12.3318C5.66357 11.9435 5.34877 11.6287 4.96045 11.6287C4.57212 11.6287 4.25732 11.9435 4.25732 12.3318C4.25732 12.7201 4.57212 13.0349 4.96045 13.0349Z" fill="#7D848D"/>
<path d="M7.3042 13.0349C7.69252 13.0349 8.00732 12.7201 8.00732 12.3318C8.00732 11.9435 7.69252 11.6287 7.3042 11.6287C6.91587 11.6287 6.60107 11.9435 6.60107 12.3318C6.60107 12.7201 6.91587 13.0349 7.3042 13.0349Z" fill="#7D848D"/>
<path d="M9.64795 13.0349C10.0363 13.0349 10.3511 12.7201 10.3511 12.3318C10.3511 11.9435 10.0363 11.6287 9.64795 11.6287C9.25962 11.6287 8.94482 11.9435 8.94482 12.3318C8.94482 12.7201 9.25962 13.0349 9.64795 13.0349Z" fill="#7D848D"/>
<path d="M12.2261 2.25366V3.19116M4.72607 2.25366V3.19116V2.25366Z" stroke="#7D848D" stroke-linecap="round" stroke-linejoin="round"/>
<path d="M14.5698 5.53491H2.38232" stroke="#7D848D" stroke-linejoin="round"/>
</g>
<defs>
<clipPath id="clip0">
<rect width="15" height="15" fill="white" transform="translate(0.976074 0.847412)"/>
</clipPath>
</defs>
</svg>
