<svg width="40" height="41" viewBox="0 0 40 41" fill="none" xmlns="http://www.w3.org/2000/svg">
<g clip-path="url(#clip0)">
<path d="M27.55 38.0128H12.6067L15.0558 35.6183V29.6257H25.1415L25.1009 35.6183L27.55 38.0128Z" fill="#C7C0C7"/>
<path d="M25.1415 29.6257H16.794H15.0558V35.6183L12.6067 38.0128H15.104L16.9105 36.2467C17.1506 36.012 17.2859 35.6905 17.2859 35.3548V34.4789C17.2859 34.1606 17.5439 33.9025 17.8623 33.9025H25.1126L25.1415 29.6257Z" fill="#B8AFB8"/>
<path d="M36.4053 3.15359H3.59502C1.93386 3.15359 0.586182 4.5005 0.586182 6.16243V28.2694L4.6587 30.1402H37.085L39.4142 28.2694V6.16243C39.4142 4.5005 38.0665 3.15359 36.4053 3.15359Z" fill="#F3FBFF"/>
<path d="M7.51174 29.853C5.85059 29.853 4.50291 28.5061 4.50291 26.8441V3.67633C4.50291 3.49794 4.51932 3.32346 4.5491 3.15359H3.59502C1.93386 3.15359 0.586182 4.5005 0.586182 6.16243V28.2694L4.6587 30.1402H37.085L37.4427 29.853H7.51174Z" fill="#E3F6FC"/>
<path d="M39.4142 28.2694V29.3302C39.4142 30.9922 38.0665 32.3391 36.4053 32.3391H3.59502C1.93386 32.3391 0.586182 30.9922 0.586182 29.3302V28.2694H39.4142Z" fill="#D6D1D6"/>
<path d="M7.51174 29.853C6.36613 29.853 5.36975 29.2122 4.86156 28.2694H0.586182V29.3302C0.586182 30.9922 1.93386 32.3391 3.59502 32.3391H36.4053C37.8882 32.3391 39.1203 31.2655 39.368 29.853H7.51174Z" fill="#C7C0C7"/>
<path d="M14.2105 24.2671C13.9104 24.2671 13.6103 24.1527 13.3814 23.9236L7.37909 17.9213C6.92116 17.4634 6.92116 16.721 7.37909 16.263L13.3814 10.2607C13.8393 9.80275 14.5818 9.80275 15.0397 10.2607C15.4976 10.7186 15.4976 11.461 15.0397 11.9189L9.86644 17.0922L15.0397 22.2654C15.4976 22.7234 15.4976 23.4658 15.0397 23.9237C14.8107 24.1527 14.5106 24.2671 14.2105 24.2671Z" fill="#15C39A"/>
<path d="M25.8508 24.2671C25.5507 24.2671 25.2506 24.1527 25.0217 23.9236C24.5637 23.4657 24.5637 22.7233 25.0217 22.2654L30.1949 17.0921L25.0217 11.9188C24.5637 11.4609 24.5637 10.7185 25.0217 10.2606C25.4795 9.80265 26.222 9.80265 26.6799 10.2606L32.6823 16.2629C33.1402 16.7209 33.1402 17.4633 32.6823 17.9212L26.6799 23.9235C26.451 24.1527 26.1509 24.2671 25.8508 24.2671Z" fill="#15C39A"/>
<path d="M18.6794 23.9658C18.597 23.9658 18.5133 23.9571 18.4296 23.9389C17.7967 23.8016 17.395 23.1772 17.5323 22.5444L20.1764 10.3586C20.3138 9.72574 20.9381 9.32393 21.571 9.46136C22.2039 9.59863 22.6056 10.2231 22.4683 10.8559L19.8243 23.0415C19.705 23.5907 19.2192 23.9658 18.6794 23.9658Z" fill="#078669"/>
<path d="M36.4049 2.56721H3.59512C1.61276 2.56721 0 4.18006 0 6.16242V29.3303C0 31.3127 1.61276 32.9254 3.59512 32.9254H14.4696V35.3719L12.3677 37.4262H11.4705C11.1467 37.4262 10.8843 37.6887 10.8843 38.0125C10.8843 38.3363 11.1467 38.5988 11.4705 38.5988H28.5809C28.9048 38.5988 29.1672 38.3363 29.1672 38.0125C29.1672 37.6887 28.9048 37.4262 28.5809 37.4262H27.7889L25.6869 35.3719V32.9254H36.405C38.3873 32.9254 40.0001 31.3127 40.0001 29.3303V6.16242C40 4.18006 38.3872 2.56721 36.4049 2.56721ZM3.59512 3.73979H36.4049C37.7407 3.73979 38.8274 4.82654 38.8274 6.16234V27.6827H1.17258V6.16242C1.17258 4.82662 2.25932 3.73979 3.59512 3.73979ZM36.4049 31.7528H19.1887C18.8648 31.7528 18.6024 32.0153 18.6024 32.3391C18.6024 32.6628 18.8648 32.9253 19.1887 32.9253H24.5142V35.6186C24.5142 35.7764 24.5779 35.9276 24.6907 36.0379L26.1112 37.4262H14.0452L15.4657 36.0379C15.5785 35.9276 15.6422 35.7764 15.6422 35.6186V32.9253H16.6902C17.014 32.9253 17.2765 32.6628 17.2765 32.3391C17.2765 32.0153 17.014 31.7528 16.6902 31.7528H3.59512C2.25932 31.7528 1.17258 30.666 1.17258 29.3302V28.8553H38.8274V29.3302C38.8274 30.666 37.7407 31.7528 36.4049 31.7528Z" fill="black"/>
<path d="M20.0392 29.4233C19.7153 29.4233 19.4529 29.6858 19.4529 30.0096V30.2707C19.4529 30.5945 19.7153 30.857 20.0392 30.857C20.363 30.857 20.6255 30.5945 20.6255 30.2707V30.0096C20.6255 29.6858 20.363 29.4233 20.0392 29.4233Z" fill="black"/>
<path d="M12.9667 24.3382C13.2989 24.6704 13.7405 24.8534 14.2104 24.8534C14.6803 24.8534 15.122 24.6704 15.4541 24.3383C15.7863 24.006 15.9693 23.5644 15.9693 23.0945C15.9693 22.6247 15.7863 22.1831 15.4542 21.8508L10.6954 17.0921L15.4541 12.3335C15.7863 12.0013 15.9693 11.5596 15.9693 11.0898C15.9693 10.62 15.7863 10.1783 15.4542 9.84613C15.122 9.5139 14.6803 9.3309 14.2104 9.3309C13.7405 9.3309 13.2989 9.51382 12.9667 9.84606L6.96445 15.8484C6.63222 16.1806 6.44922 16.6223 6.44922 17.0921C6.44922 17.5619 6.63222 18.0036 6.96437 18.3358L12.9667 24.3382ZM7.79354 16.6777L13.7959 10.6752C13.9066 10.5645 14.0539 10.5036 14.2104 10.5036C14.367 10.5036 14.5143 10.5645 14.6251 10.6753C14.7358 10.7861 14.7967 10.9333 14.7967 11.0898C14.7967 11.2464 14.7357 11.3936 14.625 11.5044L9.45172 16.6777C9.22276 16.9066 9.22276 17.2779 9.45172 17.5067L14.6251 22.68C14.7358 22.7908 14.7967 22.938 14.7967 23.0945C14.7967 23.2511 14.7357 23.3983 14.625 23.5092C14.5143 23.6199 14.367 23.6808 14.2104 23.6808C14.0539 23.6808 13.9066 23.6199 13.7959 23.5091L7.79346 17.5067C7.68277 17.3959 7.6218 17.2487 7.6218 17.0921C7.6218 16.9355 7.68277 16.7884 7.79354 16.6777Z" fill="black"/>
<path d="M24.0918 23.0945C24.0918 23.5643 24.2748 24.006 24.6069 24.3382C24.9391 24.6704 25.3808 24.8534 25.8507 24.8534C26.3206 24.8534 26.7622 24.6704 27.0944 24.3382L29.1871 22.2454C29.4161 22.0165 29.4161 21.6452 29.1871 21.4163C28.9581 21.1874 28.5869 21.1874 28.358 21.4163L26.2652 23.5092C26.1545 23.6199 26.0072 23.6808 25.8507 23.6808C25.6941 23.6808 25.5468 23.6198 25.436 23.5091C25.3253 23.3983 25.2644 23.2511 25.2644 23.0945C25.2644 22.9379 25.3253 22.7908 25.4361 22.68L30.6094 17.5067C30.8383 17.2778 30.8383 16.9065 30.6094 16.6776L25.436 11.5044C25.3253 11.3936 25.2644 11.2464 25.2644 11.0898C25.2644 10.9332 25.3253 10.786 25.4361 10.6752C25.5468 10.5644 25.6941 10.5035 25.8507 10.5035C26.0072 10.5035 26.1545 10.5645 26.2652 10.6753L32.2676 16.6777C32.3783 16.7885 32.4393 16.9357 32.4393 17.0923C32.4393 17.2488 32.3783 17.396 32.2676 17.5068L30.1676 19.6068C29.9387 19.8358 29.9387 20.207 30.1676 20.4359C30.3967 20.6649 30.7678 20.6649 30.9968 20.4359L33.0967 18.336C33.4289 18.0037 33.6119 17.5621 33.6119 17.0923C33.6119 16.6224 33.4289 16.1808 33.0967 15.8485L27.0944 9.84618C26.7622 9.51395 26.3206 9.33095 25.8507 9.33095C25.3808 9.33095 24.9391 9.51387 24.607 9.8461C24.2748 10.1783 24.0918 10.62 24.0918 11.0898C24.0918 11.5596 24.2748 12.0013 24.6069 12.3335L29.3657 17.0923L24.607 21.8509C24.2748 22.183 24.0918 22.6247 24.0918 23.0945Z" fill="black"/>
<path d="M18.3045 24.5117C18.4275 24.5384 18.5535 24.552 18.6789 24.552C19.5 24.552 20.2223 23.9691 20.3967 23.1659L23.0408 10.9802C23.1403 10.5211 23.0553 10.0507 22.8011 9.6555C22.5469 9.26042 22.1541 8.988 21.695 8.8884C21.2358 8.78881 20.7654 8.87379 20.3702 9.128C19.9752 9.38222 19.7027 9.77511 19.6031 10.2342L18.9992 13.0175C18.9305 13.334 19.1313 13.6462 19.4477 13.7148C19.7647 13.7834 20.0764 13.5826 20.145 13.2662L20.749 10.4829C20.7822 10.3298 20.873 10.1989 21.0048 10.1141C21.1365 10.0294 21.2931 10.0009 21.4463 10.0342C21.5993 10.0675 21.7303 10.1582 21.815 10.2899C21.8998 10.4217 21.9281 10.5785 21.8949 10.7315L19.2508 22.9171C19.1927 23.1849 18.9522 23.3793 18.679 23.3793C18.6372 23.3793 18.595 23.3748 18.5535 23.3657C18.4005 23.3325 18.2695 23.2418 18.1848 23.11C18.1001 22.9783 18.0717 22.8215 18.1049 22.6685L19.6029 15.7648C19.6716 15.4483 19.4708 15.1361 19.1544 15.0675C18.8375 14.999 18.5257 15.1998 18.4571 15.5161L16.9591 22.4199C16.8595 22.879 16.9445 23.3494 17.1987 23.7446C17.4529 24.1397 17.8457 24.4122 18.3045 24.5117Z" fill="black"/>
</g>
<defs>
<clipPath id="clip0">
<rect width="40" height="40" fill="white" transform="translate(0 0.583008)"/>
</clipPath>
</defs>
</svg>
