<svg width="40" height="41" viewBox="0 0 40 41" fill="none" xmlns="http://www.w3.org/2000/svg">
<g clip-path="url(#clip0)">
<path d="M15.625 23.708H3.125C1.7443 23.708 0.625 22.5887 0.625 21.208V3.70801C0.625 2.3273 1.7443 1.20801 3.125 1.20801H15.625C17.0057 1.20801 18.125 2.3273 18.125 3.70801V21.208C18.125 22.5887 17.0057 23.708 15.625 23.708Z" fill="#15C39A"/>
<path d="M15.625 1.20801H12.5C13.8807 1.20801 15 2.3273 15 3.70801V21.208C15 22.5887 13.8807 23.708 12.5 23.708H15.625C17.0057 23.708 18.125 22.5887 18.125 21.208V3.70801C18.125 2.3273 17.0057 1.20801 15.625 1.20801Z" fill="#078669"/>
<path d="M15.625 39.958H3.125C1.7443 39.958 0.625 38.8387 0.625 37.458V29.958C0.625 28.5773 1.7443 27.458 3.125 27.458H15.625C17.0057 27.458 18.125 28.5773 18.125 29.958V37.458C18.125 38.8387 17.0057 39.958 15.625 39.958Z" fill="#FFCD69"/>
<path d="M15.625 27.458H12.5C13.8807 27.458 15 28.5773 15 29.958V37.458C15 38.8387 13.8807 39.958 12.5 39.958H15.625C17.0057 39.958 18.125 38.8387 18.125 37.458V29.958C18.125 28.5773 17.0057 27.458 15.625 27.458Z" fill="#EFB135"/>
<path d="M36.875 17.458H24.375C22.9943 17.458 21.875 18.5773 21.875 19.958V37.458C21.875 38.8387 22.9943 39.958 24.375 39.958H36.875C38.2557 39.958 39.375 38.8387 39.375 37.458V19.958C39.375 18.5773 38.2557 17.458 36.875 17.458Z" fill="#15C39A"/>
<path d="M36.875 39.958H33.75C35.1307 39.958 36.25 38.8387 36.25 37.458V19.958C36.25 18.5773 35.1307 17.458 33.75 17.458H36.875C38.2557 17.458 39.375 18.5773 39.375 19.958V37.458C39.375 38.8387 38.2557 39.958 36.875 39.958Z" fill="#078669"/>
<path d="M36.875 1.20801H24.375C22.9943 1.20801 21.875 2.3273 21.875 3.70801V11.208C21.875 12.5887 22.9943 13.708 24.375 13.708H36.875C38.2557 13.708 39.375 12.5887 39.375 11.208V3.70801C39.375 2.3273 38.2557 1.20801 36.875 1.20801Z" fill="#FFCD69"/>
<path d="M36.875 13.708H33.75C35.1307 13.708 36.25 12.5887 36.25 11.208V3.70801C36.25 2.3273 35.1307 1.20801 33.75 1.20801H36.875C38.2557 1.20801 39.375 2.3273 39.375 3.70801V11.208C39.375 12.5887 38.2557 13.708 36.875 13.708Z" fill="#EFB135"/>
<path d="M40 37.458V19.958C40 18.2349 38.5981 16.833 36.875 16.833H24.375C22.6519 16.833 21.25 18.2349 21.25 19.958V37.458C21.25 39.1811 22.6519 40.583 24.375 40.583H36.875C38.5981 40.583 40 39.1811 40 37.458ZM38.75 37.458C38.75 38.4918 37.9089 39.333 36.875 39.333H24.375C23.3411 39.333 22.5 38.4918 22.5 37.458V19.958C22.5 18.9242 23.3411 18.083 24.375 18.083H36.875C37.9089 18.083 38.75 18.9242 38.75 19.958V37.458Z" fill="black"/>
<path d="M40 11.208V3.70801C40 1.98488 38.5981 0.583008 36.875 0.583008H24.375C22.6519 0.583008 21.25 1.98488 21.25 3.70801V11.208C21.25 12.9311 22.6519 14.333 24.375 14.333H36.875C38.5981 14.333 40 12.9311 40 11.208ZM38.75 11.208C38.75 12.2418 37.9089 13.083 36.875 13.083H24.375C23.3411 13.083 22.5 12.2418 22.5 11.208V3.70801C22.5 2.67418 23.3411 1.83301 24.375 1.83301H36.875C37.9089 1.83301 38.75 2.67418 38.75 3.70801V11.208Z" fill="black"/>
<path d="M15.625 0.583008H3.125C1.40188 0.583008 0 1.98488 0 3.70801V21.208C0 22.9311 1.40188 24.333 3.125 24.333H15.625C17.3481 24.333 18.75 22.9311 18.75 21.208V3.70801C18.75 1.98488 17.3481 0.583008 15.625 0.583008ZM17.5 21.208C17.5 22.2418 16.6589 23.083 15.625 23.083H3.125C2.09109 23.083 1.25 22.2418 1.25 21.208V3.70801C1.25 2.67418 2.09109 1.83301 3.125 1.83301H15.625C16.6589 1.83301 17.5 2.67418 17.5 3.70801V21.208Z" fill="black"/>
<path d="M15.625 26.833H3.125C1.40188 26.833 0 28.2349 0 29.958V37.458C0 39.1811 1.40188 40.583 3.125 40.583H15.625C17.3481 40.583 18.75 39.1811 18.75 37.458V29.958C18.75 28.2349 17.3481 26.833 15.625 26.833ZM17.5 37.458C17.5 38.4918 16.6589 39.333 15.625 39.333H3.125C2.09109 39.333 1.25 38.4918 1.25 37.458V29.958C1.25 28.9242 2.09109 28.083 3.125 28.083H15.625C16.6589 28.083 17.5 28.9242 17.5 29.958V37.458Z" fill="black"/>
</g>
<defs>
<clipPath id="clip0">
<rect width="40" height="40" fill="white" transform="translate(0 0.583008)"/>
</clipPath>
</defs>
</svg>
