<svg width="40" height="41" viewBox="0 0 40 41" fill="none" xmlns="http://www.w3.org/2000/svg">
<g clip-path="url(#clip0)">
<path d="M6.53055 13.1976H21.9961C25.2792 13.1976 27.9407 15.8591 27.9407 19.1422V26.8615C27.9407 30.1446 25.2792 32.8061 21.9961 32.8061H14.2245L10.5043 37.0571C9.40086 38.3179 7.32398 37.5376 7.32398 35.862V32.8061H6.53055C3.24742 32.8061 0.585938 30.1446 0.585938 26.8615V19.1422C0.585938 15.8591 3.24742 13.1976 6.53055 13.1976Z" fill="#15C39A"/>
<path d="M10.4336 37.1341C9.31406 38.2841 7.32422 37.5021 7.32422 35.8622V32.806H6.53047C3.24766 32.806 0.585938 30.1443 0.585938 26.8615V19.1419C0.585938 15.8591 3.24766 13.1974 6.53047 13.1974H9.12578C5.84219 13.1974 3.18125 15.8591 3.18125 19.1419V26.8615C3.18125 30.1443 5.84219 32.806 9.12578 32.806H9.91953V35.8622C9.91953 36.3849 10.1219 36.8208 10.4336 37.1341Z" fill="#078669"/>
<path d="M33.4696 3.48679H18.0039C14.7208 3.48679 12.0593 6.14827 12.0593 9.4314V17.1506C12.0593 20.4337 14.7208 23.0952 18.0039 23.0952H25.7755L29.4957 27.3462C30.5992 28.6071 32.676 27.8267 32.676 26.1512V23.0952H33.4696C36.7527 23.0952 39.4142 20.4337 39.4142 17.1506V9.4314C39.4142 6.14827 36.7527 3.48679 33.4696 3.48679Z" fill="#F9F6F9"/>
<path d="M20.8289 23.0951H18.0039C14.721 23.0951 12.0593 20.4334 12.0593 17.1506V9.43108C12.0593 6.14826 14.721 3.48655 18.0039 3.48655H20.8289C17.546 3.48655 14.8843 6.14826 14.8843 9.43108V17.1506C14.8843 20.4334 17.546 23.0951 20.8289 23.0951Z" fill="#DDDAEC"/>
<path d="M34.7494 3.0267C34.4312 2.9635 34.1234 3.16983 34.0605 3.48725C33.9974 3.80467 34.2036 4.11311 34.521 4.17615C37.0166 4.67201 38.8281 6.88201 38.8281 9.43108V17.1506C38.8281 20.1054 36.4242 22.5092 33.4695 22.5092H32.6758C32.3521 22.5092 32.0898 22.7715 32.0898 23.0951V26.1514C32.0898 26.7783 31.6785 27.1564 31.2937 27.3011C30.9084 27.4459 30.3496 27.4322 29.9363 26.9601L26.2168 22.7093C26.1055 22.5822 25.9448 22.5092 25.7758 22.5092H18.0039C15.0492 22.5092 12.6453 20.1054 12.6453 17.1506V9.43108C12.6453 6.47631 15.0492 4.07248 18.0039 4.07248H32.2977C32.6213 4.07248 32.8836 3.81014 32.8836 3.48655C32.8836 3.16295 32.6213 2.90061 32.2977 2.90061H18.0039C14.403 2.90061 11.4734 5.83014 11.4734 9.43108V12.6115H6.53047C2.92953 12.6115 0 15.5411 0 19.142V25.6897C0 26.0133 0.262266 26.2756 0.585938 26.2756C0.909609 26.2756 1.17188 26.0133 1.17188 25.6897V19.142C1.17188 16.1872 3.57578 13.7834 6.53047 13.7834H11.4735V17.1506C11.4735 20.7515 14.403 23.6811 18.004 23.6811H25.5099L27.3547 25.7893V26.8615C27.3547 29.8163 24.9508 32.2201 21.9961 32.2201H14.2242C14.0552 32.2201 13.8945 32.2931 13.7832 32.4202L10.0638 36.6709C9.65031 37.1431 9.0918 37.1567 8.70656 37.0119C8.32148 36.8672 7.91016 36.489 7.91016 35.8615V32.8061C7.91016 32.4825 7.64789 32.2201 7.32422 32.2201H6.53047C3.98141 32.2201 1.77141 30.4087 1.27547 27.9129C1.21227 27.5955 0.90375 27.3894 0.586563 27.4524C0.269219 27.5154 0.0630469 27.8239 0.126016 28.1413C0.730547 31.1837 3.42398 33.3919 6.53047 33.3919H6.73828V35.8615C6.73828 36.8714 7.34898 37.7536 8.29422 38.1088C8.57453 38.2141 8.86305 38.2653 9.14789 38.2653C9.82352 38.2653 10.4776 37.9773 10.9457 37.4426L14.4902 33.3919H21.9961C25.51 33.3919 28.3831 30.6019 28.52 27.1209L29.0545 27.7318C29.5226 28.2665 30.1764 28.5544 30.8523 28.5544C31.1371 28.5544 31.4258 28.5032 31.7061 28.3979C32.6512 28.0426 33.2618 27.1608 33.2618 26.1513V23.681H33.4696C37.0705 23.681 40.0001 20.7515 40.0001 17.1505V9.431C40 6.32467 37.7917 3.63123 34.7494 3.0267Z" fill="black"/>
<path d="M12.1077 25.7855V25.7486C12.1077 25.425 11.8454 25.1627 11.5217 25.1627C11.1981 25.1627 10.9358 25.425 10.9358 25.7486V25.7855C10.9358 26.1091 11.1981 26.3714 11.5217 26.3714C11.8454 26.3714 12.1077 26.1091 12.1077 25.7855Z" fill="black"/>
<path d="M14.3467 26.3714C14.6704 26.3714 14.9326 26.1091 14.9326 25.7855V25.7486C14.9326 25.425 14.6704 25.1627 14.3467 25.1627C14.023 25.1627 13.7607 25.425 13.7607 25.7486V25.7855C13.7607 26.1091 14.023 26.3714 14.3467 26.3714Z" fill="black"/>
<path d="M17.5908 25.7855V25.7486C17.5908 25.425 17.3286 25.1627 17.0049 25.1627C16.6812 25.1627 16.4189 25.425 16.4189 25.7486V25.7855C16.4189 26.1091 16.6812 26.3714 17.0049 26.3714C17.3286 26.3714 17.5908 26.1091 17.5908 25.7855Z" fill="black"/>
<path d="M26.3227 14.9867C27.1207 14.8611 27.8502 14.4788 28.4192 13.8795C29.1247 13.1364 29.4839 12.1626 29.4307 11.1373C29.3307 9.2123 27.7415 7.67394 25.8128 7.63511C23.9399 7.598 22.332 8.96574 22.0734 10.8183C22.0498 10.9878 22.0378 11.1611 22.0378 11.3333C22.0378 11.6569 22.3001 11.9193 22.6238 11.9193C22.9475 11.9193 23.2097 11.6569 23.2097 11.3333C23.2097 11.215 23.2179 11.0961 23.2341 10.9801C23.4107 9.71527 24.5111 8.78105 25.7892 8.80675C27.1066 8.83331 28.1921 9.88371 28.2604 11.1981C28.2968 11.8993 28.0514 12.565 27.5693 13.0726C27.087 13.5806 26.4362 13.8603 25.7368 13.8603C25.4131 13.8603 25.1508 14.1227 25.1508 14.4463V16.2282C25.1508 16.5518 25.4131 16.8141 25.7368 16.8141C26.0604 16.8141 26.3227 16.5518 26.3227 16.2282V14.9867Z" fill="black"/>
<path d="M25.7366 17.9365C25.4129 17.9365 25.1506 18.1989 25.1506 18.5225V18.5592C25.1506 18.8828 25.4129 19.1452 25.7366 19.1452C26.0602 19.1452 26.3225 18.8828 26.3225 18.5592V18.5225C26.3225 18.1989 26.0602 17.9365 25.7366 17.9365Z" fill="black"/>
</g>
<defs>
<clipPath id="clip0">
<rect width="40" height="40" fill="white" transform="translate(0 0.583008)"/>
</clipPath>
</defs>
</svg>
