<svg width="51" height="50" viewBox="0 0 51 50" fill="none" xmlns="http://www.w3.org/2000/svg">
<g clip-path="url(#clip0)">
<path d="M49.6009 25.5298C49.6009 19.4832 43.2955 14.5813 35.5175 14.5813C27.7395 14.5813 21.4341 19.4832 21.4341 25.5298C21.4341 31.5765 27.7395 36.4784 35.5175 36.4784C35.5366 36.4784 35.5557 36.4784 35.5747 36.4783C35.9583 36.4771 36.3148 36.678 36.5065 37.0102C38.3331 40.1756 42.6678 40.9837 44.3691 41.1821C44.647 41.2145 44.8377 40.9107 44.6866 40.6753C44.1104 39.7777 43.0456 37.9245 42.6148 35.8995C42.5131 35.421 42.7465 34.936 43.1831 34.7153C47.0461 32.7631 49.6009 29.3786 49.6009 25.5298Z" fill="#FFE07D"/>
<path d="M43.1832 34.7154C47.046 32.7631 49.6009 29.3786 49.6009 25.5298C49.6009 19.4832 43.2956 14.5813 35.5175 14.5813C34.4611 14.5813 33.4322 14.6724 32.4421 14.8439C38.741 15.9347 43.4502 20.3044 43.4502 25.5299C43.4502 29.3787 40.8954 32.7633 37.0325 34.7155C36.5958 34.9362 36.3624 35.4212 36.4642 35.8997C36.6045 36.5593 36.8123 37.2003 37.0483 37.7963C39.0813 40.3132 42.8186 41.0015 44.3693 41.1823C44.6471 41.2147 44.8378 40.9109 44.6868 40.6755C44.1105 39.7779 43.0457 37.9247 42.615 35.8997C42.5131 35.4211 42.7466 34.9361 43.1832 34.7154Z" fill="#FFD064"/>
<path d="M19.5679 8.81531C9.34937 8.81531 1.06567 15.2552 1.06567 23.1991C1.06567 26.5863 2.57192 29.6999 5.09175 32.1575C5.38911 32.4475 5.50103 32.8789 5.39165 33.2796C4.50522 36.5272 2.45288 39.4221 1.52993 40.6117C1.34624 40.8484 1.51978 41.192 1.81938 41.1845C3.86685 41.1334 9.61079 40.6751 13.0886 37.2557C13.3718 36.9773 13.778 36.8674 14.1644 36.959C15.8738 37.3643 17.6878 37.5829 19.5678 37.5829C29.7863 37.5829 38.0701 31.1431 38.0701 23.1991C38.0702 15.2552 29.7864 8.81531 19.5679 8.81531Z" fill="#15C39A"/>
<path d="M8.26745 35.9548C6.18864 38.168 4.99695 39.1333 1.8945 40.1289C1.76032 40.3111 1.63728 40.4733 1.52995 40.6116C1.34626 40.8483 1.5198 41.1919 1.81941 41.1844C3.86696 41.1333 9.61081 40.675 13.0886 37.2557C13.3718 36.9772 13.7781 36.8673 14.1645 36.9589C14.1636 36.9572 14.1626 36.9557 14.1618 36.954C12.7498 36.6199 11.4095 36.1582 10.1631 35.586C9.51696 35.2897 8.75398 35.4367 8.26745 35.9548Z" fill="#078669"/>
<path d="M19.5678 8.81531C18.5199 8.81531 17.4928 8.88406 16.4924 9.01423C25.2469 10.153 31.9193 16.0698 31.9193 23.1991C31.9193 30.3265 25.2503 36.2422 16.4992 37.3831C17.4976 37.5129 18.522 37.5829 19.5678 37.5829C29.7863 37.5829 38.0701 31.1431 38.0701 23.1991C38.0701 15.2552 29.7863 8.81531 19.5678 8.81531Z" fill="#078669"/>
<path d="M8.17095 24.9237C9.16835 24.9237 9.9769 24.1151 9.9769 23.1177C9.9769 22.1203 9.16835 21.3118 8.17095 21.3118C7.17355 21.3118 6.36499 22.1203 6.36499 23.1177C6.36499 24.1151 7.17355 24.9237 8.17095 24.9237Z" fill="#F0F7FF"/>
<path d="M15.4124 24.9237C16.4098 24.9237 17.2184 24.1151 17.2184 23.1177C17.2184 22.1203 16.4098 21.3118 15.4124 21.3118C14.415 21.3118 13.6064 22.1203 13.6064 23.1177C13.6064 24.1151 14.415 24.9237 15.4124 24.9237Z" fill="#F0F7FF"/>
<path d="M22.6541 24.9237C23.6515 24.9237 24.4601 24.1151 24.4601 23.1177C24.4601 22.1203 23.6515 21.3118 22.6541 21.3118C21.6567 21.3118 20.8481 22.1203 20.8481 23.1177C20.8481 24.1151 21.6567 24.9237 22.6541 24.9237Z" fill="#F0F7FF"/>
<path d="M29.8953 24.9237C30.8927 24.9237 31.7013 24.1151 31.7013 23.1177C31.7013 22.1203 30.8927 21.3118 29.8953 21.3118C28.8979 21.3118 28.0894 22.1203 28.0894 23.1177C28.0894 24.1151 28.8979 24.9237 29.8953 24.9237Z" fill="#F0F7FF"/>
<path d="M38.8026 23.1991C38.8026 14.068 29.1774 8.08289 19.5679 8.08289C9.92007 8.08289 0.333252 14.0962 0.333252 23.1991C0.333252 26.643 1.84155 30.0106 4.58042 32.6819C4.6852 32.7842 4.72534 32.9393 4.68511 33.0868C3.82485 36.2383 1.78735 39.0851 0.951318 40.1629C0.69126 40.4981 0.648486 40.9415 0.839795 41.3201C1.02681 41.6903 1.39653 41.9171 1.80962 41.9171C1.81899 41.9171 1.82827 41.917 1.83765 41.9168C5.92876 41.8147 10.6708 40.66 13.6021 37.7782C13.7045 37.6774 13.8515 37.6376 13.9955 37.6719C15.7964 38.099 17.6713 38.3155 19.5679 38.3155C29.2129 38.3153 38.8026 32.3045 38.8026 23.1991ZM14.3334 36.2464C13.6966 36.0951 13.0391 36.2773 12.5751 36.7335C9.6438 39.6156 4.85718 40.2708 2.59126 40.4164C3.62632 38.9876 5.30923 36.3635 6.09829 33.4724C6.27866 32.8117 6.08892 32.107 5.60317 31.6332C3.11392 29.2054 1.7981 26.2889 1.7981 23.1991C1.7981 15.6718 9.76958 9.54773 19.5679 9.54773C29.3663 9.54773 37.3377 15.6717 37.3377 23.1991C37.3377 30.7265 29.3663 36.8505 19.5679 36.8505C17.785 36.8505 16.024 36.6472 14.3334 36.2464Z" fill="black"/>
<path d="M43.5134 35.3691C47.7838 33.211 50.3332 29.5328 50.3332 25.5298C50.3332 19.8725 45.2193 15.0385 38.1733 14.0355C37.7734 13.9787 37.402 14.2569 37.345 14.6574C37.288 15.0579 37.5664 15.4287 37.9669 15.4857C44.2837 16.3849 48.8684 20.609 48.8684 25.5298C48.8684 28.9685 46.6196 32.1581 42.8527 34.0618C42.1202 34.432 41.7278 35.2503 41.8984 36.0521C42.2555 37.7303 43.0157 39.2843 43.6238 40.3376C39.2986 39.6177 37.6592 37.5423 37.1408 36.6441C36.8208 36.0896 36.2224 35.7458 35.5766 35.7458C35.5746 35.7458 35.5728 35.7458 35.5709 35.7458L35.5172 35.7459C34.705 35.7459 33.8917 35.6896 33.1002 35.5784C32.7007 35.5222 32.3293 35.8012 32.2731 36.2018C32.2168 36.6024 32.4959 36.9727 32.8965 37.0289C33.7553 37.1496 34.637 37.2107 35.5172 37.2107L35.5768 37.2106H35.5779C35.7004 37.2106 35.8129 37.274 35.872 37.3762C37.8557 40.814 42.4157 41.6917 44.2842 41.9095C44.6969 41.9576 45.0901 41.769 45.3103 41.4163C45.5299 41.0645 45.5272 40.6289 45.3029 40.2796C44.7402 39.4031 43.7358 37.6488 43.3312 35.7472C43.2989 35.5953 43.3738 35.4397 43.5134 35.3691Z" fill="black"/>
<path d="M8.17095 20.5793C6.77124 20.5793 5.63257 21.7181 5.63257 23.1177C5.63257 24.5173 6.77124 25.6561 8.17095 25.6561C9.57065 25.6561 10.7093 24.5173 10.7093 23.1177C10.7093 21.7181 9.57065 20.5793 8.17095 20.5793ZM8.17095 24.1914C7.57896 24.1914 7.09741 23.7097 7.09741 23.1178C7.09741 22.5259 7.57905 22.0443 8.17095 22.0443C8.76284 22.0443 9.24448 22.5259 9.24448 23.1178C9.24448 23.7097 8.76284 24.1914 8.17095 24.1914Z" fill="black"/>
<path d="M15.4124 20.5793C14.0127 20.5793 12.874 21.7181 12.874 23.1177C12.874 24.5173 14.0127 25.6561 15.4124 25.6561C16.8121 25.6561 17.9508 24.5173 17.9508 23.1177C17.9508 21.7181 16.8121 20.5793 15.4124 20.5793ZM15.4124 24.1914C14.8204 24.1914 14.3389 23.7097 14.3389 23.1178C14.3389 22.5259 14.8205 22.0443 15.4124 22.0443C16.0043 22.0443 16.4859 22.5259 16.4859 23.1178C16.4859 23.7097 16.0044 24.1914 15.4124 24.1914Z" fill="black"/>
<path d="M22.6539 20.5793C21.2541 20.5793 20.1155 21.7181 20.1155 23.1177C20.1155 24.5173 21.2541 25.6561 22.6539 25.6561C24.0536 25.6561 25.1922 24.5173 25.1922 23.1177C25.1922 21.7181 24.0536 20.5793 22.6539 20.5793ZM22.6539 24.1914C22.0619 24.1914 21.5803 23.7097 21.5803 23.1178C21.5803 22.5259 22.062 22.0443 22.6539 22.0443C23.2458 22.0443 23.7274 22.5259 23.7274 23.1178C23.7274 23.7097 23.2458 24.1914 22.6539 24.1914Z" fill="black"/>
<path d="M29.8953 20.5793C28.4956 20.5793 27.3569 21.7181 27.3569 23.1177C27.3569 24.5173 28.4956 25.6561 29.8953 25.6561C31.295 25.6561 32.4337 24.5173 32.4337 23.1177C32.4337 21.7181 31.295 20.5793 29.8953 20.5793ZM29.8953 24.1914C29.3033 24.1914 28.8218 23.7097 28.8218 23.1178C28.8218 22.5259 29.3034 22.0443 29.8953 22.0443C30.4872 22.0443 30.9688 22.5259 30.9688 23.1178C30.9688 23.7097 30.4872 24.1914 29.8953 24.1914Z" fill="black"/>
</g>
<defs>
<clipPath id="clip0">
<rect width="50" height="50" fill="white" transform="translate(0.333252)"/>
</clipPath>
</defs>
</svg>
