<svg width="41" height="50" viewBox="0 0 41 50" fill="none" xmlns="http://www.w3.org/2000/svg">
<path d="M30.7994 14.0731V8.32295C30.7994 4.21216 27.467 0.879761 23.3562 0.879761H17.1971C13.0863 0.879761 9.75391 4.21216 9.75391 8.32295V14.0731H30.7994Z" fill="#D5985C"/>
<path d="M24.7403 29.6109H15.8131L6.6443 32.1016C3.24143 33.0258 0.879395 36.1152 0.879395 39.6414V45.4737C0.879395 47.4878 2.51217 49.1206 4.52629 49.1206H36.0271C38.0413 49.1206 39.674 47.4878 39.674 45.4737V39.6414C39.674 36.1152 37.312 33.0259 33.9091 32.1015L24.7403 29.6109Z" fill="#15C39A"/>
<path d="M33.909 32.1015L24.7402 29.6108H17.3215L26.4904 32.1015C29.8934 33.0258 32.2553 36.115 32.2553 39.6414V45.4737C32.2553 47.4878 30.6225 49.1206 28.6084 49.1206H36.0271C38.0412 49.1206 39.674 47.4878 39.674 45.4737V39.6414C39.674 36.1152 37.312 33.0258 33.909 32.1015Z" fill="#078669"/>
<path d="M24.7401 29.6109V24.9099H15.813V29.6109C15.813 32.076 20.2766 33.0567 20.2766 33.0567C20.2766 33.0567 24.7401 32.076 24.7401 29.6109Z" fill="#FFDDCE"/>
<path d="M24.4756 0.963684V14.0732H30.7996V8.32303C30.7996 4.59252 28.0553 1.50357 24.4756 0.963684Z" fill="#C38959"/>
<path d="M20.2766 33.0565L22.5222 34.9987C23.2198 35.602 24.2554 35.5989 24.9491 34.9912L29.5887 30.9278L28.2049 28.8586C27.7265 28.1431 26.7405 27.986 26.0633 28.5172L20.2766 33.0565Z" fill="#B3E59F"/>
<path d="M20.277 33.0566L18.0314 34.9988C17.3338 35.6021 16.2982 35.5989 15.6045 34.9913L10.9648 30.9279L12.3487 28.8586C12.8271 28.1432 13.8131 27.9861 14.4903 28.5173L20.277 33.0566Z" fill="#B3E59F"/>
<path d="M13.3879 13.4691H10.0295C9.27296 13.4691 8.65967 14.0824 8.65967 14.839V16.4135C8.65967 17.1701 9.27296 17.7834 10.0295 17.7834H13.3879V13.4691Z" fill="#FFDDCE"/>
<path d="M30.5248 13.4691H27.1665V17.7834H30.5248C31.2814 17.7834 31.8947 17.1701 31.8947 16.4135V14.839C31.8947 14.0824 31.2813 13.4691 30.5248 13.4691Z" fill="#FFCBBE"/>
<path d="M27.2046 11.6652V9.81021C27.2046 8.83446 26.4137 8.04352 25.438 8.04352C25.1887 8.04352 24.9422 8.09629 24.7147 8.19842C21.8917 9.46534 18.6618 9.46534 15.8388 8.19842C15.6113 8.09629 15.3648 8.04352 15.1155 8.04352C14.1397 8.04352 13.3488 8.83446 13.3488 9.81021V11.6652C13.3488 12.6615 12.5412 13.4691 11.5449 13.4691V17.6492C11.5449 22.4716 15.4543 26.381 20.2767 26.381C25.0992 26.381 29.0085 22.4716 29.0085 17.6492V13.4691C28.0122 13.4691 27.2046 12.6614 27.2046 11.6652Z" fill="#FFDDCE"/>
<path d="M27.2047 11.6652V9.81021C27.2047 8.83446 26.4137 8.04352 25.438 8.04352C25.1887 8.04352 24.9422 8.09629 24.7147 8.19842C24.6353 8.23407 24.5556 8.26831 24.4756 8.30197V17.6493C24.4756 21.6876 21.7336 25.0839 18.0103 26.0823C18.7333 26.2761 19.4926 26.3811 20.2767 26.3811C25.0992 26.3811 29.0085 22.4717 29.0085 17.6493V13.4692C28.0122 13.4691 27.2047 12.6614 27.2047 11.6652Z" fill="#FFCBBE"/>
<path d="M34.1398 31.2527L30.1371 30.1655L28.9362 28.3696C28.2145 27.2906 26.7278 26.976 25.6199 27.7555V25.634C27.9269 24.0852 29.5287 21.5644 29.8343 18.6626H30.5244C31.7647 18.6626 32.7738 17.6537 32.7738 16.4133V14.8388C32.7738 14.021 32.3337 13.3058 31.6792 12.9121V8.32278C31.6792 3.73355 27.9457 0 23.3564 0H17.1973C12.6082 0 8.87462 3.73355 8.87462 8.32278V12.9121C8.22017 13.3059 7.78008 14.021 7.78008 14.8388V16.4133C7.78008 17.6536 8.78914 18.6626 10.0294 18.6626H10.7195C11.0251 21.5644 12.6269 24.0852 14.934 25.634V27.7555C13.8276 26.9765 12.34 27.2895 11.6177 28.3696L10.4165 30.1655L6.41396 31.2527C2.63749 32.2784 0 35.728 0 39.6413V40.5052C0 40.991 0.393771 41.3846 0.879477 41.3846C1.36518 41.3846 1.75895 40.991 1.75895 40.5052V39.6413C1.75895 36.5198 3.86278 33.7684 6.87493 32.95L10.7399 31.9001L15.0247 35.6527C16.0429 36.5445 17.583 36.5493 18.6064 35.6639L20.2767 34.2194L21.947 35.6639C22.9727 36.5512 24.5128 36.5427 25.5286 35.6528L29.8136 31.9001L33.6786 32.95C36.6908 33.7684 38.7945 36.5197 38.7945 39.6413V45.4735C38.7945 46.9996 37.5531 48.241 36.027 48.241H34.1034V44.022C34.1034 43.5362 33.7096 43.1425 33.2239 43.1425C32.7382 43.1425 32.3445 43.5362 32.3445 44.022V48.241H8.20892V44.022C8.20892 43.5362 7.81515 43.1425 7.32944 43.1425C6.84374 43.1425 6.44996 43.5362 6.44996 44.022V48.241H4.52649C3.00042 48.241 1.75895 46.9996 1.75895 45.4735V44.6167C1.75895 44.1308 1.36518 43.7372 0.879477 43.7372C0.393771 43.7372 0 44.1308 0 44.6167V45.4735C0 47.9693 2.03054 50 4.52649 50H36.0272C38.5232 50 40.5537 47.9695 40.5537 45.4735V39.6413C40.5536 35.728 37.9161 32.2785 34.1398 31.2527ZM31.0148 14.8389V16.4134C31.0148 16.6838 30.7948 16.9038 30.5244 16.9038H29.8881V14.3486H30.5244C30.7948 14.3486 31.0148 14.5686 31.0148 14.8389ZM10.6656 16.9038H10.0293C9.75891 16.9038 9.53892 16.6838 9.53892 16.4134V14.8389C9.53892 14.5685 9.75891 14.3485 10.0293 14.3485H10.6656V16.9038ZM11.5451 12.5896H10.6335V8.3229C10.6335 4.70367 13.5779 1.75907 17.1972 1.75907H23.3563C26.9755 1.75907 29.9201 4.70356 29.9201 8.3229V12.5896H29.0087C28.4989 12.5896 28.0843 12.175 28.0843 11.6653V9.81027C28.0843 8.35127 26.8972 7.16422 25.4381 7.16422C25.0619 7.16422 24.6973 7.24231 24.3547 7.39616C21.7632 8.5593 18.7904 8.55918 16.1991 7.39628C15.8563 7.24243 15.4917 7.16422 15.1155 7.16422C13.6564 7.16422 12.4693 8.35127 12.4693 9.81027V11.6653C12.4693 12.175 12.0547 12.5896 11.5451 12.5896ZM12.4245 17.6492V14.2005C13.4736 13.8357 14.2284 12.837 14.2284 11.6653V9.81027C14.2284 9.32104 14.6264 8.92317 15.1156 8.92317C15.2418 8.92317 15.364 8.94932 15.4789 9.00091C18.528 10.3691 22.0257 10.3693 25.0752 9.0008C25.19 8.94932 25.312 8.92317 25.4382 8.92317C25.9274 8.92317 26.3254 9.32116 26.3254 9.81027V11.6653C26.3254 12.837 27.0803 13.8357 28.1293 14.2005V17.6492C28.1293 21.9677 24.6143 25.5015 20.277 25.5015C15.9409 25.5015 12.4245 21.9692 12.4245 17.6492ZM17.4559 34.3335C17.0922 34.6481 16.5453 34.6465 16.1837 34.3295L12.1248 30.775L13.0795 29.3475C13.2745 29.0557 13.6741 28.9952 13.9471 29.2092L18.894 33.0897L17.4559 34.3335ZM20.2769 31.9387L16.6928 29.1273V26.5646C17.8012 27.0119 19.0103 27.2605 20.277 27.2605C21.5437 27.2605 22.7526 27.0119 23.861 26.5646V29.1273L20.2769 31.9387ZM24.3698 34.3296C24.0083 34.6463 23.4615 34.6481 23.0978 34.3335L21.6595 33.0897L26.6065 29.2091C26.879 28.9955 27.2787 29.055 27.4741 29.3474L28.4288 30.775L24.3698 34.3296Z" fill="black"/>
</svg>
