<svg width="51" height="50" viewBox="0 0 51 50" fill="none" xmlns="http://www.w3.org/2000/svg">
<g clip-path="url(#clip0)">
<path d="M18.2115 34.2027C19.1129 34.933 20.3373 34.8833 21.2102 34.1135C22.4021 33.0625 23.9114 32.4311 25.5557 32.4234C27.2 32.4157 28.7151 33.0328 29.9167 34.0726C30.7968 34.8341 32.0216 34.8724 32.9162 34.1336C34.193 33.0793 34.2405 30.9636 32.9912 29.8675C30.9409 28.0684 28.3457 26.9972 25.5305 27.0105C22.7154 27.0237 20.1303 28.1192 18.0967 29.9376C16.8578 31.0454 16.9249 33.1605 18.2115 34.2027Z" fill="#15C39A"/>
<path d="M10.2061 27.6925L10.2079 27.694C11.2108 28.5065 12.5918 28.3462 13.4498 27.3533C16.496 23.8279 20.7834 21.6199 25.5356 21.5976C30.2879 21.5753 34.5957 23.7429 37.6746 27.2395C38.5417 28.2244 39.9243 28.3717 40.9196 27.5497L40.9213 27.5483C42.1037 26.5719 42.239 24.6691 41.2104 23.4973C37.233 18.966 31.6595 16.1558 25.5103 16.1847C19.3613 16.2136 13.8143 19.076 9.87916 23.6445C8.86178 24.8258 9.01471 26.7273 10.2061 27.6925Z" fill="#15C39A"/>
<path d="M2.28993 21.2548L2.29237 21.2569C3.31434 22.0848 4.74246 21.9189 5.57468 20.8647C10.4295 14.715 17.5615 10.8092 25.5154 10.7719C33.4694 10.7346 40.6373 14.5732 45.5493 20.677C46.3913 21.7233 47.821 21.8758 48.8352 21.0383L48.8376 21.0363C49.9822 20.0911 50.1573 18.2621 49.2067 17.0814C43.3909 9.85742 34.9056 5.31466 25.4902 5.3589C16.0748 5.40314 7.63219 10.0254 1.88397 17.3036C0.944427 18.493 1.13652 20.3204 2.28993 21.2548Z" fill="#15C39A"/>
<path d="M25.5535 44.6415C27.2397 44.6415 28.6065 43.2691 28.6065 41.5761C28.6065 39.8832 27.2397 38.5108 25.5535 38.5108C23.8674 38.5108 22.5005 39.8832 22.5005 41.5761C22.5005 43.2691 23.8674 44.6415 25.5535 44.6415Z" fill="#15C39A"/>
<path d="M49.2068 17.0812C43.391 9.85742 34.9057 5.31466 25.4903 5.3589C25.0708 5.36085 24.6533 5.37238 24.2378 5.3923C33.0454 5.81359 40.9367 10.2472 46.4388 17.0813C47.4081 18.2853 47.2106 20.1742 45.9851 21.1028C46.8296 21.7467 47.9802 21.7445 48.8354 21.0383L48.8378 21.0363C49.9824 20.091 50.1574 18.2619 49.2068 17.0812Z" fill="#078669"/>
<path d="M41.2106 23.4974C37.2332 18.966 31.6598 16.1558 25.5105 16.1847C25.0761 16.1867 24.6449 16.2045 24.2168 16.2344C29.779 16.6219 34.7854 19.3312 38.4424 23.4974C39.491 24.6921 39.3318 26.6516 38.0757 27.6094C38.9294 28.246 40.0666 28.2542 40.9197 27.5498L40.9215 27.5483C42.104 26.5719 42.2392 24.6691 41.2106 23.4974Z" fill="#078669"/>
<path d="M32.9912 29.8675C30.9408 28.0684 28.3457 26.9972 25.5305 27.0105C25.0792 27.0126 24.6339 27.0429 24.1958 27.0992C26.4553 27.3887 28.5258 28.3784 30.223 29.8675C31.4911 30.9803 31.4293 33.1596 30.0687 34.1935C30.9338 34.8352 32.0719 34.8308 32.9161 34.1336C34.193 33.0793 34.2404 30.9636 32.9912 29.8675Z" fill="#078669"/>
<path d="M25.5538 38.5108C25.0556 38.5108 24.5855 38.632 24.1697 38.8453C25.1591 39.3529 25.8386 40.386 25.8386 41.5761C25.8386 42.7663 25.1591 43.7994 24.1697 44.307C24.5855 44.5204 25.0557 44.6415 25.5538 44.6415C27.2372 44.6415 28.6068 43.2663 28.6068 41.5761C28.6068 39.886 27.2372 38.5108 25.5538 38.5108Z" fill="#078669"/>
<path d="M17.7505 34.7717C16.0933 33.4291 16.0513 30.7839 17.6086 29.3914C19.8388 27.3972 22.651 26.2914 25.5271 26.2779L25.582 26.2778C28.4378 26.2778 31.2408 27.3571 33.4743 29.3169C34.2113 29.9636 34.6339 30.9263 34.6339 31.9582C34.6339 33.0429 34.1779 34.0416 33.3826 34.6983C32.1815 35.6902 30.5569 35.595 29.4375 34.6265C28.7784 34.056 28.0385 33.6437 27.2388 33.401C26.8518 33.2835 26.6333 32.8744 26.7507 32.4874C26.8683 32.1004 27.2774 31.8819 27.6643 31.9993C28.6615 32.302 29.5806 32.8133 30.3959 33.5188C30.9988 34.0403 31.8244 34.0854 32.4499 33.5689C33.3903 32.7923 33.409 31.2087 32.5082 30.4181C30.5134 28.6679 28.1184 27.7428 25.582 27.7428L25.5346 27.7429C22.9795 27.7549 20.5766 28.7026 18.585 30.4835C17.677 31.2953 17.743 32.8806 18.6726 33.6337C19.2986 34.1408 20.1237 34.0953 20.7258 33.5643C21.6499 32.7494 22.7485 32.1709 23.9031 31.8914C24.2963 31.7959 24.6921 32.0378 24.7873 32.431C24.8824 32.8241 24.6409 33.22 24.2477 33.3151C23.3237 33.5389 22.4408 34.0049 21.6946 34.6629C20.5729 35.6521 18.9492 35.743 17.7505 34.7717Z" fill="black"/>
<path d="M9.74538 28.2617C8.2363 27.039 8.0364 24.6623 9.32468 23.1666C13.4335 18.3963 19.1858 15.4819 25.5073 15.4522C31.8697 15.4234 37.6353 18.3138 41.7612 23.0142C43.0646 24.4993 42.8839 26.8778 41.3879 28.1131C40.0933 29.1822 38.2614 29.0141 37.1252 27.7236C34.0609 24.2437 29.9734 22.3298 25.6095 22.3298C25.5859 22.3298 25.5629 22.3298 25.5394 22.33C21.1489 22.3507 17.0523 24.3046 14.0042 27.8322C12.8803 29.1329 11.0503 29.3189 9.74704 28.2631L9.74538 28.2617ZM25.6059 16.9168C25.575 16.9168 25.545 16.9169 25.5143 16.917C19.769 16.9439 14.4136 19.5029 10.4346 24.1224C10.0716 24.5438 9.89372 25.1229 9.94645 25.711C9.99733 26.2786 10.2601 26.7933 10.6675 27.1234C10.6676 27.1234 10.6676 27.1235 10.6677 27.1236L10.6695 27.125C11.3546 27.68 12.291 27.5747 12.896 26.8744C16.2247 23.0218 20.7125 20.8878 25.5325 20.8651C25.5581 20.865 25.5844 20.8649 25.6099 20.8649C30.401 20.8649 34.8778 22.9547 38.2246 26.7554C38.8361 27.45 39.7736 27.5465 40.4536 26.985C41.3173 26.2718 41.4179 24.8436 40.6603 23.9805C36.6601 19.4232 31.3163 16.9168 25.6059 16.9168Z" fill="black"/>
<path d="M1.83147 21.8259C0.323565 20.6044 0.1513 18.3158 1.3093 16.8496C7.23496 9.34678 15.8874 4.67151 25.4869 4.62639L25.6266 4.6261C30.2743 4.6261 34.7639 5.69787 38.9706 7.81144C39.332 7.99308 39.4778 8.43331 39.2962 8.79473C39.1145 9.15616 38.6744 9.30206 38.3129 9.12032C34.3121 7.11017 30.0438 6.09094 25.6265 6.09094L25.4934 6.09123C16.6776 6.13264 8.28164 10.3849 2.45881 17.7574C1.76184 18.6398 1.9176 20.0104 2.75109 20.6856C3.47375 21.2712 4.43302 21.129 4.99991 20.4107C10.1741 13.8564 17.6505 10.0762 25.512 10.0393L25.6305 10.0391C33.4463 10.0391 40.9144 13.749 46.12 20.2176C46.6954 20.9327 47.6572 21.0611 48.3689 20.4734C49.2038 19.7839 49.3377 18.4118 48.6364 17.5405C46.4842 14.8674 43.9834 12.5935 41.2031 10.7822C40.8642 10.5614 40.7684 10.1076 40.9892 9.76875C41.2101 9.42989 41.6637 9.33409 42.0027 9.55489C44.9125 11.4506 47.5282 13.8283 49.7773 16.622C50.9575 18.0879 50.7863 20.377 49.304 21.6008C47.9456 22.7224 46.0556 22.4741 44.9788 21.136C40.0528 15.0146 33.0006 11.5039 25.6306 11.5039L25.5192 11.5041C18.1059 11.539 11.0461 15.1161 6.14971 21.3184C5.07589 22.6788 3.18508 22.9226 1.83147 21.8259Z" fill="black"/>
<path d="M25.5538 45.374C23.4665 45.374 21.7683 43.6703 21.7683 41.5762C21.7683 39.482 23.4665 37.7783 25.5538 37.7783C27.6411 37.7783 29.3392 39.482 29.3392 41.5762C29.3392 43.6703 27.6411 45.374 25.5538 45.374ZM25.5538 39.2433C24.2742 39.2433 23.2332 40.2898 23.2332 41.5763C23.2332 42.8627 24.2742 43.9093 25.5538 43.9093C26.8333 43.9093 27.8744 42.8627 27.8744 41.5763C27.8744 40.2898 26.8333 39.2433 25.5538 39.2433Z" fill="black"/>
</g>
<defs>
<clipPath id="clip0">
<rect width="50" height="50" fill="white" transform="translate(0.553711)"/>
</clipPath>
</defs>
</svg>
