<svg width="40" height="41" viewBox="0 0 40 41" fill="none" xmlns="http://www.w3.org/2000/svg">
<g clip-path="url(#clip0)">
<path d="M5.19991 28.583L7.09991 25.883L4.49991 23.183L7.19991 20.583V39.883H11.1999V28.583H17.1999V33.283H21.1999V27.283C21.1999 25.783 19.9999 24.583 18.4999 24.583H13.7999V19.883L23.0999 13.183L21.1999 10.583L12.4999 16.583L10.4999 20.583L8.49991 16.583H5.79991L1.49991 21.383C0.599908 22.483 0.599908 24.083 1.59991 25.083L5.19991 28.583Z" fill="#15C39A"/>
<path d="M12.5 16.583H9.8H8.5L10.5 20.583L12.5 16.583Z" fill="#EFB135"/>
<path d="M9.80005 16.583C12.0092 16.583 13.8 14.7921 13.8 12.583C13.8 10.3739 12.0092 8.58301 9.80005 8.58301C7.59091 8.58301 5.80005 10.3739 5.80005 12.583C5.80005 14.7921 7.59091 16.583 9.80005 16.583Z" fill="#15C39A"/>
<path d="M14.5 33.283V39.983H27.8V33.283H21.2H17.2H14.5Z" fill="#FFCD69"/>
<path d="M33.7001 2.683C33.2001 4.483 31.8001 5.883 30.0001 6.383C29.9001 6.383 29.8001 6.483 29.9001 6.583C29.9001 6.683 30.0001 6.683 30.0001 6.683C31.8001 7.183 33.2001 8.583 33.7001 10.383C33.7001 10.483 33.8001 10.583 33.9001 10.483C34.0001 10.483 34.0001 10.383 34.0001 10.383C34.5001 8.583 35.9001 7.183 37.7001 6.683C37.8001 6.683 37.9001 6.583 37.8001 6.483C37.8001 6.383 37.7001 6.383 37.7001 6.383C35.9001 5.883 34.5001 4.483 34.0001 2.683C34.0001 2.583 33.9001 2.483 33.8001 2.583C33.7001 2.583 33.7001 2.583 33.7001 2.683Z" fill="#FFCD69"/>
<path d="M8.59995 39.283V19.983L7.19995 21.383V23.983V27.083V39.883H11.2V39.283H8.59995Z" fill="#078669"/>
<path d="M3.00001 24.383L6.00001 27.383L5.20001 28.583L1.70001 25.083C0.700005 24.083 0.700005 22.483 1.60001 21.383L5.80001 16.583H6.60001L2.90001 20.783C2.00001 21.783 2.00001 23.383 3.00001 24.383Z" fill="#078669"/>
<path d="M12.1999 15.883C11.5999 16.283 10.9999 16.583 10.2999 16.583L9.9999 15.983H7.6999C6.5999 15.283 5.8999 13.983 5.8999 12.583C5.8999 10.683 7.1999 9.08301 8.9999 8.68301C7.8999 9.38301 7.1999 10.583 7.1999 11.983C7.1999 14.183 8.9999 15.983 11.1999 15.983C11.5999 15.983 11.8999 15.883 12.1999 15.883Z" fill="#078669"/>
<path d="M9.9001 15.983L10.2001 16.583C10.1001 16.583 10.0001 16.583 9.8001 16.583C9.0001 16.583 8.3001 16.383 7.6001 15.983H9.9001Z" fill="#15C39A"/>
<path d="M27.8 39.283V39.883H14.5V33.283H15.9V39.283H27.8Z" fill="#EFB135"/>
<path d="M34.6999 8.983C34.3999 9.483 34.1999 9.983 33.9999 10.483C33.9999 10.583 33.8999 10.583 33.8999 10.583C33.7999 10.583 33.6999 10.583 33.6999 10.483C33.1999 8.683 31.7999 7.283 29.9999 6.783C29.8999 6.783 29.8999 6.683 29.8999 6.683C29.8999 6.583 29.8999 6.483 29.9999 6.483C30.4999 6.383 30.8999 6.183 31.2999 5.983V6.083C31.2999 6.183 31.3999 6.183 31.3999 6.183C32.7999 6.583 34.0999 7.583 34.6999 8.983Z" fill="#EFB135"/>
<path d="M4.7 29.083C4.8 29.183 5 29.283 5.2 29.283C5.4 29.283 5.6 29.183 5.7 28.983L6.5 27.883V39.983C6.5 40.283 6.8 40.583 7.2 40.583H11.2C11.6 40.583 11.9 40.283 11.9 39.883V29.283H16.6V32.583H14.6C14.2 32.583 13.9 32.883 13.9 33.283V39.983C13.9 40.383 14.2 40.683 14.6 40.683H27.9C28.3 40.683 28.6 40.383 28.6 39.983V33.283C28.6 32.883 28.3 32.583 27.9 32.583H21.9V27.283C21.9 25.483 20.4 23.983 18.6 23.983H14.6V20.283L23.7 13.783C23.8 13.683 23.9 13.483 24 13.383C24 13.183 24 12.983 23.9 12.883L21.9 10.183C21.7 9.883 21.3 9.783 21 10.083L14.2 14.783C15.4 12.483 14.5 9.683 12.3 8.483C10.1 7.283 6.9 8.083 5.7 10.383C4.7 12.183 5.1 14.483 6.6 15.883H5.8C5.6 15.883 5.4 15.983 5.3 16.083L0.999998 20.883C-0.200002 22.183 -0.100002 24.183 1.1 25.483L4.7 29.083ZM6.5 24.383L5.4 23.283L6.5 22.183V24.383ZM27.2 39.283H15.2V33.983H27.2V39.283ZM11.4 17.283L10.5 19.083L9.6 17.283H11.4ZM6.5 12.583C6.5 10.783 8 9.283 9.8 9.283C11.6 9.283 13.2 10.783 13.2 12.583C13.2 14.383 11.7 15.883 9.9 15.883C8.1 15.883 6.5 14.383 6.5 12.583ZM2 21.783L6.1 17.183H8.1L9.9 20.783C10.1 21.083 10.5 21.283 10.8 21.083C10.9 20.983 11 20.883 11.1 20.783L13 16.983L21 11.483L22.2 13.083L13.4 19.383C13.2 19.483 13.1 19.683 13.1 19.883V24.583C13.1 24.983 13.4 25.283 13.8 25.283H18.5C19.6 25.283 20.5 26.183 20.5 27.283V32.583H17.8V28.583C17.8 28.183 17.5 27.883 17.1 27.883H11.1C10.7 27.883 10.4 28.183 10.4 28.583V39.283H7.8V20.583C7.8 20.283 7.6 20.083 7.4 19.983C7.2 19.883 6.9 19.983 6.7 20.083L4 22.783C3.7 23.083 3.7 23.483 4 23.683L6.2 25.983L5.1 27.583L2.1 24.583C1.3 23.783 1.3 22.583 2 21.783Z" fill="#3C3C48"/>
<path d="M39.2 5.88301C36.6 5.88301 34.5 3.78301 34.5 1.18301C34.5 0.883008 34.2 0.583008 33.8 0.583008C33.5 0.583008 33.2 0.883008 33.2 1.28301C33.2 3.88301 31.1 5.98301 28.5 5.98301C28.1 5.98301 27.8 6.28301 27.8 6.68301C27.8 7.08301 28.1 7.38301 28.5 7.38301C31.1 7.38301 33.2 9.48301 33.2 12.083C33.2 12.483 33.5 12.783 33.9 12.783C34.3 12.783 34.6 12.483 34.6 12.083C34.6 9.48301 36.7 7.38301 39.3 7.38301C39.7 7.38301 40 7.08301 40 6.68301C40 6.28301 39.6 5.88301 39.2 5.88301ZM33.8 9.18301C33.2 8.08301 32.3 7.18301 31.2 6.58301C32.3 5.98301 33.2 5.08301 33.8 3.98301C34.4 5.08301 35.3 5.98301 36.4 6.58301C35.3 7.18301 34.4 8.08301 33.8 9.18301Z" fill="#3C3C48"/>
<path d="M20.8 18.683L22.6 17.383L23.4 18.483L21.6 19.783L20.8 18.683Z" fill="#3C3C48"/>
<path d="M24.1001 16.283L30.8001 11.383L31.6001 12.483L24.9001 17.383L24.1001 16.283Z" fill="#3C3C48"/>
<path d="M24.1001 10.683L28.1001 7.983L28.8001 9.083L24.8001 11.783L24.1001 10.683Z" fill="#3C3C48"/>
</g>
<defs>
<clipPath id="clip0">
<rect width="39.6" height="40" fill="white" transform="translate(0.199951 0.583008)"/>
</clipPath>
</defs>
</svg>
