<svg width="40" height="41" viewBox="0 0 40 41" fill="none" xmlns="http://www.w3.org/2000/svg">
<g clip-path="url(#clip0)">
<path d="M24.2675 36.6482V37.6466C24.2675 37.7343 24.2628 37.822 24.2534 37.9073C24.1234 39.0819 23.1274 39.9957 21.9184 39.9957H18.3164C17.1074 39.9957 16.1114 39.0819 15.9814 37.9073C15.972 37.822 15.9673 37.7343 15.9673 37.6466V36.6482C16.2782 36.7868 16.6227 36.8636 16.9852 36.8636H23.2495C23.6121 36.8636 23.9566 36.7868 24.2675 36.6482Z" fill="#50758D"/>
<path d="M19.9999 5.71682C19.6755 5.71682 19.4126 5.45395 19.4126 5.12954V1.17028C19.4126 0.845873 19.6755 0.583008 19.9999 0.583008C20.3243 0.583008 20.5872 0.845873 20.5872 1.17028V5.12954C20.5872 5.45395 20.3242 5.71682 19.9999 5.71682Z" fill="#FFE7C9"/>
<path d="M9.45829 10.0834C9.30794 10.0834 9.15768 10.0261 9.04297 9.91146L6.2433 7.11171C6.01395 6.88228 6.01395 6.5105 6.2433 6.28115C6.47281 6.0518 6.84459 6.05195 7.07387 6.28115L9.87353 9.08089C10.1029 9.31032 10.1029 9.6821 9.87353 9.91146C9.75882 10.0261 9.60847 10.0834 9.45829 10.0834Z" fill="#FFE7C9"/>
<path d="M5.09178 20.625H1.13244C0.808031 20.625 0.545166 20.3621 0.545166 20.0377C0.545166 19.7133 0.808031 19.4504 1.13244 19.4504H5.0917C5.41611 19.4504 5.67898 19.7133 5.67898 20.0377C5.67898 20.3621 5.41611 20.625 5.09178 20.625Z" fill="#FFE7C9"/>
<path d="M6.65862 33.9663C6.50836 33.9663 6.35802 33.909 6.2433 33.7944C6.01395 33.565 6.01395 33.1932 6.2433 32.9638L9.04297 30.1642C9.27239 29.9349 9.64418 29.9349 9.87353 30.1642C10.1029 30.3936 10.1029 30.7654 9.87353 30.9947L7.07387 33.7944C6.95915 33.909 6.80889 33.9663 6.65862 33.9663Z" fill="#FFE7C9"/>
<path d="M33.3413 33.9663C33.1911 33.9663 33.0407 33.909 32.926 33.7944L30.1264 30.9947C29.897 30.7653 29.897 30.3935 30.1264 30.1642C30.3558 29.9349 30.7276 29.9349 30.9569 30.1642L33.7566 32.9638C33.9859 33.1933 33.9859 33.565 33.7566 33.7944C33.6419 33.909 33.4916 33.9663 33.3413 33.9663Z" fill="#FFE7C9"/>
<path d="M38.8673 20.625H34.9081C34.5837 20.625 34.3208 20.3621 34.3208 20.0377C34.3208 19.7133 34.5837 19.4504 34.9081 19.4504H38.8673C39.1917 19.4504 39.4546 19.7133 39.4546 20.0377C39.4546 20.3621 39.1917 20.625 38.8673 20.625Z" fill="#FFE7C9"/>
<path d="M30.5417 10.0834C30.3914 10.0834 30.2411 10.0261 30.1264 9.91146C29.897 9.68203 29.897 9.31024 30.1264 9.08089L32.926 6.28115C33.1554 6.05187 33.5272 6.05187 33.7566 6.28115C33.9859 6.51058 33.9859 6.88236 33.7566 7.11171L30.9569 9.91146C30.8423 10.0261 30.6919 10.0834 30.5417 10.0834Z" fill="#FFE7C9"/>
<path d="M20.1174 36.0806C20.1174 36.0806 16.2782 36.7869 15.9673 36.6483V37.6466C15.9673 37.7343 15.972 37.822 15.9814 37.9074C16.1114 39.0819 17.1074 39.9957 18.3164 39.9957H19.3343C18.3129 39.9957 17.4436 39.3434 17.1201 38.4327C17.0653 38.2787 17.1775 38.1165 17.3409 38.1165H23.2495C23.6066 38.1165 23.9464 38.0421 24.2534 37.9074C24.2628 37.822 24.2675 37.7343 24.2675 37.6466V36.6483C23.9566 36.7869 20.1174 36.0806 20.1174 36.0806Z" fill="#2B597F"/>
<path d="M25.7553 34.3579C25.7553 35.3789 25.1438 36.2583 24.2676 36.6482C23.9567 36.7868 23.6122 36.8636 23.2496 36.8636H16.9854C16.6228 36.8636 16.2783 36.7868 15.9674 36.6482C15.0912 36.2583 14.4796 35.3789 14.4796 34.3579C14.4796 34.3579 14.4428 30.6979 14.4358 30.6024V30.5993L20.1175 29.8163L25.7342 30.5993L25.7553 34.3579Z" fill="#50758D"/>
<path d="M18.9429 36.8636H16.9854C16.6228 36.8636 16.2783 36.7868 15.9674 36.6482C15.0912 36.2583 14.4796 35.3789 14.4796 34.3579C14.4796 34.3579 14.4428 30.698 14.4358 30.6024V30.5993H16.3934V30.6024C16.4004 30.698 16.4372 34.3579 16.4372 34.3579C16.4372 35.3789 17.0488 36.2583 17.925 36.6482C18.2358 36.7868 18.5803 36.8636 18.9429 36.8636Z" fill="#2B597F"/>
<path d="M25.7552 34.3187H23.7584C23.4342 34.3187 23.1711 34.0556 23.1711 33.7315C23.1711 33.4073 23.4342 33.1442 23.7584 33.1442H25.7489L25.752 33.7315L25.7552 34.3187Z" fill="#2B597F"/>
<path d="M21.6053 33.7315C21.6053 34.0556 21.3422 34.3187 21.018 34.3187H14.4789L14.4656 33.1442H21.018C21.3422 33.1442 21.6053 33.4073 21.6053 33.7315Z" fill="#2B597F"/>
<path d="M20.0102 7.66972C20.0101 7.66972 20.01 7.66972 20.01 7.66972L20.0102 7.66949C13.9627 7.57646 8.87708 12.8472 8.98584 18.8507C8.98584 21.9131 10.1988 24.689 12.1642 26.7084C13.3223 27.8994 14.3246 29.0004 14.4358 30.5993L25.7342 30.6181C25.7976 28.9722 26.7333 27.8603 27.8993 26.6427C29.8271 24.6295 31.0142 21.881 31.0142 18.8507C31.0141 12.6788 26.0889 7.6752 20.0102 7.66972Z" fill="#15C39A"/>
<path d="M25.7339 30.6149V30.6181L14.4355 30.5993C14.3243 29.0003 13.322 27.8994 12.1639 26.7084C10.1985 24.6889 8.9856 21.9131 8.9856 18.8506C8.87676 12.8471 13.9626 7.57649 20.01 7.66967C20.3153 7.66967 20.6176 7.68299 20.9167 7.70726C15.3431 8.19587 10.8406 13.1987 10.9432 18.8506C10.9432 21.9131 12.1561 24.6889 14.1215 26.7084C15.2796 27.8994 16.2819 29.0003 16.3931 30.5993L25.7339 30.6149Z" fill="#078669"/>
<path d="M20.2764 24.4471C20.042 24.7489 19.6861 24.9316 19.3042 24.9458C19.288 24.9464 19.2719 24.9467 19.2559 24.9467C18.8914 24.9467 18.5429 24.7926 18.2974 24.521L14.6172 20.4493C14.1387 19.9199 14.18 19.103 14.7094 18.6244C15.2387 18.1459 16.0556 18.1872 16.5343 18.7166L19.1809 21.6448L23.4036 16.2065C23.8412 15.643 24.6529 15.5408 25.2164 15.9784C25.78 16.4161 25.8821 17.2277 25.4445 17.7913L20.2764 24.4471Z" fill="#FFCD69"/>
<path d="M19.9999 5.71682C20.3243 5.71682 20.5872 5.45395 20.5872 5.12954V1.17028C20.5872 0.845873 20.3243 0.583008 19.9999 0.583008C19.6755 0.583008 19.4126 0.845873 19.4126 1.17028V5.12954C19.4126 5.45395 19.6755 5.71682 19.9999 5.71682Z" fill="black"/>
<path d="M9.04297 9.91146C9.27239 10.1407 9.6441 10.1407 9.87353 9.91146C10.1029 9.68203 10.1029 9.31024 9.87353 9.08089L7.07387 6.28115C6.84452 6.05195 6.47273 6.0518 6.2433 6.28115C6.01395 6.51058 6.01395 6.88236 6.2433 7.11171L9.04297 9.91146Z" fill="black"/>
<path d="M5.09178 19.4504H1.13244C0.808031 19.4504 0.545166 19.7133 0.545166 20.0377C0.545166 20.3621 0.808031 20.625 1.13244 20.625H5.0917C5.41611 20.625 5.67898 20.3621 5.67898 20.0377C5.67898 19.7133 5.41611 19.4504 5.09178 19.4504Z" fill="black"/>
<path d="M9.04297 30.1641L6.2433 32.9638C6.01395 33.1932 6.01395 33.565 6.2433 33.7943C6.47273 34.0236 6.84444 34.0236 7.07387 33.7943L9.87353 30.9947C10.1029 30.7652 10.1029 30.3935 9.87353 30.1641C9.64418 29.9349 9.27239 29.9349 9.04297 30.1641Z" fill="black"/>
<path d="M30.9569 30.1641C30.7275 29.9348 30.3557 29.9348 30.1264 30.1641C29.897 30.3935 29.897 30.7653 30.1264 30.9946L32.926 33.7943C33.1554 34.0236 33.5271 34.0236 33.7566 33.7943C33.9859 33.5649 33.9859 33.1931 33.7566 32.9638L30.9569 30.1641Z" fill="black"/>
<path d="M38.8673 19.4504H34.9081C34.5837 19.4504 34.3208 19.7133 34.3208 20.0377C34.3208 20.3621 34.5837 20.625 34.9081 20.625H38.8673C39.1917 20.625 39.4546 20.3621 39.4546 20.0377C39.4546 19.7133 39.1917 19.4504 38.8673 19.4504Z" fill="black"/>
<path d="M32.926 6.28115L30.1264 9.08089C29.897 9.31032 29.897 9.6821 30.1264 9.91146C30.3558 10.1407 30.7275 10.1407 30.9569 9.91146L33.7566 7.11171C33.9859 6.88228 33.9859 6.5105 33.7566 6.28115C33.5271 6.05187 33.1554 6.05187 32.926 6.28115Z" fill="black"/>
<path d="M31.6016 18.8507C31.6016 12.3615 26.3972 7.08218 20 7.08218C17.7591 7.08218 15.5842 7.73156 13.7104 8.96006C11.8873 10.1554 10.434 11.8369 9.50761 13.8229C9.3705 14.1169 9.49766 14.4664 9.79153 14.6035C10.0857 14.7407 10.435 14.6134 10.5721 14.3195C12.29 10.6365 15.9907 8.25674 20 8.25674C25.7495 8.25674 30.4271 13.0091 30.4271 18.8507C30.4271 21.6253 29.3786 24.2484 27.4749 26.2368C26.3776 27.3828 25.4436 28.4778 25.2033 30.012H14.9503C14.6475 28.4193 13.5611 27.3018 12.5848 26.2985C10.6426 24.3025 9.57299 21.6574 9.57299 18.8507C9.57299 18.1576 9.63931 17.4644 9.77 16.7903C9.83178 16.472 9.62373 16.1637 9.30527 16.102C8.98689 16.0407 8.67869 16.2483 8.6169 16.5668C8.47189 17.3143 8.39844 18.0827 8.39844 18.8507C8.39844 21.9652 9.58622 24.9012 11.743 27.1176C12.9817 28.3905 13.8585 29.4066 13.8585 30.8959C13.8585 30.901 13.8586 30.9063 13.8588 30.9115L13.8924 34.3579C13.8924 35.476 14.4889 36.4574 15.3802 37.0008V37.6466C15.3802 39.2658 16.6974 40.583 18.3166 40.583H21.9186C23.5377 40.583 24.8549 39.2658 24.8549 37.6466V37.0008C25.7463 36.4574 26.3427 35.476 26.3427 34.3579C26.3427 34.3579 26.3385 30.519 26.3307 30.4807C26.4421 29.1196 27.2671 28.1522 28.3233 27.049C30.4373 24.841 31.6016 21.9293 31.6016 18.8507ZM23.6803 37.6466C23.6803 38.6181 22.8899 39.4085 21.9185 39.4085H18.3165C17.3451 39.4085 16.5547 38.6181 16.5547 37.6466V37.4203C16.6956 37.44 16.8392 37.4509 16.9854 37.4509H23.2496C23.3958 37.4509 23.5394 37.4399 23.6803 37.4203V37.6466ZM23.2496 36.2763H16.9854C15.9275 36.2763 15.0669 35.4158 15.0669 34.3579V34.3187H21.018C21.3424 34.3187 21.6053 34.0559 21.6053 33.7315C21.6053 33.4071 21.3424 33.1442 21.018 33.1442H15.0669V31.1866H25.1499L25.1681 33.1442H23.7586C23.4342 33.1442 23.1713 33.4071 23.1713 33.7315C23.1713 34.0559 23.4342 34.3187 23.7586 34.3187H25.1681V34.3579C25.1681 35.4158 24.3074 36.2763 23.2496 36.2763Z" fill="black"/>
<path d="M23.818 18.9283C23.6191 19.1844 23.6655 19.5534 23.9217 19.7523C24.1777 19.9513 24.5467 19.9049 24.7456 19.6486L25.9083 18.1514C26.2162 17.7549 26.3512 17.2623 26.2885 16.7642C26.2258 16.2662 25.973 15.8223 25.5764 15.5144C25.18 15.2066 24.6871 15.0708 24.1893 15.1343C23.6912 15.1969 23.2474 15.4498 22.9396 15.8463L19.1466 20.7312L16.9698 18.3226C16.2748 17.554 15.0841 17.494 14.3155 18.1887C13.9431 18.5253 13.7241 18.9867 13.6987 19.4881C13.6734 19.9894 13.8449 20.4706 14.1814 20.8431L17.8617 24.9149C18.6026 25.7742 20.0665 25.7215 20.7403 24.8073L23.0647 21.8137C23.2636 21.5576 23.2172 21.1886 22.961 20.9897C22.7049 20.7908 22.336 20.8371 22.137 21.0934L19.8126 24.087C19.5603 24.4298 19.0098 24.4497 18.7332 24.1273L15.0529 20.0555C14.7923 19.7672 14.8149 19.3207 15.1033 19.0601C15.3914 18.7998 15.838 18.8221 16.0986 19.1104L18.7452 22.0387C18.9759 22.3062 19.4345 22.2908 19.6448 22.005L23.8675 16.5668C24.0935 16.2628 24.5623 16.2038 24.8563 16.4423C25.1603 16.6685 25.2192 17.1368 24.9807 17.4312L23.818 18.9283Z" fill="black"/>
</g>
<defs>
<clipPath id="clip0">
<rect width="40" height="40" fill="white" transform="translate(0 0.583008)"/>
</clipPath>
</defs>
</svg>
