<svg width="41" height="41" viewBox="0 0 41 41" fill="none" xmlns="http://www.w3.org/2000/svg">
<g clip-path="url(#clip0)">
<path d="M32.0097 22.6481L29.0739 19.7123L24.6277 24.1585L20.9524 29.5577L22.5468 32.111L29.8464 24.8115L32.0097 22.6481Z" fill="#15C39A"/>
<path d="M11.7261 21.8813L7.03268 26.5747C4.89536 28.7121 4.91534 32.2022 7.09273 34.3142C9.23194 36.3892 12.6639 36.3042 14.7713 34.1968L21.95 27.0181C24.0709 24.8972 24.0709 21.4586 21.95 19.3378L21.9045 19.2923C21.0938 18.4816 21.0938 17.1671 21.9045 16.3565C22.7152 15.5458 24.0296 15.5458 24.8403 16.3565L24.8858 16.402C28.628 20.1442 28.628 26.2117 24.8858 29.9539L17.6489 37.1908C13.9067 40.9331 7.83919 40.9331 4.09696 37.1908C0.354725 33.4486 0.354725 27.3811 4.09696 23.6389L11.3766 16.3592L17.9537 9.78215L20.1276 11.9561L15.36 16.642L15.5294 18.2522L11.7261 21.8813Z" fill="#E1DEE2"/>
<path d="M19.8282 11.6567L17.9537 9.78215L11.3766 16.3592L4.09696 23.6389C0.354725 27.3811 0.354725 33.4486 4.09696 37.1908C4.8243 37.9181 5.6382 38.5034 6.50711 38.9481C6.43518 38.8804 6.36538 38.812 6.29511 38.7416C2.55288 34.9994 2.55288 28.9319 6.29511 25.1897L10.8912 20.5936C11.3675 20.1174 12.1865 20.3259 12.3652 20.9752C12.3866 21.053 12.4089 21.1305 12.432 21.2079L14.5334 19.2027V16.9515L19.8282 11.6567Z" fill="#CAC5CB"/>
<path d="M29.0737 19.7123L32.0095 22.6481L37.1258 17.5318C40.868 13.7896 40.868 7.72211 37.1258 3.97988C33.3836 0.237567 27.3161 0.237567 23.5738 3.97988L16.3369 11.2168C12.5947 14.959 12.5947 21.0265 16.3369 24.7687L16.3824 24.8142C17.1931 25.6249 18.5076 25.6249 19.3182 24.8142C20.1289 24.0035 20.1289 22.6891 19.3182 21.8784L19.2728 21.8329C17.1519 19.712 17.1519 16.2735 19.2728 14.1526L26.4514 6.97392C28.5588 4.86657 31.9908 4.7815 34.13 6.85651C36.3073 8.9685 36.3274 12.4586 34.1901 14.5959L29.4966 19.2894L29.0737 19.7123Z" fill="#15C39A"/>
<path d="M18.9219 11.7429L26.1588 4.50599C28.1849 2.47977 30.8927 1.55129 33.544 1.71914C30.173 0.530277 26.27 1.28374 23.5738 3.97986L16.3369 11.2168C12.5947 14.959 12.5947 21.0265 16.3369 24.7687L16.3824 24.8142C17.0409 25.4727 18.0316 25.5963 18.8149 25.1851C15.1806 21.4349 15.2158 15.4489 18.9219 11.7429Z" fill="#078669"/>
<path d="M25.3033 15.9848L25.2578 15.9393C24.2182 14.8999 22.5267 14.8998 21.4873 15.9393C20.9837 16.4428 20.7063 17.1123 20.7063 17.8246C20.7063 18.5367 20.9836 19.2062 21.4872 19.7098L21.5327 19.7552C22.447 20.6695 22.9506 21.8851 22.9506 23.1781C22.9506 24.471 22.4471 25.6866 21.5327 26.6008L16.9711 31.1625C16.7406 31.393 16.7406 31.7666 16.9711 31.9971C17.2016 32.2275 17.5752 32.2276 17.8057 31.9971L22.3674 27.4355C23.5045 26.2983 24.1308 24.7863 24.1308 23.178C24.1308 21.5697 23.5045 20.0577 22.3674 18.9205L22.3218 18.875C22.0413 18.5945 21.8867 18.2213 21.8867 17.8245C21.8867 17.4276 22.0413 17.0545 22.3219 16.7739C22.9011 16.1945 23.8438 16.1945 24.423 16.7739L24.4685 16.8194C27.9747 20.3255 27.9747 26.0305 24.4685 29.5365L17.2316 36.7735C13.7255 40.2798 8.02035 40.2797 4.51435 36.7734C2.81588 35.0751 1.88048 32.8169 1.88048 30.4148C1.88048 28.0128 2.81588 25.7546 4.51435 24.0562L11.7941 16.7765C12.0245 16.5459 12.0245 16.1723 11.7941 15.9418C11.5635 15.7114 11.1899 15.7114 10.9594 15.9418L3.67967 23.2215C1.75828 25.143 0.700195 27.6976 0.700195 30.415C0.700195 33.1323 1.75828 35.6869 3.67967 37.6084C5.66292 39.5915 8.26799 40.5831 10.873 40.5831C13.478 40.5831 16.0831 39.5915 18.0664 37.6084L25.3033 30.3714C29.2697 26.405 29.2697 19.9512 25.3033 15.9848Z" fill="black"/>
<path d="M11.309 21.464L6.61547 26.1576C5.4676 27.3055 4.84224 28.834 4.85467 30.4613C4.86703 32.0883 5.51599 33.6071 6.68196 34.738C7.8325 35.854 9.33605 36.4094 10.8466 36.4094C12.4165 36.4094 13.994 35.8089 15.1889 34.6143L16.0273 33.7757C16.2578 33.5452 16.2578 33.1715 16.0272 32.9411C15.7968 32.7107 15.4231 32.7106 15.1926 32.9412L14.3543 33.7797C12.4632 35.6707 9.39011 35.7206 7.50381 33.8907C6.56668 32.9817 6.04503 31.7607 6.03504 30.4524C6.02505 29.1437 6.52765 27.9148 7.45022 26.9922L12.1437 22.2988C12.3742 22.0682 12.3742 21.6946 12.1437 21.4641C11.9133 21.2337 11.5396 21.2336 11.309 21.464Z" fill="black"/>
<path d="M37.5431 3.56258C35.6217 1.64118 33.0671 0.583023 30.3498 0.583023C27.6325 0.583023 25.0779 1.64118 23.1566 3.56258L22.752 3.96705C22.5215 4.19754 22.5215 4.57124 22.752 4.80165C22.9824 5.03206 23.356 5.03222 23.5866 4.80173L23.9912 4.39726C25.6896 2.69887 27.9478 1.76339 30.3498 1.76339C32.7518 1.76339 35.0101 2.69887 36.7085 4.39734C40.2147 7.90349 40.2147 13.6084 36.7085 17.1145L29.4288 24.3942C29.1983 24.6248 29.1983 24.9984 29.4288 25.2289C29.5441 25.3441 29.6952 25.4017 29.8462 25.4017C29.9972 25.4017 30.1483 25.3441 30.2636 25.2289L37.5433 17.9492C41.5095 13.9828 41.5095 7.529 37.5431 3.56258Z" fill="black"/>
<path d="M29.9142 19.7068L34.6076 15.0133C35.7555 13.8654 36.3808 12.3371 36.3685 10.7097C36.3561 9.08276 35.7072 7.56387 34.5412 6.43292C32.1949 4.1571 28.3788 4.21226 26.0343 6.55662L18.8556 13.7353C16.508 16.0829 16.508 19.9028 18.856 22.2507L18.9012 22.2958C19.4804 22.8751 19.4804 23.8177 18.9012 24.3969C18.6207 24.6775 18.2474 24.8321 17.8506 24.8321C17.4538 24.8321 17.0806 24.6775 16.8 24.3969L16.7545 24.3514C13.2483 20.8453 13.2483 15.1402 16.7545 11.6342L21.8084 6.58023C22.0389 6.34966 22.0389 5.97604 21.8084 5.74555C21.5779 5.51515 21.2042 5.51515 20.9738 5.74555L15.9198 10.7995C11.9535 14.7659 11.9535 21.2198 15.9198 25.1862L15.9653 25.2317C16.4851 25.7513 17.1679 26.0113 17.8506 26.0113C18.5333 26.0113 19.2161 25.7513 19.7359 25.2317C20.7753 24.1922 20.7753 22.5008 19.7355 21.4609L19.6903 21.4157C17.8029 19.5284 17.8029 16.4574 19.6903 14.57L26.8689 7.39138C28.7601 5.50043 31.8332 5.45062 33.7193 7.28034C34.6565 8.18938 35.1781 9.41051 35.188 10.7187C35.198 12.0275 34.6954 13.2562 33.7729 14.1787L29.0794 18.8722C28.8489 19.1028 28.8489 19.4764 29.0794 19.7069C29.31 19.9372 29.6836 19.9372 29.9142 19.7068Z" fill="black"/>
<path d="M31.1539 30.3763C30.9235 30.1459 30.5498 30.1458 30.3193 30.3763C30.0889 30.6068 30.0889 30.9805 30.3194 31.2109L32.2599 33.1513C32.3751 33.2665 32.5261 33.3241 32.6772 33.3241C32.8282 33.3241 32.9792 33.2665 33.0945 33.1512C33.325 32.9207 33.325 32.547 33.0945 32.3166L31.1539 30.3763Z" fill="black"/>
<path d="M35.5064 27.4999L32.8527 26.8011C32.5373 26.7183 32.2147 26.9062 32.1317 27.2215C32.0486 27.5368 32.237 27.8596 32.5521 27.9426L35.2058 28.6413C35.2562 28.6546 35.3067 28.6609 35.3565 28.6609C35.6181 28.6609 35.857 28.4857 35.9268 28.2209C36.0099 27.9057 35.8216 27.5828 35.5064 27.4999Z" fill="black"/>
<path d="M27.8854 32.609C27.8023 32.2938 27.4799 32.1056 27.1644 32.1885C26.8492 32.2715 26.661 32.5943 26.7439 32.9096L27.4427 35.5633C27.5125 35.828 27.7515 36.0033 28.0131 36.0033C28.0628 36.0033 28.1133 35.9969 28.1638 35.9837C28.4789 35.9007 28.6672 35.5779 28.5842 35.2627L27.8854 32.609Z" fill="black"/>
<path d="M9.89488 10.7866C10.0102 10.9019 10.1612 10.9595 10.3123 10.9595C10.4633 10.9595 10.6143 10.9019 10.7296 10.7867C10.9601 10.5562 10.9601 10.1825 10.7296 9.95212L8.78927 8.01167C8.55878 7.78111 8.18508 7.78119 7.95467 8.01159C7.72411 8.24208 7.72411 8.61578 7.95459 8.84619L9.89488 10.7866Z" fill="black"/>
<path d="M13.1634 8.55398C13.2332 8.81877 13.4722 8.99402 13.7338 8.99402C13.7835 8.99402 13.834 8.98764 13.8845 8.97442C14.1996 8.8914 14.3879 8.56861 14.3049 8.25338L13.6061 5.5996C13.523 5.28445 13.2005 5.09637 12.8851 5.17916C12.5699 5.26218 12.3817 5.58497 12.4646 5.9002L13.1634 8.55398Z" fill="black"/>
<path d="M5.54256 13.6631L8.19626 14.3619C8.2467 14.3751 8.29714 14.3815 8.34695 14.3815C8.60852 14.3815 8.8475 14.2063 8.9173 13.9415C9.00032 13.6262 8.81201 13.3034 8.49686 13.2204L5.84316 12.5216C5.52785 12.4389 5.20521 12.6268 5.12212 12.9421C5.03918 13.2572 5.2274 13.5801 5.54256 13.6631Z" fill="black"/>
</g>
<defs>
<clipPath id="clip0">
<rect width="40" height="40" fill="white" transform="translate(0.609131 0.583008)"/>
</clipPath>
</defs>
</svg>
