<svg width="41" height="41" viewBox="0 0 41 41" fill="none" xmlns="http://www.w3.org/2000/svg">
<g clip-path="url(#clip0)">
<path d="M13.2211 16.0968L10.4945 19.8158C9.45987 21.227 9.74315 23.2063 11.1321 24.2706L13.4133 26.0187C14.2153 26.6333 15.374 26.0615 15.374 25.051V20.3592L16.1692 16.1075L13.2211 16.0968Z" fill="#4A80AA"/>
<path d="M25.8608 20.3593V25.0511C25.8608 26.0616 27.0195 26.6335 27.8215 26.0189L30.1027 24.2707C31.4916 23.2064 31.7749 21.2271 30.7403 19.8159L28.0136 16.0969H24.5911L25.8608 20.3593Z" fill="#4A80AA"/>
<path d="M40.0232 33.6011C40.0232 35.8245 38.881 37.78 37.1513 38.9144C36.1529 39.5691 34.9584 39.9503 33.674 39.9503H7.54429C4.03726 39.9503 1.19507 37.1081 1.19507 33.6011C1.19507 30.0949 4.03726 27.2527 7.54429 27.2527C9.93569 27.2527 12.0169 28.5753 13.0998 30.5285C13.3068 30.205 13.5919 29.9355 13.9279 29.7472C14.2638 29.5581 14.6513 29.4511 15.0646 29.4511C15.6662 29.4511 16.2138 29.6792 16.6271 30.0527V27.8855C16.6271 26.6769 17.5474 25.6824 18.7255 25.566V19.0644H22.4927V25.566C23.6708 25.6824 24.5912 26.6769 24.5912 27.8855V30.0527C24.7982 29.866 25.038 29.716 25.3021 29.612C25.5654 29.5081 25.8529 29.4511 26.1537 29.4511C26.9787 29.4511 27.7029 29.88 28.1177 30.5269C28.1177 30.5277 28.1185 30.5277 28.1185 30.5285C29.2013 28.5753 31.2826 27.2527 33.674 27.2527C34.9373 27.2527 36.1138 27.6214 37.1029 28.2566C37.106 28.2589 37.1091 28.2613 37.1123 28.2628C38.8638 29.3933 40.0232 31.3613 40.0232 33.6011Z" fill="#F9F6F9"/>
<path d="M20.6582 19.0644V25.566C19.4801 25.6824 18.5598 26.6769 18.5598 27.8855V34.0559C18.5598 34.5896 18.1271 35.0223 17.5934 35.0223C17.0596 35.0223 16.627 34.5896 16.627 34.0559V27.8855C16.627 26.6769 17.5473 25.6824 18.7254 25.566V19.0644H20.6582Z" fill="#DDDAEC"/>
<path d="M14.4982 39.9506H7.54429C4.03804 39.9506 1.19507 37.1084 1.19507 33.6014C1.19507 30.0951 4.03804 27.253 7.54429 27.253C8.82788 27.253 10.0224 27.6342 11.0209 28.2897C9.29116 29.4233 8.14897 31.3787 8.14897 33.6014C8.14897 37.1084 10.9919 39.9506 14.4982 39.9506Z" fill="#DDDAEC"/>
<path d="M35.6927 39.6222C35.0583 39.8355 34.3802 39.9503 33.6739 39.9503C30.1677 39.9503 27.3247 37.1081 27.3247 33.6011C27.3247 32.4863 27.6122 31.4386 28.1169 30.5285C28.1169 30.5277 28.1177 30.5277 28.1177 30.5269C28.1177 30.5277 28.1185 30.5277 28.1185 30.5285C29.2013 28.5753 31.2825 27.2527 33.6739 27.2527C34.3802 27.2527 35.0591 27.3675 35.6927 27.5808C34.1786 28.0886 32.92 29.1519 32.1567 30.5285C32.1567 30.5277 32.156 30.5277 32.156 30.5269C32.156 30.5277 32.1552 30.5277 32.1552 30.5285C31.6505 31.4386 31.363 32.4863 31.363 33.6011C31.363 36.4019 33.1763 38.7785 35.6927 39.6222Z" fill="#DDDAEC"/>
<path d="M18.998 2.14699L13.3469 11.8581C12.5901 13.1586 12.5428 14.7537 13.2211 16.0968L15.374 20.3593H25.8608L28.0136 16.0968C28.692 14.7537 28.6447 13.1586 27.8879 11.8581L22.2368 2.14699C21.5142 0.905349 19.7205 0.905349 18.998 2.14699Z" fill="#15C39A"/>
<path d="M20.6172 1.21588C20.3586 1.21588 20.1 1.52604 19.9516 2.14713L17.6274 11.8581C17.3164 13.1588 17.2969 14.7534 17.5758 16.0971L18.461 20.3589H15.3743L13.2211 16.0971C12.543 14.7534 12.5899 13.1588 13.3469 11.8581L18.9977 2.14713C19.3594 1.52604 19.9883 1.21588 20.6172 1.21588Z" fill="#078669"/>
<path d="M20.6174 16.1071C22.7805 16.1071 24.5341 14.3536 24.5341 12.1904C24.5341 10.0273 22.7805 8.27371 20.6174 8.27371C18.4543 8.27371 16.7007 10.0273 16.7007 12.1904C16.7007 14.3536 18.4543 16.1071 20.6174 16.1071Z" fill="#F9F6F9"/>
<path d="M21.7577 15.9389C21.3968 16.049 21.014 16.1076 20.6179 16.1076C18.4546 16.1076 16.7007 14.3537 16.7007 12.1904C16.7007 10.0271 18.4546 8.27402 20.6179 8.27402C21.014 8.27402 21.3968 8.33261 21.7577 8.44277C20.1507 8.93027 18.9804 10.4232 18.9804 12.1904C18.9804 13.9576 20.1507 15.4514 21.7577 15.9389Z" fill="#DDDAEC"/>
<path d="M10.7756 24.7358L13.0568 26.4839C13.3799 26.7315 13.7643 26.8581 14.1525 26.8581C14.4243 26.8581 14.698 26.796 14.9537 26.6698C15.5743 26.3635 15.9598 25.7433 15.9598 25.0512V20.945H25.2747V25.0512C25.2747 25.7433 25.6602 26.3635 26.2808 26.6698C26.5365 26.796 26.8101 26.8581 27.082 26.8581C27.4701 26.8581 27.8546 26.7315 28.1777 26.4839L30.4589 24.7358C31.253 24.1273 31.7684 23.2467 31.9101 22.2564C32.0519 21.266 31.8041 20.2762 31.2126 19.4694L28.6894 16.0279C29.2946 14.579 29.192 12.9357 28.3943 11.5635L25.8224 7.14397C25.6597 6.86428 25.3009 6.76951 25.0212 6.93225C24.7415 7.09498 24.6468 7.45373 24.8095 7.73342L27.3812 12.1527C28.0405 13.2867 28.0814 14.6623 27.4905 15.8323L25.5 19.773H15.7344L13.7438 15.8323C13.153 14.6622 13.1938 13.2867 13.853 12.1529L19.5046 2.44186C19.7379 2.04092 20.1538 1.80154 20.6172 1.80154C21.0807 1.80154 21.4966 2.04092 21.73 2.44194L23.6417 5.72709C23.8044 6.00678 24.1632 6.10147 24.4429 5.93881C24.7226 5.77608 24.8173 5.4174 24.6546 5.13764L22.743 1.85256C22.2974 1.08678 21.5028 0.629669 20.6173 0.629669C19.7319 0.629669 18.9372 1.08686 18.4917 1.85256L12.84 11.5637C12.0423 12.9358 11.9397 14.5791 12.5451 16.028L10.0219 19.4694C9.43037 20.2763 9.18264 21.2661 9.32436 22.2564C9.46615 23.2467 9.98155 24.1273 10.7756 24.7358ZM28.1058 17.2137L30.2676 20.1623C31.1072 21.3076 30.8733 22.9419 29.7462 23.8057L27.465 25.5537C27.2694 25.7037 27.0206 25.728 26.7996 25.619C26.5786 25.5099 26.4466 25.2976 26.4466 25.0511V20.4984L28.1058 17.2137ZM10.967 20.1623L13.1287 17.2138L14.788 20.4987V25.0512C14.788 25.2976 14.6561 25.5099 14.4351 25.619C14.2141 25.7281 13.9652 25.7037 13.7697 25.5538L11.4885 23.8058C10.3613 22.9419 10.1273 21.3075 10.967 20.1623Z" fill="black"/>
<path d="M20.6174 7.68781C18.1347 7.68781 16.1147 9.70765 16.1147 12.1905C16.1147 14.6733 18.1346 16.6931 20.6174 16.6931C23.1002 16.6931 25.1201 14.6733 25.1201 12.1905C25.1201 9.70765 23.1002 7.68781 20.6174 7.68781ZM20.6174 15.5212C18.7808 15.5212 17.2866 14.0271 17.2866 12.1905C17.2866 10.3538 18.7808 8.85968 20.6174 8.85968C22.4541 8.85968 23.9482 10.3538 23.9482 12.1905C23.9482 14.0271 22.4541 15.5212 20.6174 15.5212Z" fill="black"/>
<path d="M33.674 26.6669C31.4275 26.6669 29.3355 27.7569 28.0412 29.5574C27.5216 29.115 26.8577 28.8653 26.1537 28.8653C25.8176 28.8653 25.4895 28.9219 25.1771 29.0333V27.8856C25.1771 26.5619 24.3057 25.438 23.0787 25.0841V22.6114C23.0787 22.2878 22.8163 22.0255 22.4927 22.0255C22.1691 22.0255 21.9068 22.2878 21.9068 22.6114V25.5661C21.9068 25.8673 22.1353 26.1195 22.4351 26.1492C23.3303 26.2376 24.0053 26.9842 24.0053 27.8857L24.0051 32.6436C24.0051 32.9672 24.2675 33.2295 24.5911 33.2295C24.9147 33.2295 25.177 32.9672 25.177 32.6436V30.3385C25.2835 30.2663 25.3966 30.2047 25.5172 30.1572C25.7191 30.0776 25.9333 30.0372 26.1537 30.0372C26.643 30.0372 27.0999 30.2393 27.4269 30.5894C26.9766 31.5239 26.7394 32.5572 26.7394 33.6015C26.7394 33.9251 27.0018 34.1875 27.3254 34.1875C27.649 34.1875 27.9113 33.9251 27.9113 33.6015C27.9113 32.6297 28.1576 31.6699 28.6234 30.8246C28.6258 30.8205 28.6287 30.8169 28.631 30.8126C29.648 28.9783 31.5803 27.8387 33.674 27.8387C36.8519 27.8387 39.4373 30.4237 39.4373 33.6012C39.4373 36.7791 36.8519 39.3645 33.674 39.3645H7.54429C4.3664 39.3645 1.78101 36.7791 1.78101 33.6012C1.78101 32.5139 2.08538 31.4553 2.66132 30.5398C2.83366 30.2659 2.75132 29.9042 2.47741 29.7319C2.20351 29.5594 1.84171 29.6419 1.66944 29.9158C0.975771 31.0183 0.609131 32.2927 0.609131 33.6012C0.609131 37.4252 3.72022 40.5363 7.54429 40.5363H33.674C37.498 40.5363 40.6091 37.4252 40.6091 33.6012C40.6091 29.7776 37.498 26.6669 33.674 26.6669Z" fill="black"/>
<path d="M4.09089 28.9865C5.09285 28.2356 6.28699 27.8388 7.54425 27.8388C9.63793 27.8388 11.5703 28.9783 12.5872 30.8127C12.5879 30.814 12.5889 30.8151 12.5896 30.8164C13.0582 31.6636 13.306 32.6266 13.306 33.6014C13.306 33.925 13.5684 34.1873 13.892 34.1873C14.2156 34.1873 14.4779 33.925 14.4779 33.6014C14.4779 32.5574 14.241 31.5245 13.7909 30.5904C13.9141 30.4589 14.0573 30.3463 14.2152 30.2578C14.4718 30.1134 14.7655 30.037 15.0646 30.037C15.4155 30.037 15.7541 30.1438 16.0413 30.3384V32.6434C16.0413 32.967 16.3036 33.2293 16.6272 33.2293C16.9508 33.2293 17.2132 32.967 17.2132 32.6434L17.213 27.8855C17.213 26.984 17.888 26.2374 18.7832 26.149C19.0829 26.1194 19.3114 25.8672 19.3114 25.5659V22.6112C19.3114 22.2876 19.0491 22.0252 18.7255 22.0252C18.4019 22.0252 18.1396 22.2876 18.1396 22.6112V25.0839C16.9125 25.4378 16.0411 26.5617 16.0411 27.8854V29.0331C15.7304 28.9227 15.4007 28.865 15.0646 28.865C14.5646 28.865 14.0722 28.9934 13.6414 29.2359C13.4768 29.3282 13.3214 29.4365 13.1778 29.5584C11.8837 27.757 9.79128 26.6666 7.54425 26.6666C6.03168 26.6666 4.59449 27.1445 3.38816 28.0484C3.12918 28.2425 3.0766 28.6098 3.27066 28.8687C3.46472 29.128 3.83199 29.1806 4.09089 28.9865Z" fill="black"/>
<path d="M20.0315 27.5884V35.0223C20.0315 35.3459 20.2938 35.6083 20.6174 35.6083C20.941 35.6083 21.2034 35.3459 21.2034 35.0223V27.5884C21.2034 27.2648 20.941 27.0025 20.6174 27.0025C20.2938 27.0025 20.0315 27.2648 20.0315 27.5884Z" fill="black"/>
</g>
<defs>
<clipPath id="clip0">
<rect width="40" height="40" fill="white" transform="translate(0.609131 0.583008)"/>
</clipPath>
</defs>
</svg>
