<svg width="41" height="41" viewBox="0 0 41 41" fill="none" xmlns="http://www.w3.org/2000/svg">
<g clip-path="url(#clip0)">
<path d="M11.1637 20.2697C10.992 17.8546 9.20095 15.8859 6.77985 15.8859C4.35876 15.8859 2.56767 17.8546 2.39603 20.2697C2.29376 21.7096 2.39603 24.0273 1.76978 25.2798C1.76978 25.2798 2.39603 26.5323 4.70564 27.1603L8.86673 27.1585C11.1637 26.5323 11.7899 25.2798 11.7899 25.2798C11.1637 24.0273 11.2659 21.7096 11.1637 20.2697Z" fill="#694B4B"/>
<path d="M6.1536 20.2698C3.74017 19.063 4.23688 16.6987 5.95634 15.967C3.96165 16.3562 2.54751 18.138 2.39603 20.2698C2.29376 21.7096 2.39603 24.0273 1.76978 25.2798C1.76978 25.2798 2.39603 26.5323 4.70564 27.1603L6.6836 27.1595L6.1536 20.2698Z" fill="#5A4146"/>
<path d="M11.3776 28.6661L9.35098 27.6528C8.9266 27.4406 8.65856 27.0068 8.65856 26.5324L8.65863 24.6535H4.90113V26.5324C4.90113 27.0068 4.63309 27.4404 4.20879 27.6526L2.18207 28.666C1.54559 28.9843 1.14355 29.6347 1.14355 30.3464V34.6736H12.4162V30.3464C12.4162 29.6349 12.0142 28.9843 11.3776 28.6661Z" fill="#E6AF78"/>
<path d="M12.4161 30.3465C12.4161 29.6349 12.014 28.9843 11.3775 28.6661L9.3509 27.6528C9.23426 27.5945 9.1327 27.5168 9.04207 27.4288L8.32332 28.2288C7.47441 29.1736 6.08527 29.1736 5.23637 28.2288L4.51754 27.4287C4.42684 27.5167 4.32527 27.5944 4.20879 27.6527L2.18199 28.6661C1.54559 28.9843 1.14355 29.6348 1.14355 30.3464V34.6737H12.4162L12.4161 30.3465Z" fill="#D5DCED"/>
<path d="M6.7798 25.9061C5.34457 25.9061 4.09722 25.1014 3.46441 23.9186C3.03425 23.1145 3.31472 22.1058 4.06027 21.5807C4.20332 21.48 4.35113 21.365 4.49652 21.2353C4.94433 20.8357 5.2066 20.4143 5.35441 20.1054C5.48105 19.8409 5.77285 19.6915 6.05707 19.764C8.26824 20.3274 9.77199 21.479 10.3139 21.9455C10.4578 22.0695 10.5407 22.252 10.5261 22.4414C10.3767 24.3798 8.75652 25.9061 6.7798 25.9061Z" fill="#F0C087"/>
<path d="M10.3132 21.9449C9.77094 21.4781 8.26836 20.3279 6.05953 19.7645C5.77391 19.6916 5.48086 19.8419 5.35344 20.1077C5.24133 20.3414 5.0561 20.6392 4.78117 20.9431C4.7811 20.9438 4.78094 20.9445 4.78086 20.9452C4.69555 21.0419 4.60469 21.1388 4.49664 21.2353C4.35719 21.3597 4.21688 21.4722 4.07813 21.5682C3.1943 22.1796 3.06157 23.3011 3.60321 24.1529C4.17305 25.0491 5.1143 25.6857 6.21016 25.8533C5.46039 25.3432 4.9011 24.6517 4.9011 23.4011V22.9172C5.04336 22.8122 5.18657 22.7075 5.33055 22.579C5.6786 22.2684 5.9825 21.9092 6.22617 21.5224C7.91305 22.0488 9.05664 22.9255 9.49016 23.2983C9.60883 23.4024 9.77524 23.5494 10.1198 23.8727C10.3409 23.524 10.4952 22.845 10.5262 22.4407C10.5408 22.2514 10.457 22.0686 10.3132 21.9449Z" fill="#E6AF78"/>
<path d="M1.52535 29.2176C1.2841 29.5376 1.14355 29.9305 1.14355 30.3465V34.6737H3.64863V31.5181C3.64863 31.1376 3.47566 30.7777 3.17855 30.5401L1.52535 29.2176Z" fill="#C7CFE2"/>
<path d="M12.0344 29.2176C12.2757 29.5376 12.4162 29.9305 12.4162 30.3465V34.6737H9.91113V31.5181C9.91113 31.1376 10.0841 30.7777 10.3812 30.5401L12.0344 29.2176Z" fill="#C7CFE2"/>
<path d="M29.3252 18.391V18.8305C29.3252 19.369 29.412 19.904 29.5823 20.4148L30.5777 23.4011H32.4564V16.5122H31.2039C30.1664 16.5122 29.3252 17.3533 29.3252 18.391Z" fill="#5A4146"/>
<path d="M37.9484 19.5233L36.8405 23.4011L31.8304 19.0172C31.1387 19.0172 30.5779 18.4565 30.5779 17.7647C30.5779 16.7271 31.4191 15.886 32.4566 15.886H38.093V18.491C38.093 18.8401 38.0444 19.1876 37.9484 19.5233Z" fill="#694B4B"/>
<path d="M35.5881 25.2797H31.8303V29.0375H35.5881V25.2797Z" fill="#E6AF78"/>
<path d="M38.609 27.6622L35.5877 26.799L33.7091 29.0373L31.8304 26.799L28.8092 27.6622C28.0026 27.8927 27.4465 28.6299 27.4465 29.4687V34.6736H39.9717V29.4688C39.9717 28.6299 39.4156 27.8927 38.609 27.6622Z" fill="#D5DCED"/>
<path d="M33.709 25.9061C31.6338 25.9061 29.9514 24.2237 29.9514 22.1485C29.9514 21.3465 30.27 20.5774 30.837 20.0103L31.4538 19.3935C31.6943 19.153 32.0231 19.0147 32.363 19.0254C34.3649 19.0885 36.137 19.5175 37.1056 20.4635C37.3427 20.695 37.4665 21.019 37.4665 21.3504V22.1484C37.4666 24.2237 35.7842 25.9061 33.709 25.9061Z" fill="#F0C087"/>
<path d="M31.8302 22.1485C31.8302 21.426 32.437 20.8518 33.1579 20.8978C34.4222 20.9784 36.2982 21.1897 37.4492 21.7434C37.4116 21.4792 37.2981 20.6514 37.1056 20.4635C36.137 19.5175 34.365 19.0885 32.3631 19.0254H32.363C32.0231 19.0147 31.6943 19.1531 31.4538 19.3935L30.837 20.0103C30.2699 20.5774 29.9514 21.3464 29.9514 22.1485C29.9514 23.8621 31.0996 25.3049 32.6678 25.7567C32.1459 25.1126 31.8302 24.2952 31.8302 23.401V22.1485H31.8302Z" fill="#E6AF78"/>
<path d="M37.4666 31.3348C37.4666 30.8365 37.6645 30.3586 38.0169 30.0063L39.629 28.3942C39.8444 28.7021 39.9716 29.0729 39.9716 29.4687V34.6736H37.4666V31.3348Z" fill="#C7CFE2"/>
<path d="M29.555 27.8115L24.3151 25.9061L20.5575 27.1586L16.8 25.9061L11.5601 27.8115C10.5701 28.1715 9.91113 29.1123 9.91113 30.1657V34.6736H31.2039V30.1657C31.2039 29.1123 30.545 28.1715 29.555 27.8115Z" fill="#15C39A"/>
<path d="M30.53 28.459C30.9529 28.9129 31.2041 29.5173 31.2041 30.1657V34.6738H27.4465V32.5801C27.4465 31.9157 27.7104 31.2786 28.1802 30.8088L30.53 28.459Z" fill="#078669"/>
<path d="M27.4464 12.9908V7.74447C27.4464 7.05275 26.8857 6.49197 26.1939 6.49197H18.6788C15.9118 6.49197 13.6687 8.7351 13.6687 11.5021V12.9908C13.6687 13.6639 13.7772 14.3326 13.9901 14.9712L14.1985 15.5966C14.2624 15.7881 14.295 15.9888 14.295 16.1907V16.5121H26.8202V16.1907C26.8202 15.9888 26.8528 15.7881 26.9166 15.5966L27.125 14.9712C27.3379 14.3327 27.4464 13.6639 27.4464 12.9908Z" fill="#5A4146"/>
<path d="M16.8 9.03619C16.8 10.4413 17.9391 11.5804 19.3443 11.5804H19.6965L19.8666 16.5122H26.8203V16.1908C26.8203 15.9888 26.8528 15.7883 26.9167 15.5967L27.1251 14.9713C27.338 14.3327 27.4465 13.664 27.4465 12.9909V7.74447C27.4465 7.05268 26.8857 6.49197 26.194 6.49197H19.3443C17.9391 6.49197 16.8 7.63104 16.8 9.03619Z" fill="#694B4B"/>
<path d="M24.3146 21.5219H16.7998V27.1578H24.3146V21.5219Z" fill="#E6AF78"/>
<path d="M16.8 24.3565C17.9249 24.9433 19.2011 25.2798 20.5576 25.2798C21.9141 25.2798 23.1904 24.9433 24.3152 24.3565V21.5222H16.8V24.3565Z" fill="#D29B6E"/>
<path d="M20.5577 27.1585L18.5603 29.1559C18.2919 29.4243 17.8482 29.3941 17.6186 29.0917L15.5476 26.3628L16.0893 25.2213C16.2492 24.8844 16.6661 24.7609 16.9836 24.9566L20.5577 27.1585Z" fill="#078669"/>
<path d="M20.5576 27.1585L22.555 29.1559C22.8234 29.4243 23.2671 29.3941 23.4967 29.0917L25.5677 26.3628L25.026 25.2213C24.8661 24.8844 24.4492 24.7609 24.1317 24.9566L20.5576 27.1585Z" fill="#078669"/>
<path d="M20.5577 23.401C17.099 23.401 14.2952 20.5972 14.2952 17.1385V16.5122L15.3374 15.8174C15.86 15.469 16.174 14.8824 16.174 14.2542V12.1284C16.174 12.1284 21.1841 10.2496 24.9416 13.381C24.9416 13.381 24.9416 13.8074 24.9416 14.2539C24.9416 14.8821 25.2555 15.4689 25.7783 15.8174L26.8204 16.5122V17.1385C26.8203 20.5971 24.0165 23.401 20.5577 23.401Z" fill="#F0C087"/>
<path d="M10.5852 28.459C10.1623 28.9129 9.91113 29.5173 9.91113 30.1657V34.6738H13.6687V32.5801C13.6687 31.9157 13.4048 31.2786 12.935 30.8088L10.5852 28.459Z" fill="#078669"/>
<path d="M19.1543 13.6336C20.5161 13.4629 22.8999 13.3648 24.9416 14.2538C24.9416 14.0027 24.9416 13.3809 24.9416 13.3809C21.184 10.2495 16.1739 12.1283 16.1739 12.1283V14.2541C16.1739 14.8823 15.86 15.4689 15.3373 15.8174L14.2952 16.5121V17.1384C14.2952 20.3404 16.6998 22.9765 19.801 23.3509H19.8011C18.7204 22.2256 18.0527 20.7006 18.0527 19.0172V14.8777C18.0527 14.243 18.5246 13.7126 19.1543 13.6336Z" fill="#E6AF78"/>
<path d="M35.3241 20.1672C35.4083 20.2093 35.4976 20.2291 35.5857 20.2291C35.8006 20.2291 36.0076 20.1104 36.1102 19.9051C36.255 19.6157 36.1376 19.2637 35.8482 19.119C34.4871 18.4385 31.9351 18.4306 31.8271 18.4306C31.5036 18.4306 31.2412 18.6929 31.2412 19.0165C31.2412 19.3401 31.5036 19.6025 31.8271 19.6025C32.4857 19.6026 34.3976 19.704 35.3241 20.1672Z" fill="black"/>
<path d="M38.7695 27.4612L36.3496 26.7698C36.2451 26.74 36.1721 26.6433 36.1721 26.5346V25.7269C36.369 25.5905 36.5568 25.4378 36.7324 25.2674C37.5832 24.4418 38.0517 23.3344 38.0517 22.1491V21.0344L38.2857 20.5666C38.5425 20.0529 38.6782 19.4778 38.6782 18.9036V15.8841C38.6782 15.5605 38.4158 15.2981 38.0922 15.2981H32.4537C30.4034 15.2981 28.7353 16.9662 28.7353 19.0166V19.0515C28.7353 19.529 28.8482 20.0072 29.0617 20.4342L29.3618 21.0344V21.9914C29.3618 23.5081 30.1092 24.869 31.2413 25.6879L31.2414 26.5344C31.2414 26.665 31.2414 26.7191 30.7576 26.8573L29.5768 27.1947L26.1611 25.9527C26.1734 25.7915 26.119 25.6276 26.0014 25.5041L24.91 24.3573V22.4323C25.0254 22.3373 25.1391 22.2396 25.2493 22.1363C26.6263 20.8457 27.416 19.0235 27.416 17.137V15.5997C27.8318 14.6949 28.0425 13.7375 28.0425 12.7515V6.48663C28.0425 6.16304 27.7801 5.9007 27.4565 5.9007H18.6855C15.5988 5.9007 13.0876 8.41195 13.0876 11.4986V12.7516C13.0876 13.7376 13.2983 14.6951 13.7141 15.5998V16.9226C13.7141 19.1129 14.688 21.0862 16.2201 22.3871V24.3574L15.1286 25.5041C15.0111 25.6276 14.9567 25.7916 14.9689 25.9527L11.3639 27.2636C11.1026 27.3586 10.8599 27.4873 10.6395 27.6431L10.0734 27.3601C11.7586 26.6266 12.2924 25.5949 12.318 25.5437C12.4005 25.3787 12.4005 25.1845 12.318 25.0196C11.8956 24.1748 11.8444 22.6262 11.8033 21.382C11.7896 20.9678 11.7767 20.5765 11.7519 20.228C11.5521 17.4176 9.41559 15.2981 6.78199 15.2981C4.1484 15.2981 2.01176 17.4175 1.81207 20.228C1.7873 20.5766 1.77434 20.9679 1.76066 21.3822C1.71957 22.6263 1.66832 24.1747 1.24598 25.0195C1.16348 25.1844 1.16348 25.3787 1.24598 25.5436C1.2716 25.5948 1.80434 26.6244 3.49285 27.3587L1.92043 28.1449C1.0798 28.5655 0.557617 29.4104 0.557617 30.3502V34.6791C0.557617 35.0026 0.819961 35.265 1.14355 35.265C1.46715 35.265 1.72949 35.0026 1.72949 34.6791V30.3502C1.72949 29.8571 2.00348 29.4137 2.44449 29.1932L4.40254 28.2142L5.08363 28.8615C5.55988 29.3141 6.17082 29.5402 6.78199 29.5402C7.39301 29.5402 8.00426 29.3139 8.48035 28.8615L9.16137 28.2143L9.7998 28.5335C9.49918 29.0145 9.32855 29.5786 9.32855 30.1694V34.6792C9.32855 35.0028 9.5909 35.2652 9.91449 35.2652C10.2381 35.2652 10.5004 35.0028 10.5004 34.6792V30.1694C10.5004 29.3651 11.0083 28.6399 11.7643 28.365L15.5653 26.9829L17.1475 29.3564C17.3498 29.6598 17.6739 29.8544 18.0368 29.8904C18.0773 29.8944 18.1175 29.8963 18.1577 29.8963C18.4779 29.8963 18.7845 29.7703 19.0137 29.5412L19.979 28.5759V34.6793C19.979 35.0029 20.2414 35.2652 20.565 35.2652C20.8886 35.2652 21.1509 35.0029 21.1509 34.6793V28.5759L22.1162 29.5412C22.3454 29.7704 22.652 29.8964 22.9722 29.8964C23.0123 29.8964 23.0526 29.8944 23.093 29.8905C23.456 29.8545 23.7801 29.6599 23.9824 29.3565L25.5647 26.983L29.3656 28.3652C30.1215 28.6401 30.6295 29.3652 30.6295 30.1696V34.6794C30.6295 35.003 30.8918 35.2653 31.2154 35.2653C31.539 35.2653 31.8014 35.003 31.8014 34.6794V30.1696C31.8014 29.3549 31.4777 28.5909 30.9347 28.0258L31.0795 27.9844C31.2255 27.9427 31.4247 27.8856 31.6247 27.7876L33.1207 29.2836V34.6794C33.1207 35.003 33.3831 35.2653 33.7067 35.2653C34.0303 35.2653 34.2926 35.003 34.2926 34.6794V29.2836L35.7782 27.798C35.8572 27.8381 35.9402 27.872 36.0275 27.8969L38.4475 28.5884C38.9999 28.7462 39.3857 29.2577 39.3857 29.8322V34.6794C39.3857 35.003 39.6481 35.2653 39.9717 35.2653C40.2953 35.2653 40.5576 35.003 40.5576 34.6794V29.8322C40.5576 28.7369 39.8223 27.7621 38.7695 27.4612ZM9.24738 26.4283L9.24746 25.7294C9.9291 25.2601 10.4711 24.6 10.7944 23.8194C10.8646 24.3239 10.9683 24.8019 11.128 25.2192C10.8946 25.5035 10.3423 26.0341 9.24738 26.4283ZM2.98105 20.3112C3.0559 19.2584 3.4766 18.2882 4.16566 17.5793C4.8609 16.864 5.79012 16.4701 6.78215 16.4701C7.77418 16.4701 8.70332 16.864 9.39863 17.5793C10.0877 18.2882 10.5084 19.2584 10.5832 20.3112C10.6064 20.6375 10.619 21.018 10.6323 21.4208C10.6335 21.4554 10.6346 21.4905 10.6358 21.5253C9.99832 20.5431 9.01379 19.8193 7.74168 19.4105C6.56645 19.033 5.55566 19.0563 5.51301 19.0574C5.35957 19.0617 5.21395 19.1259 5.10746 19.2364L4.05027 20.3328C3.82566 20.5658 3.83238 20.9367 4.06535 21.1613C4.29832 21.3859 4.66926 21.3791 4.89387 21.1462L5.77355 20.234C6.53113 20.271 8.9684 20.5544 9.91629 22.6417C9.67777 24.1799 8.35574 25.3222 6.7823 25.3222C5.03262 25.3222 3.60926 23.8987 3.60926 22.1491C3.60926 21.8255 3.34691 21.5632 3.02332 21.5632C2.99051 21.5632 2.95848 21.5666 2.92715 21.5718C2.92887 21.5214 2.93051 21.4709 2.93223 21.421C2.94527 21.0181 2.95785 20.6376 2.98105 20.3112ZM2.43613 25.2191C2.59613 24.8008 2.69988 24.3217 2.77012 23.816C3.09324 24.5908 3.63441 25.2522 4.3166 25.7241V26.4263C3.22059 26.0319 2.67082 25.5062 2.43613 25.2191ZM5.89098 28.012L5.34605 27.4942C5.43801 27.3219 5.48855 27.1266 5.48855 26.922V26.2975C5.8973 26.4252 6.33184 26.4941 6.78215 26.4941C7.23191 26.4941 7.66621 26.4249 8.07566 26.2979L8.07559 26.9219C8.07559 27.1266 8.12605 27.322 8.21809 27.4944L7.67324 28.0121C7.17348 28.4869 6.39059 28.4869 5.89098 28.012ZM14.886 16.9225V15.4687C14.886 15.3805 14.8661 15.2934 14.8277 15.214C14.4507 14.4332 14.2595 13.6048 14.2595 12.7516V11.4986C14.2595 9.05804 16.245 7.07257 18.6855 7.07257H26.8706V12.7516C26.8706 13.6048 26.6794 14.4332 26.3024 15.214C26.264 15.2934 26.2441 15.3805 26.2441 15.4687V17.1371C26.2441 18.7239 25.6062 20.1957 24.4479 21.2814C24.3033 21.4169 24.1532 21.5439 23.9981 21.6623C23.9946 21.6646 23.9914 21.6672 23.988 21.6696C22.9029 22.4934 21.5739 22.8938 20.1859 22.8039C17.2139 22.6115 14.886 20.028 14.886 16.9225ZM20.11 23.9733C20.2645 23.9833 20.418 23.9882 20.5711 23.9882C21.6914 23.9882 22.7697 23.7204 23.7381 23.212V24.2823L20.565 26.4512L17.392 24.2823V23.1886C18.213 23.6324 19.1323 23.91 20.11 23.9733ZM18.1851 28.7124C18.1811 28.7165 18.1716 28.7261 18.1525 28.7241C18.1334 28.7222 18.1259 28.711 18.1227 28.7062L16.3004 25.9727L16.8868 25.3566L19.6513 27.2462L18.1851 28.7124ZM23.0074 28.7062C23.0042 28.7111 22.9967 28.7223 22.9776 28.7241C22.9585 28.7266 22.9491 28.7165 22.945 28.7125L21.4788 27.2463L24.2432 25.3566L24.8297 25.9728L23.0074 28.7062ZM30.5336 21.9916V20.8962C30.5336 20.8051 30.5125 20.7155 30.4718 20.6341L30.1098 19.9102C29.9772 19.645 29.9072 19.3481 29.9072 19.0516V19.0166C29.9072 17.6124 31.0496 16.4701 32.4537 16.4701H37.5063V18.9037C37.5063 19.2969 37.4133 19.6908 37.2375 20.0426L36.9417 20.6341C36.901 20.7155 36.8798 20.8051 36.8798 20.8962V22.1491C36.8798 23.0148 36.5376 23.8235 35.9163 24.4265C35.2953 25.0291 34.4749 25.3474 33.6087 25.3207C31.9131 25.2698 30.5336 23.7763 30.5336 21.9916ZM33.5735 26.492C33.6186 26.4934 33.6634 26.4941 33.7084 26.4941C34.1531 26.4941 34.5871 26.4269 35.0003 26.2987V26.5346C35.0003 26.6515 35.015 26.766 35.0426 26.8761L33.7067 28.2119L32.377 26.8823C32.4002 26.7769 32.4133 26.6616 32.4132 26.5343L32.4132 26.287C32.7822 26.4081 33.1711 26.48 33.5735 26.492Z" fill="black"/>
<path d="M37.4656 30.3341C37.142 30.3341 36.8796 30.5965 36.8796 30.9201V34.6791C36.8796 35.0027 37.142 35.265 37.4656 35.265C37.7892 35.265 38.0515 35.0027 38.0515 34.6791V30.9201C38.0515 30.5965 37.7892 30.3341 37.4656 30.3341Z" fill="black"/>
<path d="M3.64966 31.1086C3.32606 31.1086 3.06372 31.371 3.06372 31.6945V34.679C3.06372 35.0026 3.32606 35.2649 3.64966 35.2649C3.97325 35.2649 4.2356 35.0026 4.2356 34.679V31.6945C4.2356 31.371 3.97325 31.1086 3.64966 31.1086Z" fill="black"/>
<path d="M16.7654 12.6547C16.7654 12.6348 16.7785 12.6178 16.796 12.6151C17.5512 12.5013 19.0499 12.3257 20.6027 12.4292C22.4298 12.5508 23.7533 13.0095 24.5362 13.7925C24.765 14.0213 25.136 14.0213 25.3648 13.7925C25.5936 13.5636 25.5936 13.1926 25.3648 12.9639C23.1487 10.7478 18.512 11.1715 16.6212 11.4565C16.0257 11.5462 15.5935 12.0502 15.5935 12.6548V14.0047C15.5935 14.3282 15.8558 14.5906 16.1794 14.5906C16.503 14.5906 16.7654 14.3282 16.7654 14.0047V12.6547Z" fill="black"/>
<path d="M13.6736 31.5871C13.35 31.5871 13.0876 31.8495 13.0876 32.1731V34.6791C13.0876 35.0027 13.35 35.265 13.6736 35.265C13.9972 35.265 14.2595 35.0027 14.2595 34.6791V32.1731C14.2595 31.8495 13.9972 31.5871 13.6736 31.5871Z" fill="black"/>
<path d="M27.4565 31.5871C27.1329 31.5871 26.8706 31.8495 26.8706 32.1731V34.6791C26.8706 35.0027 27.1329 35.265 27.4565 35.265C27.7801 35.265 28.0425 35.0027 28.0425 34.6791V32.1731C28.0425 31.8495 27.7801 31.5871 27.4565 31.5871Z" fill="black"/>
</g>
<defs>
<clipPath id="clip0">
<rect width="40" height="40" fill="white" transform="translate(0.557617 0.583008)"/>
</clipPath>
</defs>
</svg>
