<svg width="13" height="13" viewBox="0 0 13 13" fill="none" xmlns="http://www.w3.org/2000/svg">
<g clip-path="url(#clip0)">
<path d="M10.949 7.70341C10.9256 7.61903 10.9771 7.50185 11.0264 7.41747C11.0414 7.39236 11.0578 7.3681 11.0756 7.34481C11.4966 6.71923 11.7218 5.98246 11.7225 5.22841C11.7295 3.06747 9.90605 1.31435 7.65137 1.31435C5.68496 1.31435 4.04434 2.65263 3.65996 4.42919C3.60246 4.69251 3.57339 4.96123 3.57324 5.23075C3.57324 7.39403 5.32637 9.19403 7.58105 9.19403C7.93965 9.19403 8.42246 9.08622 8.6873 9.01357C8.95215 8.94091 9.21465 8.84482 9.28262 8.81903C9.35229 8.79277 9.42613 8.77927 9.50059 8.77919C9.58183 8.77888 9.66231 8.79482 9.7373 8.82607L11.0662 9.29716C11.0953 9.30949 11.1261 9.31739 11.1576 9.3206C11.2073 9.3206 11.255 9.30084 11.2902 9.26568C11.3254 9.23052 11.3451 9.18282 11.3451 9.1331C11.3435 9.11164 11.3396 9.09043 11.3334 9.06981L10.949 7.70341Z" stroke="#848D95" stroke-miterlimit="10" stroke-linecap="round"/>
<path d="M2.40508 5.62685C2.09768 6.17909 1.94898 6.80558 1.97541 7.43706C2.00184 8.06854 2.20238 8.68042 2.55485 9.20504C2.60899 9.28684 2.63946 9.35012 2.63008 9.39254C2.62071 9.43496 2.35047 10.8426 2.35047 10.8426C2.34397 10.8756 2.34644 10.9096 2.35761 10.9413C2.36878 10.973 2.38825 11.001 2.41399 11.0226C2.44833 11.05 2.49102 11.0647 2.53493 11.0643C2.55839 11.0644 2.58161 11.0596 2.60313 11.0503L3.92055 10.5346C4.01122 10.4989 4.11237 10.5006 4.2018 10.5393C4.64571 10.7123 5.13649 10.8206 5.6275 10.8206C6.2864 10.8213 6.93372 10.6475 7.50368 10.3169" stroke="#848D95" stroke-miterlimit="10" stroke-linecap="round"/>
</g>
<defs>
<clipPath id="clip0">
<rect width="12" height="12" fill="white" transform="translate(0.847412 0.189346)"/>
</clipPath>
</defs>
</svg>
