<svg width="13" height="13" viewBox="0 0 13 13" fill="none" xmlns="http://www.w3.org/2000/svg">
<g clip-path="url(#clip0)">
<path d="M6.83947 2.81435C5.01275 2.81435 3.13892 3.87161 1.66376 5.98614C1.62166 6.04716 1.59858 6.1193 1.59746 6.19343C1.59633 6.26756 1.6172 6.34036 1.65743 6.40263C2.79087 8.17685 4.63962 9.56435 6.83947 9.56435C9.0154 9.56435 10.9021 8.17263 12.0377 6.39442C12.077 6.33337 12.0979 6.2623 12.0979 6.1897C12.0979 6.11709 12.077 6.04602 12.0377 5.98497C10.8995 4.22716 8.999 2.81435 6.83947 2.81435Z" stroke="#848D95" stroke-linecap="round" stroke-linejoin="round"/>
<path d="M6.84741 8.06435C7.88295 8.06435 8.72241 7.22488 8.72241 6.18935C8.72241 5.15381 7.88295 4.31435 6.84741 4.31435C5.81188 4.31435 4.97241 5.15381 4.97241 6.18935C4.97241 7.22488 5.81188 8.06435 6.84741 8.06435Z" stroke="#848D95" stroke-miterlimit="10"/>
</g>
<defs>
<clipPath id="clip0">
<rect width="12" height="12" fill="white" transform="translate(0.847412 0.189346)"/>
</clipPath>
</defs>
</svg>
