<svg width="13" height="13" viewBox="0 0 13 13" fill="none" xmlns="http://www.w3.org/2000/svg">
<g clip-path="url(#clip0)">
<path d="M8.34741 10.9275C8.34741 10.9275 7.97241 11.0643 6.84741 11.0643C5.72241 11.0643 5.11304 10.6893 4.59741 10.3143H3.09741C2.69959 10.3143 2.31806 10.1563 2.03675 9.87501C1.75545 9.5937 1.59741 9.21217 1.59741 8.81435V7.68935C1.59741 7.29152 1.75545 6.90999 2.03675 6.62869C2.31806 6.34738 2.69959 6.18935 3.09741 6.18935H3.80054C3.92932 6.18863 4.0558 6.15512 4.16803 6.09197C4.28027 6.02882 4.37457 5.93811 4.44202 5.82841C4.44202 5.82841 4.64429 5.38802 5.25366 4.33263C5.86304 3.27724 7.03491 1.68935 7.22241 1.31435C7.9021 1.31435 8.23022 1.82997 8.01929 2.43255C7.77835 3.12138 7.46358 3.70708 7.37569 4.47372C7.36304 4.58575 7.44929 4.75497 7.56202 4.75497L10.5974 4.99403" stroke="#848D95" stroke-linecap="round" stroke-linejoin="round"/>
<path d="M10.5974 6.54091L8.72241 6.49403C8.25366 6.45091 7.97241 6.20341 7.97241 5.79091C7.97241 5.37841 8.30054 5.11497 8.72241 5.08778L10.5974 4.99403C11.0099 4.99403 11.3474 5.37841 11.3474 5.79091V5.79489C11.3464 5.99311 11.2669 6.18286 11.1263 6.32265C10.9858 6.46244 10.7956 6.54091 10.5974 6.54091ZM11.3474 8.06435L8.72241 8.01747C8.30054 7.99778 7.97241 7.72661 7.97241 7.31435C7.97241 6.90161 8.30054 6.63794 8.72241 6.61122L11.3474 6.56435C11.5461 6.56496 11.7365 6.64418 11.8771 6.7847C12.0176 6.92522 12.0968 7.11562 12.0974 7.31435V7.31435C12.0968 7.51307 12.0176 7.70348 11.8771 7.84399C11.7365 7.98451 11.5461 8.06373 11.3474 8.06435V8.06435ZM10.2224 11.0643L8.72241 10.994C8.23022 10.9509 7.97241 10.7268 7.97241 10.3143C7.97241 9.90185 8.30991 9.61122 8.72241 9.61122L10.2224 9.56435C10.4212 9.5649 10.6116 9.6441 10.7521 9.78463C10.8927 9.92516 10.9719 10.1156 10.9724 10.3143V10.3143C10.9719 10.5131 10.8927 10.7035 10.7521 10.8441C10.6116 10.9846 10.4212 11.0638 10.2224 11.0643V11.0643ZM10.9724 9.56435L8.72241 9.51747C8.2771 9.49778 7.97241 9.22685 7.97241 8.81435C7.97241 8.40185 8.2771 8.13841 8.72241 8.11122L10.9724 8.06435C11.1712 8.0649 11.3616 8.1441 11.5021 8.28463C11.6427 8.42516 11.7219 8.61561 11.7224 8.81435V8.81435C11.7219 9.01309 11.6427 9.20353 11.5021 9.34406C11.3616 9.48459 11.1712 9.56379 10.9724 9.56435Z" stroke="#848D95" stroke-miterlimit="10"/>
</g>
<defs>
<clipPath id="clip0">
<rect width="12" height="12" fill="white" transform="translate(0.847412 0.189346)"/>
</clipPath>
</defs>
</svg>
