<svg width="13" height="14" viewBox="0 0 13 14" fill="none" xmlns="http://www.w3.org/2000/svg">
<circle cx="6.5" cy="7.40918" r="6" stroke="#848D95"/>
<g clip-path="url(#clip0)">
<path d="M7.9032 5.62329C7.84069 6.46633 7.20159 7.15406 6.49999 7.15406C5.79839 7.15406 5.15817 6.46649 5.09678 5.62329C5.033 4.74628 5.65488 4.09251 6.49999 4.09251C7.3451 4.09251 7.96698 4.76223 7.9032 5.62329Z" stroke="#848D95" stroke-linecap="round" stroke-linejoin="round"/>
<path d="M6.50006 8.17458C5.1128 8.17458 3.70481 8.93996 3.44426 10.3846C3.41284 10.5588 3.51139 10.7259 3.69364 10.7259H9.30647C9.48889 10.7259 9.58743 10.5588 9.55602 10.3846C9.29531 8.93996 7.88732 8.17458 6.50006 8.17458Z" stroke="#848D95" stroke-miterlimit="10"/>
</g>
<defs>
<clipPath id="clip0">
<rect width="8.16412" height="8.16412" fill="white" transform="translate(2.41797 3.32713)"/>
</clipPath>
</defs>
</svg>
