<svg width="17" height="16" viewBox="0 0 17 16" fill="none" xmlns="http://www.w3.org/2000/svg">
<path fill-rule="evenodd" clip-rule="evenodd" d="M4.09336 0.375H4.06445H4.06442C3.66907 0.374987 3.32801 0.374976 3.04709 0.397928C2.75058 0.422154 2.45567 0.475641 2.17188 0.620237C1.74852 0.835952 1.40431 1.18016 1.1886 1.60352C1.044 1.88731 0.990514 2.18222 0.966288 2.47873C0.943336 2.75965 0.943347 3.10072 0.943359 3.49606V3.49609V3.525V4.51447V4.54338V4.54341C0.943347 4.93876 0.943336 5.27982 0.966288 5.56075C0.990514 5.85725 1.044 6.15217 1.1886 6.43595C1.40431 6.85932 1.74852 7.20352 2.17188 7.41924C2.45567 7.56384 2.75058 7.61732 3.04709 7.64155C3.32802 7.6645 3.66909 7.66449 4.06446 7.66448L4.09336 7.66447H5.08283L5.11174 7.66448C5.5071 7.66449 5.84818 7.6645 6.12911 7.64155C6.42561 7.61732 6.72053 7.56384 7.00431 7.41924C7.42768 7.20352 7.77188 6.85932 7.9876 6.43595C8.13219 6.15217 8.18568 5.85725 8.20991 5.56075C8.23286 5.27982 8.23285 4.93874 8.23284 4.54338L8.23283 4.51447V3.525L8.23284 3.4961C8.23285 3.10073 8.23286 2.75966 8.20991 2.47873C8.18568 2.18222 8.13219 1.88731 7.9876 1.60352C7.77188 1.18016 7.42768 0.835952 7.00431 0.620237C6.72053 0.475641 6.42561 0.422154 6.12911 0.397928C5.84818 0.374976 5.50712 0.374987 5.11177 0.375H5.11174H5.08283H4.09336ZM2.85287 1.95675C2.88995 1.93785 2.96549 1.90959 3.16924 1.89295C3.38174 1.87558 3.66095 1.875 4.09336 1.875H5.08283C5.51525 1.875 5.79445 1.87558 6.00696 1.89295C6.2107 1.90959 6.28624 1.93785 6.32333 1.95675C6.46445 2.02865 6.57918 2.14339 6.65109 2.28451C6.66998 2.32159 6.69824 2.39713 6.71489 2.60088C6.73225 2.81338 6.73283 3.09259 6.73283 3.525V4.51447C6.73283 4.94689 6.73225 5.2261 6.71489 5.4386C6.69824 5.64235 6.66998 5.71789 6.65109 5.75497C6.57918 5.89609 6.46445 6.01082 6.32333 6.08273C6.28624 6.10162 6.2107 6.12988 6.00696 6.14653C5.79445 6.16389 5.51525 6.16447 5.08283 6.16447H4.09336C3.66095 6.16447 3.38174 6.16389 3.16924 6.14653C2.96549 6.12988 2.88995 6.10162 2.85287 6.08273C2.71175 6.01082 2.59701 5.89609 2.52511 5.75497C2.50621 5.71789 2.47795 5.64235 2.46131 5.4386C2.44394 5.2261 2.44336 4.94689 2.44336 4.51447V3.525C2.44336 3.09259 2.44394 2.81338 2.46131 2.60088C2.47795 2.39713 2.50621 2.32159 2.52511 2.28451C2.59701 2.14339 2.71175 2.02865 2.85287 1.95675ZM12.0538 0.375H12.0249H12.0249C11.6295 0.374987 11.2885 0.374976 11.0075 0.397928C10.711 0.422154 10.4161 0.475641 10.1323 0.620237C9.70897 0.835952 9.36476 1.18016 9.14904 1.60352C9.00445 1.88731 8.95096 2.18222 8.92674 2.47873C8.90378 2.75966 8.9038 3.10073 8.90381 3.49609L8.90381 3.525V4.51447L8.90381 4.54338C8.9038 4.93874 8.90378 5.27982 8.92674 5.56075C8.95096 5.85725 9.00445 6.15217 9.14904 6.43595C9.36476 6.85932 9.70897 7.20352 10.1323 7.41924C10.4161 7.56384 10.711 7.61732 11.0075 7.64155C11.2885 7.6645 11.6295 7.66449 12.0249 7.66448L12.0538 7.66447H13.0433L13.0722 7.66448C13.4675 7.66449 13.8086 7.6645 14.0896 7.64155C14.3861 7.61732 14.681 7.56384 14.9648 7.41924C15.3881 7.20352 15.7323 6.85932 15.948 6.43595C16.0926 6.15217 16.1461 5.85725 16.1704 5.56075C16.1933 5.27982 16.1933 4.93874 16.1933 4.54338L16.1933 4.51447V3.525L16.1933 3.4961C16.1933 3.10073 16.1933 2.75966 16.1704 2.47873C16.1461 2.18222 16.0926 1.88731 15.948 1.60352C15.7323 1.18016 15.3881 0.835952 14.9648 0.620237C14.681 0.475641 14.3861 0.422154 14.0896 0.397928C13.8086 0.374976 13.4676 0.374987 13.0722 0.375H13.0722H13.0433H12.0538ZM10.8133 1.95675C10.8504 1.93785 10.9259 1.90959 11.1297 1.89295C11.3422 1.87558 11.6214 1.875 12.0538 1.875H13.0433C13.4757 1.875 13.7549 1.87558 13.9674 1.89295C14.1712 1.90959 14.2467 1.93785 14.2838 1.95675C14.4249 2.02865 14.5396 2.14339 14.6115 2.28451C14.6304 2.32159 14.6587 2.39713 14.6753 2.60088C14.6927 2.81338 14.6933 3.09259 14.6933 3.525V4.51447C14.6933 4.94689 14.6927 5.2261 14.6753 5.4386C14.6587 5.64235 14.6304 5.71789 14.6115 5.75497C14.5396 5.89609 14.4249 6.01082 14.2838 6.08273C14.2467 6.10162 14.1712 6.12988 13.9674 6.14653C13.7549 6.16389 13.4757 6.16447 13.0433 6.16447H12.0538C11.6214 6.16447 11.3422 6.16389 11.1297 6.14653C10.9259 6.12988 10.8504 6.10162 10.8133 6.08273C10.6722 6.01082 10.5575 5.89609 10.4856 5.75497C10.4667 5.71789 10.4384 5.64235 10.4218 5.4386C10.4044 5.2261 10.4038 4.94689 10.4038 4.51447V3.525C10.4038 3.09259 10.4044 2.81338 10.4218 2.60088C10.4384 2.39713 10.4667 2.32159 10.4856 2.28451C10.5575 2.14339 10.6722 2.02865 10.8133 1.95675ZM4.06445 8.33551L4.09336 8.33551H5.08283L5.11174 8.33551C5.5071 8.3355 5.84818 8.33549 6.12911 8.35844C6.42561 8.38266 6.72053 8.43615 7.00431 8.58075C7.42768 8.79646 7.77188 9.14067 7.9876 9.56403C8.13219 9.84782 8.18568 10.1427 8.20991 10.4392C8.23286 10.7202 8.23285 11.0612 8.23284 11.4566L8.23283 11.4855V12.475L8.23284 12.5039C8.23285 12.8993 8.23286 13.2403 8.20991 13.5213C8.18568 13.8178 8.13219 14.1127 7.9876 14.3965C7.77188 14.8198 7.42768 15.164 7.00431 15.3797C6.72053 15.5243 6.42561 15.5778 6.12911 15.6021C5.84818 15.625 5.5071 15.625 5.11174 15.625L5.08283 15.625H4.09336L4.06446 15.625C3.66909 15.625 3.32802 15.625 3.04709 15.6021C2.75058 15.5778 2.45567 15.5243 2.17188 15.3797C1.74852 15.164 1.40431 14.8198 1.1886 14.3965C1.044 14.1127 0.990514 13.8178 0.966288 13.5213C0.943336 13.2403 0.943347 12.8993 0.943359 12.5039V12.5039V12.475V11.4855V11.4566V11.4566C0.943347 11.0612 0.943336 10.7202 0.966288 10.4392C0.990514 10.1427 1.044 9.84782 1.1886 9.56403C1.40431 9.14067 1.74852 8.79646 2.17188 8.58075C2.45567 8.43615 2.75058 8.38266 3.04709 8.35844C3.32802 8.33549 3.66909 8.3355 4.06445 8.33551ZM3.16924 9.85346C2.96549 9.8701 2.88995 9.89836 2.85287 9.91726C2.71175 9.98916 2.59701 10.1039 2.52511 10.245C2.50621 10.2821 2.47795 10.3576 2.46131 10.5614C2.44394 10.7739 2.44336 11.0531 2.44336 11.4855V12.475C2.44336 12.9074 2.44394 13.1866 2.46131 13.3991C2.47795 13.6029 2.50621 13.6784 2.52511 13.7155C2.59701 13.8566 2.71175 13.9713 2.85287 14.0432C2.88995 14.0621 2.96549 14.0904 3.16924 14.107C3.38174 14.1244 3.66095 14.125 4.09336 14.125H5.08283C5.51525 14.125 5.79445 14.1244 6.00696 14.107C6.2107 14.0904 6.28624 14.0621 6.32333 14.0432C6.46445 13.9713 6.57918 13.8566 6.65109 13.7155C6.66998 13.6784 6.69824 13.6029 6.71489 13.3991C6.73225 13.1866 6.73283 12.9074 6.73283 12.475V11.4855C6.73283 11.0531 6.73225 10.7739 6.71489 10.5614C6.69824 10.3576 6.66998 10.2821 6.65109 10.245C6.57918 10.1039 6.46445 9.98916 6.32333 9.91726C6.28624 9.89836 6.2107 9.8701 6.00696 9.85346C5.79445 9.83609 5.51525 9.83551 5.08283 9.83551H4.09336C3.66095 9.83551 3.38174 9.83609 3.16924 9.85346ZM12.0538 8.33551L12.0249 8.33551C11.6295 8.3355 11.2885 8.33549 11.0075 8.35844C10.711 8.38266 10.4161 8.43615 10.1323 8.58075C9.70897 8.79646 9.36476 9.14067 9.14904 9.56403C9.00445 9.84782 8.95096 10.1427 8.92674 10.4392C8.90378 10.7202 8.9038 11.0612 8.90381 11.4566L8.90381 11.4855V12.475L8.90381 12.5039C8.9038 12.8993 8.90378 13.2403 8.92674 13.5213C8.95096 13.8178 9.00445 14.1127 9.14904 14.3965C9.36476 14.8198 9.70897 15.164 10.1323 15.3797C10.4161 15.5243 10.711 15.5778 11.0075 15.6021C11.2885 15.625 11.6295 15.625 12.0249 15.625L12.0538 15.625H13.0433L13.0722 15.625C13.4675 15.625 13.8086 15.625 14.0896 15.6021C14.3861 15.5778 14.681 15.5243 14.9648 15.3797C15.3881 15.164 15.7323 14.8198 15.948 14.3965C16.0926 14.1127 16.1461 13.8178 16.1704 13.5213C16.1933 13.2403 16.1933 12.8993 16.1933 12.5039L16.1933 12.475V11.4855L16.1933 11.4566C16.1933 11.0612 16.1933 10.7202 16.1704 10.4392C16.1461 10.1427 16.0926 9.84782 15.948 9.56403C15.7323 9.14067 15.3881 8.79646 14.9648 8.58075C14.681 8.43615 14.3861 8.38266 14.0896 8.35844C13.8086 8.33549 13.4676 8.3355 13.0722 8.33551L13.0433 8.33551H12.0538ZM10.8133 9.91726C10.8504 9.89836 10.9259 9.8701 11.1297 9.85346C11.3422 9.83609 11.6214 9.83551 12.0538 9.83551H13.0433C13.4757 9.83551 13.7549 9.83609 13.9674 9.85346C14.1712 9.8701 14.2467 9.89836 14.2838 9.91726C14.4249 9.98916 14.5396 10.1039 14.6115 10.245C14.6304 10.2821 14.6587 10.3576 14.6753 10.5614C14.6927 10.7739 14.6933 11.0531 14.6933 11.4855V12.475C14.6933 12.9074 14.6927 13.1866 14.6753 13.3991C14.6587 13.6029 14.6304 13.6784 14.6115 13.7155C14.5396 13.8566 14.4249 13.9713 14.2838 14.0432C14.2467 14.0621 14.1712 14.0904 13.9674 14.107C13.7549 14.1244 13.4757 14.125 13.0433 14.125H12.0538C11.6214 14.125 11.3422 14.1244 11.1297 14.107C10.9259 14.0904 10.8504 14.0621 10.8133 14.0432C10.6722 13.9713 10.5575 13.8566 10.4856 13.7155C10.4667 13.6784 10.4384 13.6029 10.4218 13.3991C10.4044 13.1866 10.4038 12.9074 10.4038 12.475V11.4855C10.4038 11.0531 10.4044 10.7739 10.4218 10.5614C10.4384 10.3576 10.4667 10.2821 10.4856 10.245C10.5575 10.1039 10.6722 9.98916 10.8133 9.91726Z" fill="#171D24"/>
</svg>
