<svg width="17" height="16" viewBox="0 0 17 16" fill="none" xmlns="http://www.w3.org/2000/svg">
<path fill-rule="evenodd" clip-rule="evenodd" d="M3.06836 5C3.89679 5 4.56836 4.32843 4.56836 3.5C4.56836 2.67157 3.89679 2 3.06836 2C2.23993 2 1.56836 2.67157 1.56836 3.5C1.56836 4.32843 2.23993 5 3.06836 5ZM3.06836 9.5C3.89679 9.5 4.56836 8.82843 4.56836 8C4.56836 7.17157 3.89679 6.5 3.06836 6.5C2.23993 6.5 1.56836 7.17157 1.56836 8C1.56836 8.82843 2.23993 9.5 3.06836 9.5ZM4.56836 12.5C4.56836 13.3284 3.89679 14 3.06836 14C2.23993 14 1.56836 13.3284 1.56836 12.5C1.56836 11.6716 2.23993 11 3.06836 11C3.89679 11 4.56836 11.6716 4.56836 12.5ZM6.56836 2.75C6.15415 2.75 5.81836 3.08579 5.81836 3.5C5.81836 3.91421 6.15415 4.25 6.56836 4.25H14.5684C14.9826 4.25 15.3184 3.91421 15.3184 3.5C15.3184 3.08579 14.9826 2.75 14.5684 2.75H6.56836ZM5.81836 8C5.81836 7.58579 6.15415 7.25 6.56836 7.25H14.5684C14.9826 7.25 15.3184 7.58579 15.3184 8C15.3184 8.41421 14.9826 8.75 14.5684 8.75H6.56836C6.15415 8.75 5.81836 8.41421 5.81836 8ZM6.56836 11.75C6.15415 11.75 5.81836 12.0858 5.81836 12.5C5.81836 12.9142 6.15415 13.25 6.56836 13.25H14.5684C14.9826 13.25 15.3184 12.9142 15.3184 12.5C15.3184 12.0858 14.9826 11.75 14.5684 11.75H6.56836Z" fill="#171D24"/>
</svg>
